<?xml version="1.0" encoding="UTF-8"?>
<!DOCTYPE svg PUBLIC "-//W3C//DTD SVG 1.1//EN" "http://www.w3.org/Graphics/SVG/1.1/DTD/svg11.dtd">
<svg xmlns="http://www.w3.org/2000/svg" version="1.1" width="1452px" height="1511px" style="shape-rendering:geometricPrecision; text-rendering:geometricPrecision; image-rendering:optimizeQuality; fill-rule:evenodd; clip-rule:evenodd" xmlns:xlink="http://www.w3.org/1999/xlink">
<g><path style="opacity:1" fill="#fefffe" d="M 576.5,7.5 C 581.167,7.5 585.833,7.5 590.5,7.5C 590.5,10.5 590.5,13.5 590.5,16.5C 591.833,16.5 593.167,16.5 594.5,16.5C 594.5,20.8333 594.5,25.1667 594.5,29.5C 595.833,29.5 597.167,29.5 598.5,29.5C 598.5,31.1667 598.5,32.8333 598.5,34.5C 597.167,34.5 595.833,34.5 594.5,34.5C 593.576,44.4607 593.242,54.4607 593.5,64.5C 594.833,64.5 596.167,64.5 597.5,64.5C 597.02,81.8316 596.52,99.1649 596,116.5C 594.644,117.38 593.144,117.714 591.5,117.5C 591.5,120.167 591.5,122.833 591.5,125.5C 592.833,125.5 594.167,125.5 595.5,125.5C 595.5,126.833 595.5,128.167 595.5,129.5C 599.798,130.2 604.131,130.533 608.5,130.5C 608.5,131.833 608.5,133.167 608.5,134.5C 619.489,135.119 630.489,135.452 641.5,135.5C 641.336,132.813 641.503,130.146 642,127.5C 643.299,127.034 644.799,127.034 646.5,127.5C 646.5,125.833 646.5,124.167 646.5,122.5C 647.833,122.5 649.167,122.5 650.5,122.5C 650.5,119.833 650.5,117.167 650.5,114.5C 652.167,114.5 653.833,114.5 655.5,114.5C 655.5,111.5 655.5,108.5 655.5,105.5C 656.833,105.5 658.167,105.5 659.5,105.5C 659.5,104.167 659.5,102.833 659.5,101.5C 661.167,101.5 662.833,101.5 664.5,101.5C 664.5,100.167 664.5,98.8333 664.5,97.5C 665.833,97.5 667.167,97.5 668.5,97.5C 668.5,95.8333 668.5,94.1667 668.5,92.5C 671.95,93.2436 673.616,91.9103 673.5,88.5C 676.167,88.5 678.833,88.5 681.5,88.5C 681.5,87.1667 681.5,85.8333 681.5,84.5C 690.185,84.464 698.851,84.7974 707.5,85.5C 707.5,83.8333 707.5,82.1667 707.5,80.5C 710.545,80.5079 713.545,80.8413 716.5,81.5C 716.5,79.8333 716.5,78.1667 716.5,76.5C 726.821,77.1327 737.155,77.466 747.5,77.5C 747.227,79.9582 748.227,81.6249 750.5,82.5C 751.48,85.0865 751.813,87.7531 751.5,90.5C 752.833,90.5 754.167,90.5 755.5,90.5C 755.5,92.1667 755.5,93.8333 755.5,95.5C 756.833,95.5 758.167,95.5 759.5,95.5C 759.5,98.5 759.5,101.5 759.5,104.5C 760.833,104.5 762.167,104.5 763.5,104.5C 763.5,105.833 763.5,107.167 763.5,108.5C 766.5,108.5 769.5,108.5 772.5,108.5C 772.5,110.167 772.5,111.833 772.5,113.5C 773.833,113.5 775.167,113.5 776.5,113.5C 776.5,114.833 776.5,116.167 776.5,117.5C 781.88,117.324 787.213,117.658 792.5,118.5C 792.5,116.833 792.5,115.167 792.5,113.5C 796.881,113.372 801.215,113.705 805.5,114.5C 805.5,112.833 805.5,111.167 805.5,109.5C 808.833,109.5 812.167,109.5 815.5,109.5C 815.5,111.167 815.5,112.833 815.5,114.5C 823.84,114.334 832.173,114.5 840.5,115C 841.711,116.113 841.711,117.28 840.5,118.5C 842.045,119.452 843.712,119.785 845.5,119.5C 845.5,122.5 845.5,125.5 845.5,128.5C 846.833,128.5 848.167,128.5 849.5,128.5C 849.5,131.5 849.5,134.5 849.5,137.5C 850.833,137.5 852.167,137.5 853.5,137.5C 853.5,138.833 853.5,140.167 853.5,141.5C 854.833,141.5 856.167,141.5 857.5,141.5C 857.5,144.5 857.5,147.5 857.5,150.5C 858.833,150.5 860.167,150.5 861.5,150.5C 861.5,153.5 861.5,156.5 861.5,159.5C 862.833,159.5 864.167,159.5 865.5,159.5C 865.5,160.833 865.5,162.167 865.5,163.5C 866.833,163.5 868.167,163.5 869.5,163.5C 869.5,166.5 869.5,169.5 869.5,172.5C 870.833,172.5 872.167,172.5 873.5,172.5C 873.5,176.833 873.5,181.167 873.5,185.5C 874.833,185.5 876.167,185.5 877.5,185.5C 877.5,189.833 877.5,194.167 877.5,198.5C 880.91,198.384 882.244,200.05 881.5,203.5C 883.167,203.5 884.833,203.5 886.5,203.5C 886.5,204.833 886.5,206.167 886.5,207.5C 888.857,207.337 891.19,207.503 893.5,208C 894.38,209.356 894.714,210.856 894.5,212.5C 895.833,212.5 897.167,212.5 898.5,212.5C 898.5,213.833 898.5,215.167 898.5,216.5C 899.833,216.5 901.167,216.5 902.5,216.5C 902.5,218.167 902.5,219.833 902.5,221.5C 905.5,221.5 908.5,221.5 911.5,221.5C 911.5,222.833 911.5,224.167 911.5,225.5C 912.833,225.5 914.167,225.5 915.5,225.5C 915.5,227.167 915.5,228.833 915.5,230.5C 916.833,230.5 918.167,230.5 919.5,230.5C 919.5,233.833 919.5,237.167 919.5,240.5C 918.167,240.5 916.833,240.5 915.5,240.5C 915.5,242.833 915.5,245.167 915.5,247.5C 916.833,247.5 918.167,247.5 919.5,247.5C 919.5,249.167 919.5,250.833 919.5,252.5C 920.833,252.5 922.167,252.5 923.5,252.5C 923.5,253.833 923.5,255.167 923.5,256.5C 926.5,256.5 929.5,256.5 932.5,256.5C 932.5,258.167 932.5,259.833 932.5,261.5C 939.167,261.5 945.833,261.5 952.5,261.5C 952.5,260.167 952.5,258.833 952.5,257.5C 957.167,257.5 961.833,257.5 966.5,257.5C 966.5,259.167 966.5,260.833 966.5,262.5C 970.833,262.5 975.167,262.5 979.5,262.5C 979.5,263.833 979.5,265.167 979.5,266.5C 983.182,266.335 986.848,266.501 990.5,267C 992.107,268.049 992.773,269.549 992.5,271.5C 996.833,271.5 1001.17,271.5 1005.5,271.5C 1005.5,273.167 1005.5,274.833 1005.5,276.5C 1008.17,276.5 1010.83,276.5 1013.5,276.5C 1013.5,277.833 1013.5,279.167 1013.5,280.5C 1016.5,280.5 1019.5,280.5 1022.5,280.5C 1022.5,282.167 1022.5,283.833 1022.5,285.5C 1024.83,285.5 1027.17,285.5 1029.5,285.5C 1029.5,282.5 1029.5,279.5 1029.5,276.5C 1031.17,276.5 1032.83,276.5 1034.5,276.5C 1034.5,270.833 1034.5,265.167 1034.5,259.5C 1035.83,259.5 1037.17,259.5 1038.5,259.5C 1038.7,256.482 1039.04,253.482 1039.5,250.5C 1042.17,250.5 1044.83,250.5 1047.5,250.5C 1047.5,249.167 1047.5,247.833 1047.5,246.5C 1049.17,246.5 1050.83,246.5 1052.5,246.5C 1052.5,245.167 1052.5,243.833 1052.5,242.5C 1055.17,242.5 1057.83,242.5 1060.5,242.5C 1060.5,241.167 1060.5,239.833 1060.5,238.5C 1063.5,238.5 1066.5,238.5 1069.5,238.5C 1069.5,237.167 1069.5,235.833 1069.5,234.5C 1074.17,234.5 1078.83,234.5 1083.5,234.5C 1083.5,235.833 1083.5,237.167 1083.5,238.5C 1087.5,238.5 1091.5,238.5 1095.5,238.5C 1095.5,237.167 1095.5,235.833 1095.5,234.5C 1098.5,234.5 1101.5,234.5 1104.5,234.5C 1104.5,233.167 1104.5,231.833 1104.5,230.5C 1107.17,230.5 1109.83,230.5 1112.5,230.5C 1112.5,229.167 1112.5,227.833 1112.5,226.5C 1115.5,226.5 1118.5,226.5 1121.5,226.5C 1121.5,225.167 1121.5,223.833 1121.5,222.5C 1122.83,222.5 1124.17,222.5 1125.5,222.5C 1125.29,220.856 1125.62,219.356 1126.5,218C 1130.46,218.158 1134.46,218.325 1138.5,218.5C 1138.5,216.833 1138.5,215.167 1138.5,213.5C 1144.5,213.833 1150.5,214.167 1156.5,214.5C 1156.5,212.833 1156.5,211.167 1156.5,209.5C 1163.49,210.089 1170.49,210.422 1177.5,210.5C 1176.91,207.739 1177.91,206.073 1180.5,205.5C 1185.79,206.402 1191.12,206.735 1196.5,206.5C 1196.5,207.833 1196.5,209.167 1196.5,210.5C 1206.49,211.055 1216.49,211.388 1226.5,211.5C 1226.5,212.833 1226.5,214.167 1226.5,215.5C 1237.83,215.833 1249.17,216.167 1260.5,216.5C 1260.5,217.833 1260.5,219.167 1260.5,220.5C 1270.49,220.99 1280.49,221.323 1290.5,221.5C 1290.5,222.833 1290.5,224.167 1290.5,225.5C 1291.83,225.5 1293.17,225.5 1294.5,225.5C 1294.5,227.167 1294.5,228.833 1294.5,230.5C 1295.83,230.5 1297.17,230.5 1298.5,230.5C 1298.5,231.833 1298.5,233.167 1298.5,234.5C 1300.17,234.5 1301.83,234.5 1303.5,234.5C 1303.5,236.167 1303.5,237.833 1303.5,239.5C 1306.17,239.5 1308.83,239.5 1311.5,239.5C 1311.5,240.833 1311.5,242.167 1311.5,243.5C 1312.83,243.5 1314.17,243.5 1315.5,243.5C 1315.5,244.833 1315.5,246.167 1315.5,247.5C 1319.17,247.183 1320.84,248.849 1320.5,252.5C 1321.83,252.5 1323.17,252.5 1324.5,252.5C 1324.5,253.833 1324.5,255.167 1324.5,256.5C 1326.92,256.292 1329.25,256.626 1331.5,257.5C 1332.43,258.689 1332.76,260.022 1332.5,261.5C 1334.17,261.5 1335.83,261.5 1337.5,261.5C 1337.5,262.833 1337.5,264.167 1337.5,265.5C 1338.83,265.5 1340.17,265.5 1341.5,265.5C 1341.5,268.5 1341.5,271.5 1341.5,274.5C 1342.83,274.5 1344.17,274.5 1345.5,274.5C 1345.5,278.833 1345.5,283.167 1345.5,287.5C 1346.83,287.5 1348.17,287.5 1349.5,287.5C 1349.5,290.5 1349.5,293.5 1349.5,296.5C 1350.83,296.5 1352.17,296.5 1353.5,296.5C 1353.5,299.5 1353.5,302.5 1353.5,305.5C 1354.83,305.5 1356.17,305.5 1357.5,305.5C 1357.5,306.833 1357.5,308.167 1357.5,309.5C 1359.17,309.5 1360.83,309.5 1362.5,309.5C 1362.5,312.5 1362.5,315.5 1362.5,318.5C 1363.83,318.5 1365.17,318.5 1366.5,318.5C 1366.5,320.167 1366.5,321.833 1366.5,323.5C 1367.83,323.5 1369.17,323.5 1370.5,323.5C 1370.5,324.833 1370.5,326.167 1370.5,327.5C 1371.83,327.5 1373.17,327.5 1374.5,327.5C 1374.5,328.833 1374.5,330.167 1374.5,331.5C 1376.17,331.5 1377.83,331.5 1379.5,331.5C 1379.5,333.167 1379.5,334.833 1379.5,336.5C 1380.83,336.5 1382.17,336.5 1383.5,336.5C 1383.5,337.833 1383.5,339.167 1383.5,340.5C 1387.44,340.207 1391.27,340.54 1395,341.5C 1395.49,339.866 1395.66,338.199 1395.5,336.5C 1396.83,336.5 1398.17,336.5 1399.5,336.5C 1399.5,333.833 1399.5,331.167 1399.5,328.5C 1401.17,328.5 1402.83,328.5 1404.5,328.5C 1404.5,326.833 1404.5,325.167 1404.5,323.5C 1406.17,323.5 1407.83,323.5 1409.5,323.5C 1409.14,339.833 1408.81,356.166 1408.5,372.5C 1407.17,372.5 1405.83,372.5 1404.5,372.5C 1404.5,376.833 1404.5,381.167 1404.5,385.5C 1402.83,385.5 1401.17,385.5 1399.5,385.5C 1399.5,386.833 1399.5,388.167 1399.5,389.5C 1398.17,389.5 1396.83,389.5 1395.5,389.5C 1395.5,392.5 1395.5,395.5 1395.5,398.5C 1393.83,398.5 1392.17,398.5 1390.5,398.5C 1390.5,401.5 1390.5,404.5 1390.5,407.5C 1389.17,407.5 1387.83,407.5 1386.5,407.5C 1386.5,412.833 1386.5,418.167 1386.5,423.5C 1387.83,423.5 1389.17,423.5 1390.5,423.5C 1390.5,425.167 1390.5,426.833 1390.5,428.5C 1394.83,428.5 1399.17,428.5 1403.5,428.5C 1403.5,429.833 1403.5,431.167 1403.5,432.5C 1406.17,432.5 1408.83,432.5 1411.5,432.5C 1411.5,435.5 1411.5,438.5 1411.5,441.5C 1413.17,441.5 1414.83,441.5 1416.5,441.5C 1416.5,444.5 1416.5,447.5 1416.5,450.5C 1417.83,450.5 1419.17,450.5 1420.5,450.5C 1420.5,456.167 1420.5,461.833 1420.5,467.5C 1421.83,467.5 1423.17,467.5 1424.5,467.5C 1424.5,473.833 1424.5,480.167 1424.5,486.5C 1422.83,486.5 1421.17,486.5 1419.5,486.5C 1419.5,487.5 1419.5,488.5 1419.5,489.5C 1422.5,489.5 1425.5,489.5 1428.5,489.5C 1428.5,493.833 1428.5,498.167 1428.5,502.5C 1429.83,502.5 1431.17,502.5 1432.5,502.5C 1432.5,511.167 1432.5,519.833 1432.5,528.5C 1433.83,528.5 1435.17,528.5 1436.5,528.5C 1436.76,538.872 1436.43,549.206 1435.5,559.5C 1437.17,559.5 1438.83,559.5 1440.5,559.5C 1440.17,568.167 1439.83,576.833 1439.5,585.5C 1441.17,585.5 1442.83,585.5 1444.5,585.5C 1443.72,600.487 1443.38,615.487 1443.5,630.5C 1440.5,630.5 1437.5,630.5 1434.5,630.5C 1434.5,631.833 1434.5,633.167 1434.5,634.5C 1433.17,634.5 1431.83,634.5 1430.5,634.5C 1430.5,635.833 1430.5,637.167 1430.5,638.5C 1429.17,638.5 1427.83,638.5 1426.5,638.5C 1426.62,641.91 1424.95,643.244 1421.5,642.5C 1421.5,644.167 1421.5,645.833 1421.5,647.5C 1420.17,647.5 1418.83,647.5 1417.5,647.5C 1417.5,650.167 1417.5,652.833 1417.5,655.5C 1415.83,655.5 1414.17,655.5 1412.5,655.5C 1412.5,657.167 1412.5,658.833 1412.5,660.5C 1411.17,660.5 1409.83,660.5 1408.5,660.5C 1408.5,663.167 1408.5,665.833 1408.5,668.5C 1406.83,668.5 1405.17,668.5 1403.5,668.5C 1403.66,670.199 1403.49,671.866 1403,673.5C 1400.62,672.565 1398.12,672.232 1395.5,672.5C 1395.5,674.167 1395.5,675.833 1395.5,677.5C 1393.83,677.5 1392.17,677.5 1390.5,677.5C 1390.5,678.833 1390.5,680.167 1390.5,681.5C 1387.83,681.5 1385.17,681.5 1382.5,681.5C 1382.5,682.833 1382.5,684.167 1382.5,685.5C 1380.83,685.5 1379.17,685.5 1377.5,685.5C 1377.5,694.167 1377.5,702.833 1377.5,711.5C 1375.83,711.5 1374.17,711.5 1372.5,711.5C 1372.5,712.833 1372.5,714.167 1372.5,715.5C 1371.17,715.5 1369.83,715.5 1368.5,715.5C 1368.5,718.5 1368.5,721.5 1368.5,724.5C 1367.17,724.5 1365.83,724.5 1364.5,724.5C 1364.49,727.545 1364.16,730.545 1363.5,733.5C 1362.17,733.5 1360.83,733.5 1359.5,733.5C 1359.5,734.833 1359.5,736.167 1359.5,737.5C 1358.17,737.5 1356.83,737.5 1355.5,737.5C 1355.5,740.5 1355.5,743.5 1355.5,746.5C 1353.83,746.5 1352.17,746.5 1350.5,746.5C 1350.5,750.833 1350.5,755.167 1350.5,759.5C 1349.17,759.5 1347.83,759.5 1346.5,759.5C 1346.5,762.167 1346.5,764.833 1346.5,767.5C 1344.83,767.5 1343.17,767.5 1341.5,767.5C 1341.5,776.167 1341.5,784.833 1341.5,793.5C 1339.55,793.227 1338.05,793.893 1337,795.5C 1336.5,803.493 1336.33,811.493 1336.5,819.5C 1335.17,819.5 1333.83,819.5 1332.5,819.5C 1332.41,829.843 1332.08,840.176 1331.5,850.5C 1330.17,850.5 1328.83,850.5 1327.5,850.5C 1327.5,854.833 1327.5,859.167 1327.5,863.5C 1325.83,863.5 1324.17,863.5 1322.5,863.5C 1322.5,869.167 1322.5,874.833 1322.5,880.5C 1321.17,880.5 1319.83,880.5 1318.5,880.5C 1318.5,883.5 1318.5,886.5 1318.5,889.5C 1316.83,889.5 1315.17,889.5 1313.5,889.5C 1313.5,890.833 1313.5,892.167 1313.5,893.5C 1309.17,893.5 1304.83,893.5 1300.5,893.5C 1300.5,896.167 1300.5,898.833 1300.5,901.5C 1299.17,901.5 1297.83,901.5 1296.5,901.5C 1296.5,904.5 1296.5,907.5 1296.5,910.5C 1294.83,910.5 1293.17,910.5 1291.5,910.5C 1291.5,911.833 1291.5,913.167 1291.5,914.5C 1290.17,914.5 1288.83,914.5 1287.5,914.5C 1287.5,917.5 1287.5,920.5 1287.5,923.5C 1286.17,923.5 1284.83,923.5 1283.5,923.5C 1283.16,926.562 1282.49,929.562 1281.5,932.5C 1280.83,932.167 1280.17,931.833 1279.5,931.5C 1278.52,934.428 1278.18,937.428 1278.5,940.5C 1277.17,940.5 1275.83,940.5 1274.5,940.5C 1274.62,943.91 1272.95,945.244 1269.5,944.5C 1269.5,948.5 1269.5,952.5 1269.5,956.5C 1270.83,956.5 1272.17,956.5 1273.5,956.5C 1273.5,964.167 1273.5,971.833 1273.5,979.5C 1272.17,979.5 1270.83,979.5 1269.5,979.5C 1269.73,982.249 1269.39,984.916 1268.5,987.5C 1267.31,988.429 1265.98,988.762 1264.5,988.5C 1264.5,995.5 1264.5,1002.5 1264.5,1009.5C 1265.83,1009.5 1267.17,1009.5 1268.5,1009.5C 1268.5,1015.17 1268.5,1020.83 1268.5,1026.5C 1269.83,1026.5 1271.17,1026.5 1272.5,1026.5C 1272.5,1032.5 1272.5,1038.5 1272.5,1044.5C 1273.83,1044.5 1275.17,1044.5 1276.5,1044.5C 1276.5,1050.17 1276.5,1055.83 1276.5,1061.5C 1277.83,1061.5 1279.17,1061.5 1280.5,1061.5C 1280.5,1068.83 1280.5,1076.17 1280.5,1083.5C 1283.5,1083.5 1286.5,1083.5 1289.5,1083.5C 1289.5,1086.5 1289.5,1089.5 1289.5,1092.5C 1290.83,1092.5 1292.17,1092.5 1293.5,1092.5C 1293.5,1095.5 1293.5,1098.5 1293.5,1101.5C 1294.83,1101.5 1296.17,1101.5 1297.5,1101.5C 1297.5,1105.83 1297.5,1110.17 1297.5,1114.5C 1298.83,1114.5 1300.17,1114.5 1301.5,1114.5C 1301.5,1124.5 1301.5,1134.5 1301.5,1144.5C 1302.83,1144.5 1304.17,1144.5 1305.5,1144.5C 1305.5,1147.5 1305.5,1150.5 1305.5,1153.5C 1307.17,1153.5 1308.83,1153.5 1310.5,1153.5C 1310.5,1156.5 1310.5,1159.5 1310.5,1162.5C 1311.83,1162.5 1313.17,1162.5 1314.5,1162.5C 1314.5,1165.17 1314.5,1167.83 1314.5,1170.5C 1315.83,1170.5 1317.17,1170.5 1318.5,1170.5C 1318.82,1186.41 1318.49,1202.24 1317.5,1218C 1319.13,1218.49 1320.8,1218.66 1322.5,1218.5C 1322.5,1220.17 1322.5,1221.83 1322.5,1223.5C 1323.83,1223.5 1325.17,1223.5 1326.5,1223.5C 1326.5,1224.83 1326.5,1226.17 1326.5,1227.5C 1328.29,1227.21 1329.95,1227.55 1331.5,1228.5C 1330.75,1229.74 1330.42,1231.07 1330.5,1232.5C 1336.17,1232.5 1341.83,1232.5 1347.5,1232.5C 1347.5,1231.17 1347.5,1229.83 1347.5,1228.5C 1352.17,1228.5 1356.83,1228.5 1361.5,1228.5C 1361.5,1229.83 1361.5,1231.17 1361.5,1232.5C 1364.5,1232.5 1367.5,1232.5 1370.5,1232.5C 1370.5,1234.17 1370.5,1235.83 1370.5,1237.5C 1371.83,1237.5 1373.17,1237.5 1374.5,1237.5C 1374.5,1243.17 1374.5,1248.83 1374.5,1254.5C 1375.83,1254.5 1377.17,1254.5 1378.5,1254.5C 1378.5,1265.17 1378.5,1275.83 1378.5,1286.5C 1376.83,1286.5 1375.17,1286.5 1373.5,1286.5C 1373.5,1292.17 1373.5,1297.83 1373.5,1303.5C 1372.17,1303.5 1370.83,1303.5 1369.5,1303.5C 1369.5,1308.83 1369.5,1314.17 1369.5,1319.5C 1370.83,1319.5 1372.17,1319.5 1373.5,1319.5C 1373.5,1323.83 1373.5,1328.17 1373.5,1332.5C 1374.82,1332.33 1375.99,1332.66 1377,1333.5C 1377.5,1336.15 1377.66,1338.81 1377.5,1341.5C 1378.83,1341.5 1380.17,1341.5 1381.5,1341.5C 1381.5,1344.83 1381.5,1348.17 1381.5,1351.5C 1380.17,1351.5 1378.83,1351.5 1377.5,1351.5C 1377.5,1352.83 1377.5,1354.17 1377.5,1355.5C 1362.46,1355.78 1347.46,1355.45 1332.5,1354.5C 1332.5,1352.83 1332.5,1351.17 1332.5,1349.5C 1334.17,1349.5 1335.83,1349.5 1337.5,1349.5C 1337.5,1348.17 1337.5,1346.83 1337.5,1345.5C 1341.83,1345.5 1346.17,1345.5 1350.5,1345.5C 1350.5,1342.83 1350.5,1340.17 1350.5,1337.5C 1344.83,1337.5 1339.17,1337.5 1333.5,1337.5C 1333.5,1338.83 1333.5,1340.17 1333.5,1341.5C 1330.83,1341.5 1328.17,1341.5 1325.5,1341.5C 1325.5,1343.17 1325.5,1344.83 1325.5,1346.5C 1312.2,1345.57 1298.86,1345.24 1285.5,1345.5C 1285.5,1344.17 1285.5,1342.83 1285.5,1341.5C 1283.83,1341.5 1282.17,1341.5 1280.5,1341.5C 1280.5,1339.83 1280.5,1338.17 1280.5,1336.5C 1279.17,1336.5 1277.83,1336.5 1276.5,1336.5C 1276.5,1335.17 1276.5,1333.83 1276.5,1332.5C 1275.17,1332.5 1273.83,1332.5 1272.5,1332.5C 1272.5,1326.17 1272.5,1319.83 1272.5,1313.5C 1273.83,1313.5 1275.17,1313.5 1276.5,1313.5C 1276.5,1312.17 1276.5,1310.83 1276.5,1309.5C 1278.17,1309.5 1279.83,1309.5 1281.5,1309.5C 1281.5,1308.17 1281.5,1306.83 1281.5,1305.5C 1282.83,1305.5 1284.17,1305.5 1285.5,1305.5C 1285.5,1301.5 1285.5,1297.5 1285.5,1293.5C 1277.14,1293.67 1268.8,1293.33 1260.5,1292.5C 1260.5,1294.17 1260.5,1295.83 1260.5,1297.5C 1259.17,1297.5 1257.83,1297.5 1256.5,1297.5C 1255.67,1310.48 1255.34,1323.48 1255.5,1336.5C 1254.17,1336.5 1252.83,1336.5 1251.5,1336.5C 1251.5,1340.83 1251.5,1345.17 1251.5,1349.5C 1248.81,1349.66 1246.15,1349.5 1243.5,1349C 1241.89,1347.95 1241.23,1346.45 1241.5,1344.5C 1232.83,1344.5 1224.17,1344.5 1215.5,1344.5C 1215.5,1342.83 1215.5,1341.17 1215.5,1339.5C 1200.8,1339.78 1186.13,1339.45 1171.5,1338.5C 1171.5,1337.17 1171.5,1335.83 1171.5,1334.5C 1164.17,1334.5 1156.83,1334.5 1149.5,1334.5C 1149.5,1332.83 1149.5,1331.17 1149.5,1329.5C 1139.5,1329.5 1129.5,1329.5 1119.5,1329.5C 1119.5,1327.83 1119.5,1326.17 1119.5,1324.5C 1115.17,1324.5 1110.83,1324.5 1106.5,1324.5C 1106.5,1323.17 1106.5,1321.83 1106.5,1320.5C 1100.83,1320.5 1095.17,1320.5 1089.5,1320.5C 1089.5,1318.83 1089.5,1317.17 1089.5,1315.5C 1086.83,1315.5 1084.17,1315.5 1081.5,1315.5C 1081.5,1316.83 1081.5,1318.17 1081.5,1319.5C 1068.5,1319.5 1055.5,1319.5 1042.5,1319.5C 1042.5,1320.83 1042.5,1322.17 1042.5,1323.5C 1029.17,1323.17 1015.83,1322.83 1002.5,1322.5C 1002.5,1323.83 1002.5,1325.17 1002.5,1326.5C 985.151,1326.69 967.818,1326.36 950.5,1325.5C 950.5,1327.17 950.5,1328.83 950.5,1330.5C 940.183,1329.77 929.85,1329.44 919.5,1329.5C 919.5,1330.83 919.5,1332.17 919.5,1333.5C 915.167,1333.5 910.833,1333.5 906.5,1333.5C 906.5,1334.83 906.5,1336.17 906.5,1337.5C 885.83,1337.32 865.164,1336.99 844.5,1336.5C 844.635,1330.82 844.968,1325.15 845.5,1319.5C 839.839,1319.09 834.172,1318.76 828.5,1318.5C 828.5,1319.83 828.5,1321.17 828.5,1322.5C 831.5,1322.5 834.5,1322.5 837.5,1322.5C 837.5,1323.83 837.5,1325.17 837.5,1326.5C 838.833,1326.5 840.167,1326.5 841.5,1326.5C 841.5,1329.83 841.5,1333.17 841.5,1336.5C 840.167,1336.5 838.833,1336.5 837.5,1336.5C 837.5,1337.83 837.5,1339.17 837.5,1340.5C 819.834,1340.14 802.167,1339.81 784.5,1339.5C 784.5,1340.83 784.5,1342.17 784.5,1343.5C 765.832,1343.21 747.166,1342.88 728.5,1342.5C 728.5,1343.83 728.5,1345.17 728.5,1346.5C 719.167,1346.5 709.833,1346.5 700.5,1346.5C 700.5,1344.83 700.5,1343.17 700.5,1341.5C 697.833,1341.5 695.167,1341.5 692.5,1341.5C 692.5,1340.17 692.5,1338.83 692.5,1337.5C 688.481,1337.35 684.481,1337.02 680.5,1336.5C 680.5,1338.17 680.5,1339.83 680.5,1341.5C 677.14,1341.38 673.807,1341.05 670.5,1340.5C 670.5,1339.17 670.5,1337.83 670.5,1336.5C 669.5,1336.5 668.5,1336.5 667.5,1336.5C 667.5,1340.5 667.5,1344.5 667.5,1348.5C 668.833,1348.5 670.167,1348.5 671.5,1348.5C 671.5,1350.5 671.5,1352.5 671.5,1354.5C 662.874,1353.59 654.208,1353.26 645.5,1353.5C 645.5,1354.83 645.5,1356.17 645.5,1357.5C 641.154,1357.33 636.821,1357.5 632.5,1358C 631.663,1359.01 631.33,1360.18 631.5,1361.5C 627.167,1361.5 622.833,1361.5 618.5,1361.5C 618.5,1362.83 618.5,1364.17 618.5,1365.5C 615.833,1365.5 613.167,1365.5 610.5,1365.5C 610.67,1366.82 610.337,1367.99 609.5,1369C 603.843,1369.5 598.176,1369.67 592.5,1369.5C 592.5,1370.83 592.5,1372.17 592.5,1373.5C 591.167,1373.5 589.833,1373.5 588.5,1373.5C 588.5,1375.17 588.5,1376.83 588.5,1378.5C 585.518,1378.04 582.518,1377.7 579.5,1377.5C 579.5,1379.17 579.5,1380.83 579.5,1382.5C 576.5,1382.5 573.5,1382.5 570.5,1382.5C 570.5,1383.83 570.5,1385.17 570.5,1386.5C 567.5,1386.5 564.5,1386.5 561.5,1386.5C 561.5,1387.83 561.5,1389.17 561.5,1390.5C 557.167,1390.5 552.833,1390.5 548.5,1390.5C 548.5,1391.83 548.5,1393.17 548.5,1394.5C 544.167,1394.5 539.833,1394.5 535.5,1394.5C 535.5,1395.83 535.5,1397.17 535.5,1398.5C 529.833,1398.5 524.167,1398.5 518.5,1398.5C 518.67,1399.82 518.337,1400.99 517.5,1402C 513.179,1402.5 508.846,1402.67 504.5,1402.5C 504.5,1403.83 504.5,1405.17 504.5,1406.5C 501.833,1406.5 499.167,1406.5 496.5,1406.5C 496.5,1407.83 496.5,1409.17 496.5,1410.5C 492.167,1410.5 487.833,1410.5 483.5,1410.5C 483.67,1411.82 483.337,1412.99 482.5,1414C 478.179,1414.5 473.846,1414.67 469.5,1414.5C 469.5,1415.83 469.5,1417.17 469.5,1418.5C 468.167,1418.5 466.833,1418.5 465.5,1418.5C 465.5,1419.83 465.5,1421.17 465.5,1422.5C 463.042,1422.23 461.375,1423.23 460.5,1425.5C 454.872,1426.5 449.206,1426.83 443.5,1426.5C 443.5,1427.83 443.5,1429.17 443.5,1430.5C 436.167,1430.5 428.833,1430.5 421.5,1430.5C 421.5,1431.83 421.5,1433.17 421.5,1434.5C 412.8,1434.71 404.133,1434.38 395.5,1433.5C 395.5,1435.17 395.5,1436.83 395.5,1438.5C 393.833,1438.5 392.167,1438.5 390.5,1438.5C 390.5,1439.83 390.5,1441.17 390.5,1442.5C 389.167,1442.5 387.833,1442.5 386.5,1442.5C 386.5,1443.83 386.5,1445.17 386.5,1446.5C 385.167,1446.5 383.833,1446.5 382.5,1446.5C 382.5,1447.83 382.5,1449.17 382.5,1450.5C 380.833,1450.5 379.167,1450.5 377.5,1450.5C 377.5,1452.17 377.5,1453.83 377.5,1455.5C 374.751,1455.73 372.084,1455.39 369.5,1454.5C 368.548,1456.05 368.215,1457.71 368.5,1459.5C 367.167,1459.5 365.833,1459.5 364.5,1459.5C 364.5,1460.83 364.5,1462.17 364.5,1463.5C 363.167,1463.5 361.833,1463.5 360.5,1463.5C 360.67,1464.82 360.337,1465.99 359.5,1467C 352.508,1467.5 345.508,1467.67 338.5,1467.5C 338.5,1468.83 338.5,1470.17 338.5,1471.5C 332.5,1471.5 326.5,1471.5 320.5,1471.5C 320.5,1472.83 320.5,1474.17 320.5,1475.5C 317.5,1475.5 314.5,1475.5 311.5,1475.5C 311.5,1476.83 311.5,1478.17 311.5,1479.5C 308.833,1479.5 306.167,1479.5 303.5,1479.5C 303.5,1480.83 303.5,1482.17 303.5,1483.5C 301.833,1483.5 300.167,1483.5 298.5,1483.5C 298.5,1484.83 298.5,1486.17 298.5,1487.5C 295.5,1487.5 292.5,1487.5 289.5,1487.5C 289.5,1488.83 289.5,1490.17 289.5,1491.5C 288.167,1491.5 286.833,1491.5 285.5,1491.5C 285.5,1493.17 285.5,1494.83 285.5,1496.5C 281.918,1494.84 280.252,1496.17 280.5,1500.5C 279.167,1500.5 277.833,1500.5 276.5,1500.5C 276.5,1501.83 276.5,1503.17 276.5,1504.5C 264.498,1504.24 252.498,1503.9 240.5,1503.5C 240.829,1497.79 240.495,1492.13 239.5,1486.5C 238.833,1486.17 238.167,1485.83 237.5,1485.5C 236.516,1482.57 236.183,1479.57 236.5,1476.5C 238.167,1476.5 239.833,1476.5 241.5,1476.5C 241.5,1464.83 241.5,1453.17 241.5,1441.5C 244.833,1441.5 248.167,1441.5 251.5,1441.5C 251.5,1443.17 251.5,1444.83 251.5,1446.5C 256.833,1446.5 262.167,1446.5 267.5,1446.5C 267.384,1443.09 269.05,1441.76 272.5,1442.5C 272.34,1440.8 272.506,1439.13 273,1437.5C 274.356,1438.38 275.856,1438.71 277.5,1438.5C 277.5,1439.83 277.5,1441.17 277.5,1442.5C 278.833,1442.5 280.167,1442.5 281.5,1442.5C 281.5,1438.5 281.5,1434.5 281.5,1430.5C 279.833,1430.5 278.167,1430.5 276.5,1430.5C 277.302,1423.2 277.635,1415.86 277.5,1408.5C 275.712,1408.79 274.045,1408.45 272.5,1407.5C 272.833,1406.83 273.167,1406.17 273.5,1405.5C 271.955,1404.55 270.288,1404.21 268.5,1404.5C 268.5,1402.5 268.5,1400.5 268.5,1398.5C 270.167,1398.5 271.833,1398.5 273.5,1398.5C 273.5,1391.5 273.5,1384.5 273.5,1377.5C 279.5,1377.5 285.5,1377.5 291.5,1377.5C 291.5,1376.17 291.5,1374.83 291.5,1373.5C 294.5,1373.5 297.5,1373.5 300.5,1373.5C 300.5,1374.83 300.5,1376.17 300.5,1377.5C 302.92,1377.29 305.253,1377.63 307.5,1378.5C 308.48,1375.91 308.813,1373.25 308.5,1370.5C 304.119,1370.63 299.785,1370.29 295.5,1369.5C 295.5,1368.17 295.5,1366.83 295.5,1365.5C 290.167,1365.5 284.833,1365.5 279.5,1365.5C 279.5,1366.83 279.5,1368.17 279.5,1369.5C 276.167,1369.5 272.833,1369.5 269.5,1369.5C 269.5,1367.83 269.5,1366.17 269.5,1364.5C 265.167,1364.5 260.833,1364.5 256.5,1364.5C 256.5,1362.83 256.5,1361.17 256.5,1359.5C 252.5,1359.5 248.5,1359.5 244.5,1359.5C 244.167,1362.5 245.5,1363.83 248.5,1363.5C 248.5,1366.5 248.5,1369.5 248.5,1372.5C 247.167,1372.5 245.833,1372.5 244.5,1372.5C 243.982,1382.83 243.649,1393.16 243.5,1403.5C 241.833,1403.5 240.167,1403.5 238.5,1403.5C 238.5,1401.83 238.5,1400.17 238.5,1398.5C 236.801,1398.66 235.134,1398.49 233.5,1398C 234.489,1384.91 234.823,1371.75 234.5,1358.5C 236.167,1358.5 237.833,1358.5 239.5,1358.5C 239.5,1352.83 239.5,1347.17 239.5,1341.5C 240.833,1341.5 242.167,1341.5 243.5,1341.5C 243.5,1339.83 243.5,1338.17 243.5,1336.5C 245.167,1336.5 246.833,1336.5 248.5,1336.5C 248.5,1335.17 248.5,1333.83 248.5,1332.5C 249.833,1332.5 251.167,1332.5 252.5,1332.5C 252.5,1331.17 252.5,1329.83 252.5,1328.5C 254.167,1328.5 255.833,1328.5 257.5,1328.5C 257.5,1325.5 257.5,1322.5 257.5,1319.5C 258.833,1319.5 260.167,1319.5 261.5,1319.5C 261.5,1318.17 261.5,1316.83 261.5,1315.5C 263.167,1315.5 264.833,1315.5 266.5,1315.5C 266.5,1312.83 266.5,1310.17 266.5,1307.5C 267.833,1307.5 269.167,1307.5 270.5,1307.5C 270.5,1304.5 270.5,1301.5 270.5,1298.5C 272.167,1298.5 273.833,1298.5 275.5,1298.5C 275.5,1297.17 275.5,1295.83 275.5,1294.5C 276.833,1294.5 278.167,1294.5 279.5,1294.5C 279.5,1291.5 279.5,1288.5 279.5,1285.5C 281.167,1285.5 282.833,1285.5 284.5,1285.5C 284.5,1282.83 284.5,1280.17 284.5,1277.5C 285.833,1277.5 287.167,1277.5 288.5,1277.5C 288.5,1276.17 288.5,1274.83 288.5,1273.5C 287.167,1273.5 285.833,1273.5 284.5,1273.5C 284.5,1270.5 284.5,1267.5 284.5,1264.5C 283.167,1264.5 281.833,1264.5 280.5,1264.5C 280.5,1263.17 280.5,1261.83 280.5,1260.5C 279.167,1260.5 277.833,1260.5 276.5,1260.5C 276.5,1258.83 276.5,1257.17 276.5,1255.5C 274.833,1255.5 273.167,1255.5 271.5,1255.5C 271.508,1252.46 271.841,1249.46 272.5,1246.5C 273.833,1246.5 275.167,1246.5 276.5,1246.5C 276.5,1242.17 276.5,1237.83 276.5,1233.5C 278.144,1233.71 279.644,1233.38 281,1232.5C 281.497,1229.85 281.664,1227.19 281.5,1224.5C 282.833,1224.5 284.167,1224.5 285.5,1224.5C 285.5,1223.17 285.5,1221.83 285.5,1220.5C 287.167,1220.5 288.833,1220.5 290.5,1220.5C 290.5,1219.5 290.5,1218.5 290.5,1217.5C 288.833,1217.5 287.167,1217.5 285.5,1217.5C 285.5,1214.5 285.5,1211.5 285.5,1208.5C 284.167,1208.5 282.833,1208.5 281.5,1208.5C 281.5,1205.5 281.5,1202.5 281.5,1199.5C 280.167,1199.5 278.833,1199.5 277.5,1199.5C 277.5,1195.17 277.5,1190.83 277.5,1186.5C 276.167,1186.5 274.833,1186.5 273.5,1186.5C 273.5,1178.83 273.5,1171.17 273.5,1163.5C 275.167,1163.5 276.833,1163.5 278.5,1163.5C 278.5,1159.5 278.5,1155.5 278.5,1151.5C 273.167,1151.17 267.833,1150.83 262.5,1150.5C 262.5,1152.17 262.5,1153.83 262.5,1155.5C 258.44,1156.15 256.44,1154.49 256.5,1150.5C 255.167,1150.5 253.833,1150.5 252.5,1150.5C 252.5,1149.17 252.5,1147.83 252.5,1146.5C 249.482,1146.3 246.482,1145.96 243.5,1145.5C 243.5,1144.17 243.5,1142.83 243.5,1141.5C 240.833,1141.5 238.167,1141.5 235.5,1141.5C 235.5,1139.83 235.5,1138.17 235.5,1136.5C 234.167,1136.5 232.833,1136.5 231.5,1136.5C 231.5,1135.17 231.5,1133.83 231.5,1132.5C 227.563,1132.79 223.73,1132.46 220,1131.5C 219.506,1133.13 219.34,1134.8 219.5,1136.5C 216.167,1136.5 212.833,1136.5 209.5,1136.5C 209.5,1134.83 209.5,1133.17 209.5,1131.5C 206.5,1131.5 203.5,1131.5 200.5,1131.5C 200.5,1129.83 200.5,1128.17 200.5,1126.5C 199.167,1126.5 197.833,1126.5 196.5,1126.5C 196.5,1125.17 196.5,1123.83 196.5,1122.5C 195.167,1122.5 193.833,1122.5 192.5,1122.5C 192.5,1119.17 192.5,1115.83 192.5,1112.5C 193.833,1112.5 195.167,1112.5 196.5,1112.5C 196.5,1111.5 196.5,1110.5 196.5,1109.5C 195.167,1109.5 193.833,1109.5 192.5,1109.5C 192.418,1102.14 192.752,1094.81 193.5,1087.5C 191.833,1087.5 190.167,1087.5 188.5,1087.5C 188.467,1083.13 188.8,1078.8 189.5,1074.5C 187.833,1074.5 186.167,1074.5 184.5,1074.5C 184.5,1071.5 184.5,1068.5 184.5,1065.5C 183.167,1065.5 181.833,1065.5 180.5,1065.5C 180.5,1063.83 180.5,1062.17 180.5,1060.5C 179.167,1060.5 177.833,1060.5 176.5,1060.5C 176.5,1059.17 176.5,1057.83 176.5,1056.5C 175.167,1056.5 173.833,1056.5 172.5,1056.5C 172.5,1054.83 172.5,1053.17 172.5,1051.5C 169.5,1051.5 166.5,1051.5 163.5,1051.5C 163.5,1050.17 163.5,1048.83 163.5,1047.5C 159.818,1047.67 156.152,1047.5 152.5,1047C 150.893,1045.95 150.227,1044.45 150.5,1042.5C 142.149,1042.52 133.816,1042.19 125.5,1041.5C 125.5,1043.17 125.5,1044.83 125.5,1046.5C 115.198,1045.6 104.865,1045.27 94.5,1045.5C 94.5,1043.83 94.5,1042.17 94.5,1040.5C 91.5,1040.5 88.5,1040.5 85.5,1040.5C 85.5,1038.83 85.5,1037.17 85.5,1035.5C 82.8333,1035.5 80.1667,1035.5 77.5,1035.5C 77.5,1034.17 77.5,1032.83 77.5,1031.5C 73.1186,1031.63 68.7853,1031.29 64.5,1030.5C 64.5,1029.17 64.5,1027.83 64.5,1026.5C 61.5,1026.5 58.5,1026.5 55.5,1026.5C 55.5,1024.83 55.5,1023.17 55.5,1021.5C 54.1667,1021.5 52.8333,1021.5 51.5,1021.5C 51.5,1020.17 51.5,1018.83 51.5,1017.5C 48.8333,1017.5 46.1667,1017.5 43.5,1017.5C 43.5,1015.83 43.5,1014.17 43.5,1012.5C 41.8333,1012.5 40.1667,1012.5 38.5,1012.5C 38.33,1011.18 38.6634,1010.01 39.5,1009C 37.8659,1008.51 36.1992,1008.34 34.5,1008.5C 34.5,1006.83 34.5,1005.17 34.5,1003.5C 33.1667,1003.5 31.8333,1003.5 30.5,1003.5C 30.5,1002.17 30.5,1000.83 30.5,999.5C 27.5176,999.037 24.5176,998.704 21.5,998.5C 21.5,997.167 21.5,995.833 21.5,994.5C 20.1667,994.5 18.8333,994.5 17.5,994.5C 17.5,992.833 17.5,991.167 17.5,989.5C 13.1667,989.5 8.83333,989.5 4.5,989.5C 4.5,987.833 4.5,986.167 4.5,984.5C 6.16667,984.5 7.83333,984.5 9.5,984.5C 9.21478,982.712 9.54811,981.045 10.5,979.5C 11.1667,979.833 11.8333,980.167 12.5,980.5C 13.4519,978.955 13.7852,977.288 13.5,975.5C 15.1667,975.5 16.8333,975.5 18.5,975.5C 18.5,974.167 18.5,972.833 18.5,971.5C 19.8333,971.5 21.1667,971.5 22.5,971.5C 22.5,970.167 22.5,968.833 22.5,967.5C 24.1667,967.5 25.8333,967.5 27.5,967.5C 27.5,966.167 27.5,964.833 27.5,963.5C 30.1667,963.5 32.8333,963.5 35.5,963.5C 35.5,962.167 35.5,960.833 35.5,959.5C 37.1667,959.5 38.8333,959.5 40.5,959.5C 40.5,957.833 40.5,956.167 40.5,954.5C 43.5448,954.508 46.5448,954.841 49.5,955.5C 49.5,952.5 49.5,949.5 49.5,946.5C 50.8333,946.5 52.1667,946.5 53.5,946.5C 53.5,945.167 53.5,943.833 53.5,942.5C 55.1667,942.5 56.8333,942.5 58.5,942.5C 58.3398,940.801 58.5065,939.134 59,937.5C 60.0113,938.337 61.1779,938.67 62.5,938.5C 62.5,935.5 62.5,932.5 62.5,929.5C 64.1667,929.5 65.8333,929.5 67.5,929.5C 67.5,926.5 67.5,923.5 67.5,920.5C 68.8333,920.5 70.1667,920.5 71.5,920.5C 71.5,917.833 71.5,915.167 71.5,912.5C 73.1667,912.5 74.8333,912.5 76.5,912.5C 76.2667,902.135 76.6,891.802 77.5,881.5C 78.8221,881.33 79.9887,881.663 81,882.5C 82.0479,865.182 82.5479,847.848 82.5,830.5C 81.1667,830.5 79.8333,830.5 78.5,830.5C 78.5,829.167 78.5,827.833 78.5,826.5C 75.5131,826.002 72.5131,825.502 69.5,825C 70.6023,822.599 70.769,820.099 70,817.5C 68.6439,816.62 67.1439,816.286 65.5,816.5C 65.8333,813.833 66.1667,811.167 66.5,808.5C 64.8561,808.714 63.3561,808.38 62,807.5C 61.5026,804.854 61.3359,802.187 61.5,799.5C 60.1667,799.5 58.8333,799.5 57.5,799.5C 57.7228,792.16 58.0561,784.827 58.5,777.5C 57.1667,777.5 55.8333,777.5 54.5,777.5C 54.5,768.5 54.5,759.5 54.5,750.5C 53.1667,750.5 51.8333,750.5 50.5,750.5C 50.5,749.167 50.5,747.833 50.5,746.5C 49.1667,746.5 47.8333,746.5 46.5,746.5C 46.5,744.833 46.5,743.167 46.5,741.5C 45.1667,741.5 43.8333,741.5 42.5,741.5C 42.5,739.833 42.5,738.167 42.5,736.5C 45.1667,736.5 47.8333,736.5 50.5,736.5C 50.3838,733.09 52.0504,731.756 55.5,732.5C 55.5,731.167 55.5,729.833 55.5,728.5C 61.5,728.5 67.5,728.5 73.5,728.5C 73.5,730.167 73.5,731.833 73.5,733.5C 77.8333,733.5 82.1667,733.5 86.5,733.5C 86.5,734.833 86.5,736.167 86.5,737.5C 89.4824,737.963 92.4824,738.296 95.5,738.5C 95.67,739.822 95.3366,740.989 94.5,742C 98.5,742.667 102.5,742.667 106.5,742C 107.337,740.989 107.67,739.822 107.5,738.5C 108.833,738.5 110.167,738.5 111.5,738.5C 111.5,732.833 111.5,727.167 111.5,721.5C 113.167,721.5 114.833,721.5 116.5,721.5C 116.5,718.5 116.5,715.5 116.5,712.5C 117.833,712.5 119.167,712.5 120.5,712.5C 120.5,709.833 120.5,707.167 120.5,704.5C 122.167,704.5 123.833,704.5 125.5,704.5C 125.5,702.833 125.5,701.167 125.5,699.5C 126.833,699.5 128.167,699.5 129.5,699.5C 129.5,696.833 129.5,694.167 129.5,691.5C 131.167,691.5 132.833,691.5 134.5,691.5C 134.5,688.833 134.5,686.167 134.5,683.5C 133.167,683.5 131.833,683.5 130.5,683.5C 130.5,680.5 130.5,677.5 130.5,674.5C 129.167,674.5 127.833,674.5 126.5,674.5C 126.5,672.833 126.5,671.167 126.5,669.5C 127.833,669.5 129.167,669.5 130.5,669.5C 130.5,666.5 130.5,663.5 130.5,660.5C 132.167,660.5 133.833,660.5 135.5,660.5C 135.5,657.833 135.5,655.167 135.5,652.5C 136.833,652.5 138.167,652.5 139.5,652.5C 139.508,649.455 139.841,646.455 140.5,643.5C 141.833,643.5 143.167,643.5 144.5,643.5C 144.5,639.167 144.5,634.833 144.5,630.5C 149.167,630.833 153.833,631.167 158.5,631.5C 158.5,632.833 158.5,634.167 158.5,635.5C 161.167,635.5 163.833,635.5 166.5,635.5C 166.5,631.5 166.5,627.5 166.5,623.5C 165.167,623.5 163.833,623.5 162.5,623.5C 162.5,620.5 162.5,617.5 162.5,614.5C 161.167,614.5 159.833,614.5 158.5,614.5C 158.5,610.167 158.5,605.833 158.5,601.5C 157.167,601.5 155.833,601.5 154.5,601.5C 154.5,600.167 154.5,598.833 154.5,597.5C 151.5,597.167 150.167,598.5 150.5,601.5C 144.477,601.498 138.477,601.165 132.5,600.5C 132.5,599.167 132.5,597.833 132.5,596.5C 128.818,596.665 125.152,596.499 121.5,596C 119.311,595.323 118.978,594.156 120.5,592.5C 117.572,591.516 114.572,591.183 111.5,591.5C 111.5,589.833 111.5,588.167 111.5,586.5C 110.167,586.5 108.833,586.5 107.5,586.5C 107.5,585.167 107.5,583.833 107.5,582.5C 105.801,582.66 104.134,582.494 102.5,582C 103.559,564.242 104.225,546.409 104.5,528.5C 107.5,527.167 110.5,525.833 113.5,524.5C 113.5,523.167 113.5,521.833 113.5,520.5C 141.184,521.191 168.851,522.191 196.5,523.5C 196.5,524.833 196.5,526.167 196.5,527.5C 199.167,527.5 201.833,527.5 204.5,527.5C 204.5,529.167 204.5,530.833 204.5,532.5C 206.288,532.215 207.955,532.548 209.5,533.5C 209.167,534.167 208.833,534.833 208.5,535.5C 210.045,536.452 211.712,536.785 213.5,536.5C 213.5,538.167 213.5,539.833 213.5,541.5C 214.833,541.5 216.167,541.5 217.5,541.5C 217.5,544.5 217.5,547.5 217.5,550.5C 218.833,550.5 220.167,550.5 221.5,550.5C 221.5,551.833 221.5,553.167 221.5,554.5C 225.437,554.207 229.27,554.54 233,555.5C 233.494,553.866 233.66,552.199 233.5,550.5C 234.833,550.5 236.167,550.5 237.5,550.5C 237.5,548.167 237.5,545.833 237.5,543.5C 236.167,543.5 234.833,543.5 233.5,543.5C 234.259,527.178 234.592,510.845 234.5,494.5C 233.167,494.5 231.833,494.5 230.5,494.5C 230.813,491.753 230.48,489.086 229.5,486.5C 227.227,485.625 226.227,483.958 226.5,481.5C 225.167,481.5 223.833,481.5 222.5,481.5C 223.244,478.05 221.91,476.384 218.5,476.5C 218.5,475.167 218.5,473.833 218.5,472.5C 217.167,472.5 215.833,472.5 214.5,472.5C 214.5,471.167 214.5,469.833 214.5,468.5C 211.09,468.616 209.756,466.95 210.5,463.5C 206.167,463.5 201.833,463.5 197.5,463.5C 197.5,461.833 197.5,460.167 197.5,458.5C 190.825,458.666 184.158,458.5 177.5,458C 175.893,456.951 175.227,455.451 175.5,453.5C 174.167,453.5 172.833,453.5 171.5,453.5C 171.986,445.842 172.32,438.175 172.5,430.5C 173.833,430.5 175.167,430.5 176.5,430.5C 176.894,423.504 177.227,416.504 177.5,409.5C 178.833,409.5 180.167,409.5 181.5,409.5C 181.5,406.5 181.5,403.5 181.5,400.5C 184.5,400.5 187.5,400.5 190.5,400.5C 190.5,399.167 190.5,397.833 190.5,396.5C 193.95,397.244 195.616,395.91 195.5,392.5C 198.167,392.5 200.833,392.5 203.5,392.5C 203.5,391.167 203.5,389.833 203.5,388.5C 210.833,388.5 218.167,388.5 225.5,388.5C 225.5,387.5 225.5,386.5 225.5,385.5C 224.167,385.5 222.833,385.5 221.5,385.5C 221.5,383.833 221.5,382.167 221.5,380.5C 218.5,380.5 215.5,380.5 212.5,380.5C 212.5,379.167 212.5,377.833 212.5,376.5C 211.167,376.5 209.833,376.5 208.5,376.5C 208.5,374.833 208.5,373.167 208.5,371.5C 205.833,371.5 203.167,371.5 200.5,371.5C 200.5,370.167 200.5,368.833 200.5,367.5C 197.545,366.841 194.545,366.508 191.5,366.5C 191.5,365.167 191.5,363.833 191.5,362.5C 188.833,362.5 186.167,362.5 183.5,362.5C 183.5,356.167 183.5,349.833 183.5,343.5C 185.167,343.5 186.833,343.5 188.5,343.5C 188.5,339.167 188.5,334.833 188.5,330.5C 189.833,330.5 191.167,330.5 192.5,330.5C 192.241,326.76 192.574,323.094 193.5,319.5C 189.217,318.508 184.884,318.174 180.5,318.5C 180.5,316.833 180.5,315.167 180.5,313.5C 173.167,313.5 165.833,313.5 158.5,313.5C 158.286,311.856 158.62,310.356 159.5,309C 156.518,308.502 153.518,308.335 150.5,308.5C 150.5,307.167 150.5,305.833 150.5,304.5C 149.167,304.5 147.833,304.5 146.5,304.5C 146.5,302.833 146.5,301.167 146.5,299.5C 145.167,299.5 143.833,299.5 142.5,299.5C 142.5,296.5 142.5,293.5 142.5,290.5C 141.167,290.5 139.833,290.5 138.5,290.5C 138.5,289.167 138.5,287.833 138.5,286.5C 137.167,286.5 135.833,286.5 134.5,286.5C 134.741,268.498 135.075,250.498 135.5,232.5C 137.167,232.5 138.833,232.5 140.5,232.5C 140.5,225.167 140.5,217.833 140.5,210.5C 142.144,210.286 143.644,210.62 145,211.5C 145.499,207.179 145.666,202.846 145.5,198.5C 144.167,198.5 142.833,198.5 141.5,198.5C 141.5,197.167 141.5,195.833 141.5,194.5C 140.167,194.5 138.833,194.5 137.5,194.5C 137.5,191.5 137.5,188.5 137.5,185.5C 136.167,185.5 134.833,185.5 133.5,185.5C 133.5,180.833 133.5,176.167 133.5,171.5C 134.833,171.5 136.167,171.5 137.5,171.5C 137.963,168.518 138.296,165.518 138.5,162.5C 139.833,162.5 141.167,162.5 142.5,162.5C 142.5,161.167 142.5,159.833 142.5,158.5C 145.5,157.167 148.5,155.833 151.5,154.5C 151.5,153.167 151.5,151.833 151.5,150.5C 155.833,150.5 160.167,150.5 164.5,150.5C 164.5,149.167 164.5,147.833 164.5,146.5C 165.833,146.5 167.167,146.5 168.5,146.5C 168.5,145.167 168.5,143.833 168.5,142.5C 170.167,142.5 171.833,142.5 173.5,142.5C 173.5,139.5 173.5,136.5 173.5,133.5C 174.833,133.5 176.167,133.5 177.5,133.5C 177.5,132.167 177.5,130.833 177.5,129.5C 183.5,129.5 189.5,129.5 195.5,129.5C 195.5,128.167 195.5,126.833 195.5,125.5C 198.167,125.5 200.833,125.5 203.5,125.5C 203.5,124.167 203.5,122.833 203.5,121.5C 206.5,121.5 209.5,121.5 212.5,121.5C 212.5,120.167 212.5,118.833 212.5,117.5C 213.833,117.5 215.167,117.5 216.5,117.5C 216.384,114.09 218.05,112.756 221.5,113.5C 221.215,111.712 221.548,110.045 222.5,108.5C 223.167,108.833 223.833,109.167 224.5,109.5C 225.489,106.562 226.156,103.562 226.5,100.5C 227.833,100.5 229.167,100.5 230.5,100.5C 230.5,96.1667 230.5,91.8333 230.5,87.5C 232.167,87.5 233.833,87.5 235.5,87.5C 235.5,84.5 235.5,81.5 235.5,78.5C 236.833,78.5 238.167,78.5 239.5,78.5C 239.5,77.1667 239.5,75.8333 239.5,74.5C 241.167,74.5 242.833,74.5 244.5,74.5C 244.5,73.1667 244.5,71.8333 244.5,70.5C 247.167,70.5 249.833,70.5 252.5,70.5C 252.5,69.1667 252.5,67.8333 252.5,66.5C 260.196,66.3536 267.862,66.6869 275.5,67.5C 275.5,68.8333 275.5,70.1667 275.5,71.5C 280.844,71.334 286.177,71.5006 291.5,72C 292.38,73.3561 292.714,74.8561 292.5,76.5C 296.833,76.5 301.167,76.5 305.5,76.5C 305.5,78.1667 305.5,79.8333 305.5,81.5C 308.167,81.5 310.833,81.5 313.5,81.5C 313.238,82.9778 313.571,84.3112 314.5,85.5C 317.177,86.0742 319.843,86.7408 322.5,87.5C 322.167,88.1667 321.833,88.8333 321.5,89.5C 323.045,90.4519 324.712,90.7852 326.5,90.5C 326.777,93.4475 326.444,96.2809 325.5,99C 328.482,99.498 331.482,99.6646 334.5,99.5C 334.5,101.167 334.5,102.833 334.5,104.5C 335.833,104.5 337.167,104.5 338.5,104.5C 338.5,105.833 338.5,107.167 338.5,108.5C 339.833,108.5 341.167,108.5 342.5,108.5C 342.5,110.167 342.5,111.833 342.5,113.5C 346.833,113.5 351.167,113.5 355.5,113.5C 355.227,115.451 355.893,116.951 357.5,118C 362.489,118.499 367.489,118.666 372.5,118.5C 372.5,119.833 372.5,121.167 372.5,122.5C 376.785,123.295 381.119,123.628 385.5,123.5C 385.5,124.833 385.5,126.167 385.5,127.5C 386.833,127.5 388.167,127.5 389.5,127.5C 389.5,129.167 389.5,130.833 389.5,132.5C 390.833,132.5 392.167,132.5 393.5,132.5C 393.5,133.833 393.5,135.167 393.5,136.5C 394.833,136.5 396.167,136.5 397.5,136.5C 397.5,138.167 397.5,139.833 397.5,141.5C 401.5,141.5 405.5,141.5 409.5,141.5C 409.5,140.167 409.5,138.833 409.5,137.5C 410.833,137.5 412.167,137.5 413.5,137.5C 412.737,133.591 414.07,132.258 417.5,133.5C 418.48,130.914 418.813,128.247 418.5,125.5C 417.167,125.5 415.833,125.5 414.5,125.5C 414.5,123.833 414.5,122.167 414.5,120.5C 413.167,120.5 411.833,120.5 410.5,120.5C 410.5,114.5 410.5,108.5 410.5,102.5C 412.144,102.714 413.644,102.38 415,101.5C 415.497,98.854 415.664,96.1873 415.5,93.5C 438.485,94.5884 461.485,95.255 484.5,95.5C 484.5,94.1667 484.5,92.8333 484.5,91.5C 485.833,91.5 487.167,91.5 488.5,91.5C 488.5,87.1667 488.5,82.8333 488.5,78.5C 490.167,78.5 491.833,78.5 493.5,78.5C 493.5,77.5 493.5,76.5 493.5,75.5C 491.833,75.5 490.167,75.5 488.5,75.5C 488.5,73.8333 488.5,72.1667 488.5,70.5C 487.167,70.5 485.833,70.5 484.5,70.5C 484.5,69.1667 484.5,67.8333 484.5,66.5C 483.167,66.5 481.833,66.5 480.5,66.5C 481.123,54.5099 481.456,42.5099 481.5,30.5C 483.167,30.5 484.833,30.5 486.5,30.5C 486.5,27.5 486.5,24.5 486.5,21.5C 491.232,21.3776 495.898,21.8776 500.5,23C 499.565,25.3806 499.232,27.8806 499.5,30.5C 503.04,30.1936 504.374,31.5269 503.5,34.5C 505.045,35.4519 506.712,35.7852 508.5,35.5C 508.5,36.8333 508.5,38.1667 508.5,39.5C 511.206,39.5751 513.873,39.9084 516.5,40.5C 516.5,41.8333 516.5,43.1667 516.5,44.5C 522.167,44.5 527.833,44.5 533.5,44.5C 533.5,46.1667 533.5,47.8333 533.5,49.5C 536.167,49.5 538.833,49.5 541.5,49.5C 541.5,48.1667 541.5,46.8333 541.5,45.5C 542.833,45.5 544.167,45.5 545.5,45.5C 545.5,44.1667 545.5,42.8333 545.5,41.5C 547.167,41.5 548.833,41.5 550.5,41.5C 550.5,40.1667 550.5,38.8333 550.5,37.5C 548.833,37.5 547.167,37.5 545.5,37.5C 545.5,36.1667 545.5,34.8333 545.5,33.5C 544.167,33.5 542.833,33.5 541.5,33.5C 541.653,27.155 541.986,20.8217 542.5,14.5C 548.152,15.0318 553.819,15.3651 559.5,15.5C 559.215,13.712 559.548,12.0453 560.5,10.5C 565.77,11.4512 571.103,11.7846 576.5,11.5C 576.5,10.1667 576.5,8.83333 576.5,7.5 Z M 1125.5,1285.5 C 1129.4,1286.43 1133.4,1286.76 1137.5,1286.5C 1137.5,1287.83 1137.5,1289.17 1137.5,1290.5C 1138.83,1290.5 1140.17,1290.5 1141.5,1290.5C 1141.5,1293.5 1141.5,1296.5 1141.5,1299.5C 1143.29,1299.21 1144.95,1299.55 1146.5,1300.5C 1145.57,1304.09 1145.24,1307.76 1145.5,1311.5C 1143.17,1311.5 1140.83,1311.5 1138.5,1311.5C 1138.5,1310.17 1138.5,1308.83 1138.5,1307.5C 1139.83,1307.5 1141.17,1307.5 1142.5,1307.5C 1142.5,1305.83 1142.5,1304.17 1142.5,1302.5C 1141.17,1302.5 1139.83,1302.5 1138.5,1302.5C 1138.5,1301.17 1138.5,1299.83 1138.5,1298.5C 1136.8,1298.66 1135.13,1298.49 1133.5,1298C 1134.38,1296.64 1134.71,1295.14 1134.5,1293.5C 1132.83,1293.5 1131.17,1293.5 1129.5,1293.5C 1129.5,1292.17 1129.5,1290.83 1129.5,1289.5C 1128.17,1289.5 1126.83,1289.5 1125.5,1289.5C 1125.5,1288.17 1125.5,1286.83 1125.5,1285.5 Z M 1090.5,1298.5 C 1095.83,1298.5 1101.17,1298.5 1106.5,1298.5C 1106.5,1300.17 1106.5,1301.83 1106.5,1303.5C 1110.83,1303.5 1115.17,1303.5 1119.5,1303.5C 1119.5,1304.83 1119.5,1306.17 1119.5,1307.5C 1122.5,1307.5 1125.5,1307.5 1128.5,1307.5C 1128.5,1308.83 1128.5,1310.17 1128.5,1311.5C 1112.52,1310.58 1096.52,1310.24 1080.5,1310.5C 1080.5,1311.83 1080.5,1313.17 1080.5,1314.5C 1079.5,1314.5 1078.5,1314.5 1077.5,1314.5C 1077.5,1313.17 1077.5,1311.83 1077.5,1310.5C 1075.83,1310.5 1074.17,1310.5 1072.5,1310.5C 1072.5,1308.83 1072.5,1307.17 1072.5,1305.5C 1063.5,1305.5 1054.5,1305.5 1045.5,1305.5C 1045.5,1306.83 1045.5,1308.17 1045.5,1309.5C 1039.83,1309.5 1034.17,1309.5 1028.5,1309.5C 1028.5,1310.83 1028.5,1312.17 1028.5,1313.5C 1021.17,1313.5 1013.83,1313.5 1006.5,1313.5C 1006.5,1314.83 1006.5,1316.17 1006.5,1317.5C 997.822,1317.42 989.155,1317.08 980.5,1316.5C 980.5,1318.17 980.5,1319.83 980.5,1321.5C 977.833,1321.5 975.167,1321.5 972.5,1321.5C 972.5,1319.83 972.5,1318.17 972.5,1316.5C 963.5,1316.5 954.5,1316.5 945.5,1316.5C 945.5,1317.83 945.5,1319.17 945.5,1320.5C 933.83,1320.27 922.163,1319.94 910.5,1319.5C 910.5,1320.83 910.5,1322.17 910.5,1323.5C 907.5,1323.5 904.5,1323.5 901.5,1323.5C 901.5,1325.17 901.5,1326.83 901.5,1328.5C 897.519,1327.98 893.519,1327.65 889.5,1327.5C 889.5,1326.5 889.5,1325.5 889.5,1324.5C 890.833,1324.5 892.167,1324.5 893.5,1324.5C 893.5,1323.17 893.5,1321.83 893.5,1320.5C 896.5,1320.5 899.5,1320.5 902.5,1320.5C 902.5,1319.17 902.5,1317.83 902.5,1316.5C 914.167,1316.5 925.833,1316.5 937.5,1316.5C 937.5,1315.17 937.5,1313.83 937.5,1312.5C 944.833,1312.5 952.167,1312.5 959.5,1312.5C 959.5,1311.17 959.5,1309.83 959.5,1308.5C 962.5,1308.5 965.5,1308.5 968.5,1308.5C 968.5,1307.17 968.5,1305.83 968.5,1304.5C 969.833,1304.5 971.167,1304.5 972.5,1304.5C 972.5,1303.17 972.5,1301.83 972.5,1300.5C 1011.83,1301.17 1051.17,1301.83 1090.5,1302.5C 1090.5,1301.17 1090.5,1299.83 1090.5,1298.5 Z M 767.5,1312.5 C 771.466,1313.16 775.466,1313.5 779.5,1313.5C 779.5,1314.83 779.5,1316.17 779.5,1317.5C 789.832,1317.87 800.165,1318.21 810.5,1318.5C 810.5,1319.5 810.5,1320.5 810.5,1321.5C 803.167,1321.5 795.833,1321.5 788.5,1321.5C 788.5,1324.17 788.5,1326.83 788.5,1329.5C 786.833,1329.5 785.167,1329.5 783.5,1329.5C 783.5,1331.17 783.5,1332.83 783.5,1334.5C 782.167,1334.5 780.833,1334.5 779.5,1334.5C 779.5,1335.83 779.5,1337.17 779.5,1338.5C 772.471,1338.62 765.471,1338.29 758.5,1337.5C 758.5,1336.17 758.5,1334.83 758.5,1333.5C 755.833,1333.5 753.167,1333.5 750.5,1333.5C 750.5,1330.83 750.5,1328.17 750.5,1325.5C 751.5,1325.5 752.5,1325.5 753.5,1325.5C 753.5,1326.83 753.5,1328.17 753.5,1329.5C 758.13,1330.23 762.797,1330.56 767.5,1330.5C 767.215,1328.71 767.548,1327.05 768.5,1325.5C 771.084,1326.39 773.751,1326.73 776.5,1326.5C 776.5,1324.5 776.5,1322.5 776.5,1320.5C 773.5,1320.5 770.5,1320.5 767.5,1320.5C 767.5,1317.83 767.5,1315.17 767.5,1312.5 Z M 811.5,1322.5 C 816.511,1322.33 821.511,1322.5 826.5,1323C 827.337,1324.01 827.67,1325.18 827.5,1326.5C 822.167,1326.5 816.833,1326.5 811.5,1326.5C 811.5,1325.17 811.5,1323.83 811.5,1322.5 Z"/></g>
<g><path style="opacity:1" fill="#fefffe" d="M 1280.5,1348.5 C 1285.17,1348.5 1289.83,1348.5 1294.5,1348.5C 1294.5,1350.5 1294.5,1352.5 1294.5,1354.5C 1289.83,1354.5 1285.17,1354.5 1280.5,1354.5C 1280.5,1352.5 1280.5,1350.5 1280.5,1348.5 Z"/></g>
</svg>
