<?xml version="1.0" encoding="UTF-8"?>
<!DOCTYPE svg PUBLIC "-//W3C//DTD SVG 1.1//EN" "http://www.w3.org/Graphics/SVG/1.1/DTD/svg11.dtd">
<svg xmlns="http://www.w3.org/2000/svg" version="1.1" width="1452px" height="1533px" style="shape-rendering:geometricPrecision; text-rendering:geometricPrecision; image-rendering:optimizeQuality; fill-rule:evenodd; clip-rule:evenodd" xmlns:xlink="http://www.w3.org/1999/xlink">
<g><path style="opacity:1" fill="#fefffe" d="M 472.5,5.5 C 492.174,5.97253 511.841,6.6392 531.5,7.5C 531.5,9.83333 531.5,12.1667 531.5,14.5C 544.167,14.8333 556.833,15.1667 569.5,15.5C 569.5,13.5 569.5,11.5 569.5,9.5C 600.499,10.5277 631.499,11.5277 662.5,12.5C 662.5,14.8333 662.5,17.1667 662.5,19.5C 666.571,19.2338 670.571,19.5672 674.5,20.5C 675.466,22.396 675.799,24.396 675.5,26.5C 677.5,26.5 679.5,26.5 681.5,26.5C 681.5,28.8333 681.5,31.1667 681.5,33.5C 683.5,33.5 685.5,33.5 687.5,33.5C 687.5,35.8333 687.5,38.1667 687.5,40.5C 691.833,40.5 696.167,40.5 700.5,40.5C 700.5,42.8333 700.5,45.1667 700.5,47.5C 702.833,47.5 705.167,47.5 707.5,47.5C 707.5,49.8333 707.5,52.1667 707.5,54.5C 709.5,54.5 711.5,54.5 713.5,54.5C 713.5,56.8333 713.5,59.1667 713.5,61.5C 715.5,61.5 717.5,61.5 719.5,61.5C 719.5,63.8333 719.5,66.1667 719.5,68.5C 721.833,68.5 724.167,68.5 726.5,68.5C 725.8,72.7978 725.467,77.1311 725.5,81.5C 727.806,81.9926 730.139,82.3259 732.5,82.5C 731.545,100.147 730.878,117.814 730.5,135.5C 732.5,135.5 734.5,135.5 736.5,135.5C 736.5,142.167 736.5,148.833 736.5,155.5C 738.5,155.5 740.5,155.5 742.5,155.5C 742.5,160.167 742.5,164.833 742.5,169.5C 744.5,169.5 746.5,169.5 748.5,169.5C 748.755,183.196 748.255,196.863 747,210.5C 744.959,209.577 742.792,209.244 740.5,209.5C 740.81,220.219 740.477,230.885 739.5,241.5C 741.743,242.474 744.076,242.808 746.5,242.5C 746.5,246.833 746.5,251.167 746.5,255.5C 748.5,255.5 750.5,255.5 752.5,255.5C 752.5,260.167 752.5,264.833 752.5,269.5C 754.5,269.5 756.5,269.5 758.5,269.5C 758.5,273.833 758.5,278.167 758.5,282.5C 760.5,282.5 762.5,282.5 764.5,282.5C 764.5,289.5 764.5,296.5 764.5,303.5C 762.167,303.5 759.833,303.5 757.5,303.5C 757.011,321.163 756.678,338.83 756.5,356.5C 754.167,356.5 751.833,356.5 749.5,356.5C 749.609,363.196 749.276,369.863 748.5,376.5C 746.5,376.5 744.5,376.5 742.5,376.5C 742.533,380.869 742.2,385.202 741.5,389.5C 737.131,389.533 732.798,389.2 728.5,388.5C 728.666,392.846 728.499,397.179 728,401.5C 725.973,401.986 723.807,401.986 721.5,401.5C 721.5,405.833 721.5,410.167 721.5,414.5C 726.495,414.875 728.495,412.542 727.5,407.5C 729.467,407.261 731.301,407.594 733,408.5C 733.497,406.19 733.663,403.857 733.5,401.5C 749.203,401.741 764.869,402.408 780.5,403.5C 780.5,405.5 780.5,407.5 780.5,409.5C 784.842,409.739 789.176,410.073 793.5,410.5C 793.5,412.5 793.5,414.5 793.5,416.5C 797.785,417.295 802.119,417.628 806.5,417.5C 806.5,419.5 806.5,421.5 806.5,423.5C 808.96,423.699 811.293,424.365 813.5,425.5C 811.641,430.926 813.641,432.926 819.5,431.5C 819.5,435.833 819.5,440.167 819.5,444.5C 821.5,444.5 823.5,444.5 825.5,444.5C 825.5,446.833 825.5,449.167 825.5,451.5C 827.5,451.5 829.5,451.5 831.5,451.5C 831.5,453.833 831.5,456.167 831.5,458.5C 833.833,458.5 836.167,458.5 838.5,458.5C 838.5,460.833 838.5,463.167 838.5,465.5C 840.5,465.5 842.5,465.5 844.5,465.5C 843.582,470.495 845.582,472.828 850.5,472.5C 850.5,476.833 850.5,481.167 850.5,485.5C 854.5,485.5 858.5,485.5 862.5,485.5C 862.5,483.5 862.5,481.5 862.5,479.5C 866.846,479.666 871.179,479.499 875.5,479C 876.406,477.301 876.739,475.467 876.5,473.5C 882.842,473.666 889.175,473.5 895.5,473C 896.406,471.301 896.739,469.467 896.5,467.5C 911.832,467.889 927.165,468.222 942.5,468.5C 942.5,462.167 942.5,455.833 942.5,449.5C 944.833,449.5 947.167,449.5 949.5,449.5C 949.173,444.786 949.507,440.12 950.5,435.5C 952.409,436.348 954.409,436.682 956.5,436.5C 956.5,431.833 956.5,427.167 956.5,422.5C 958.591,422.318 960.591,422.652 962.5,423.5C 963.493,418.88 963.827,414.214 963.5,409.5C 969.062,411.559 971.395,409.559 970.5,403.5C 972.5,403.5 974.5,403.5 976.5,403.5C 976.5,401.5 976.5,399.5 976.5,397.5C 978.833,397.5 981.167,397.5 983.5,397.5C 983.5,393.167 983.5,388.833 983.5,384.5C 985.833,384.5 988.167,384.5 990.5,384.5C 990.21,378.439 990.543,372.439 991.5,366.5C 989.257,365.526 986.924,365.192 984.5,365.5C 984.5,362.833 984.5,360.167 984.5,357.5C 986.833,357.5 989.167,357.5 991.5,357.5C 991.255,348.792 991.589,340.126 992.5,331.5C 994.5,331.5 996.5,331.5 998.5,331.5C 998.5,329.167 998.5,326.833 998.5,324.5C 1000.83,324.5 1003.17,324.5 1005.5,324.5C 1005.5,322.5 1005.5,320.5 1005.5,318.5C 1007.83,318.5 1010.17,318.5 1012.5,318.5C 1012.34,316.143 1012.5,313.81 1013,311.5C 1015.04,312.423 1017.21,312.756 1019.5,312.5C 1019.5,314.5 1019.5,316.5 1019.5,318.5C 1030.14,319.237 1040.81,319.737 1051.5,320C 1052.51,328.769 1052.51,337.602 1051.5,346.5C 1053.83,346.5 1056.17,346.5 1058.5,346.5C 1058.5,348.833 1058.5,351.167 1058.5,353.5C 1060.5,353.5 1062.5,353.5 1064.5,353.5C 1064.5,355.833 1064.5,358.167 1064.5,360.5C 1068.83,360.5 1073.17,360.5 1077.5,360.5C 1077.5,362.833 1077.5,365.167 1077.5,367.5C 1079.5,367.5 1081.5,367.5 1083.5,367.5C 1083.5,369.833 1083.5,372.167 1083.5,374.5C 1085.83,374.5 1088.17,374.5 1090.5,374.5C 1090.5,376.833 1090.5,379.167 1090.5,381.5C 1092.5,381.5 1094.5,381.5 1096.5,381.5C 1096.47,394.843 1096.14,408.176 1095.5,421.5C 1097.83,421.5 1100.17,421.5 1102.5,421.5C 1101.65,432.477 1101.32,443.477 1101.5,454.5C 1103.5,454.5 1105.5,454.5 1107.5,454.5C 1107.5,459.167 1107.5,463.833 1107.5,468.5C 1109.5,468.5 1111.5,468.5 1113.5,468.5C 1113.5,472.833 1113.5,477.167 1113.5,481.5C 1115.83,481.5 1118.17,481.5 1120.5,481.5C 1120,486.152 1119.67,490.819 1119.5,495.5C 1123.83,495.5 1128.17,495.5 1132.5,495.5C 1132.5,497.833 1132.5,500.167 1132.5,502.5C 1134.83,502.5 1137.17,502.5 1139.5,502.5C 1138.43,529.154 1137.76,555.82 1137.5,582.5C 1135.17,582.5 1132.83,582.5 1130.5,582.5C 1129.95,598.161 1129.62,613.828 1129.5,629.5C 1127.21,629.756 1125.04,629.423 1123,628.5C 1122.5,633.155 1122.33,637.821 1122.5,642.5C 1120.41,642.682 1118.41,642.348 1116.5,641.5C 1115.51,646.12 1115.17,650.786 1115.5,655.5C 1113.21,655.756 1111.04,655.423 1109,654.5C 1108.5,659.155 1108.33,663.821 1108.5,668.5C 1106.17,668.5 1103.83,668.5 1101.5,668.5C 1101.5,670.5 1101.5,672.5 1101.5,674.5C 1099.5,674.5 1097.5,674.5 1095.5,674.5C 1095.48,676.927 1094.98,679.26 1094,681.5C 1092.3,680.594 1090.47,680.261 1088.5,680.5C 1088.8,685.099 1088.47,689.599 1087.5,694C 1083.25,693.633 1078.92,693.467 1074.5,693.5C 1074.5,695.833 1074.5,698.167 1074.5,700.5C 1072.5,700.5 1070.5,700.5 1068.5,700.5C 1068.17,702.5 1067.83,704.5 1067.5,706.5C 1063.17,706.5 1058.83,706.5 1054.5,706.5C 1054.5,708.5 1054.5,710.5 1054.5,712.5C 1048.5,711.167 1046.17,713.5 1047.5,719.5C 1045.5,719.5 1043.5,719.5 1041.5,719.5C 1041.5,721.5 1041.5,723.5 1041.5,725.5C 1039.17,725.5 1036.83,725.5 1034.5,725.5C 1034.81,727.924 1034.47,730.257 1033.5,732.5C 1031.59,731.652 1029.59,731.318 1027.5,731.5C 1027.5,733.833 1027.5,736.167 1027.5,738.5C 1025.17,738.5 1022.83,738.5 1020.5,738.5C 1020.5,740.167 1020.5,741.833 1020.5,743.5C 1027.14,744.276 1033.8,744.609 1040.5,744.5C 1040.5,746.833 1040.5,749.167 1040.5,751.5C 1042.5,751.5 1044.5,751.5 1046.5,751.5C 1046.5,753.833 1046.5,756.167 1046.5,758.5C 1050.83,758.5 1055.17,758.5 1059.5,758.5C 1059.5,760.833 1059.5,763.167 1059.5,765.5C 1061.83,765.5 1064.17,765.5 1066.5,765.5C 1065.09,770.931 1067.09,773.265 1072.5,772.5C 1072.5,774.5 1072.5,776.5 1072.5,778.5C 1078.16,777.499 1080.5,779.833 1079.5,785.5C 1083.87,785.467 1088.2,785.8 1092.5,786.5C 1092.17,788.5 1091.83,790.5 1091.5,792.5C 1093.83,792.5 1096.17,792.5 1098.5,792.5C 1098.5,794.833 1098.5,797.167 1098.5,799.5C 1102.57,799.234 1106.57,799.567 1110.5,800.5C 1111.47,802.396 1111.8,804.396 1111.5,806.5C 1118.16,806.954 1124.83,807.287 1131.5,807.5C 1131.01,809.806 1130.67,812.139 1130.5,814.5C 1135.17,814.5 1139.83,814.5 1144.5,814.5C 1144.01,816.806 1143.67,819.139 1143.5,821.5C 1148.17,821.5 1152.83,821.5 1157.5,821.5C 1157.01,823.806 1156.67,826.139 1156.5,828.5C 1171.84,828.727 1187.17,829.06 1202.5,829.5C 1202.5,827.5 1202.5,825.5 1202.5,823.5C 1215.85,823.453 1229.18,823.786 1242.5,824.5C 1242.5,826.833 1242.5,829.167 1242.5,831.5C 1249.17,831.5 1255.83,831.5 1262.5,831.5C 1262.5,833.833 1262.5,836.167 1262.5,838.5C 1266.83,838.5 1271.17,838.5 1275.5,838.5C 1275.5,840.833 1275.5,843.167 1275.5,845.5C 1277.5,845.5 1279.5,845.5 1281.5,845.5C 1281.5,847.833 1281.5,850.167 1281.5,852.5C 1283.83,852.5 1286.17,852.5 1288.5,852.5C 1288.5,854.833 1288.5,857.167 1288.5,859.5C 1290.5,859.5 1292.5,859.5 1294.5,859.5C 1294.5,863.833 1294.5,868.167 1294.5,872.5C 1296.5,872.5 1298.5,872.5 1300.5,872.5C 1300.5,879.167 1300.5,885.833 1300.5,892.5C 1302.5,892.5 1304.5,892.5 1306.5,892.5C 1306.17,903.52 1306.5,914.52 1307.5,925.5C 1309.07,926.309 1310.74,926.643 1312.5,926.5C 1312.5,928.833 1312.5,931.167 1312.5,933.5C 1310.17,933.5 1307.83,933.5 1305.5,933.5C 1305.5,937.5 1305.5,941.5 1305.5,945.5C 1311.5,944.167 1313.83,946.5 1312.5,952.5C 1314.5,952.5 1316.5,952.5 1318.5,952.5C 1318.5,954.833 1318.5,957.167 1318.5,959.5C 1322.83,959.5 1327.17,959.5 1331.5,959.5C 1331.5,961.833 1331.5,964.167 1331.5,966.5C 1335.5,966.5 1339.5,966.5 1343.5,966.5C 1343.5,964.5 1343.5,962.5 1343.5,960.5C 1350.5,960.5 1357.5,960.5 1364.5,960.5C 1364.5,962.833 1364.5,965.167 1364.5,967.5C 1366.83,967.5 1369.17,967.5 1371.5,967.5C 1371.01,969.806 1370.67,972.139 1370.5,974.5C 1375.17,974.5 1379.83,974.5 1384.5,974.5C 1384.5,976.833 1384.5,979.167 1384.5,981.5C 1388.83,981.5 1393.17,981.5 1397.5,981.5C 1397.5,983.833 1397.5,986.167 1397.5,988.5C 1399.5,988.5 1401.5,988.5 1403.5,988.5C 1403.5,990.833 1403.5,993.167 1403.5,995.5C 1405.5,995.5 1407.5,995.5 1409.5,995.5C 1409.5,993.167 1409.5,990.833 1409.5,988.5C 1418.48,989.308 1427.48,989.642 1436.5,989.5C 1436.5,996.5 1436.5,1003.5 1436.5,1010.5C 1434.17,1010.5 1431.83,1010.5 1429.5,1010.5C 1429.61,1021.19 1429.28,1031.85 1428.5,1042.5C 1430.83,1042.5 1433.17,1042.5 1435.5,1042.5C 1435.81,1049.09 1435.48,1055.59 1434.5,1062C 1436.81,1062.5 1439.14,1062.66 1441.5,1062.5C 1441.5,1067.17 1441.5,1071.83 1441.5,1076.5C 1443.5,1076.5 1445.5,1076.5 1447.5,1076.5C 1447.5,1085.5 1447.5,1094.5 1447.5,1103.5C 1445.17,1103.5 1442.83,1103.5 1440.5,1103.5C 1440.5,1107.83 1440.5,1112.17 1440.5,1116.5C 1438.17,1116.5 1435.83,1116.5 1433.5,1116.5C 1433.5,1123.17 1433.5,1129.83 1433.5,1136.5C 1431.17,1136.5 1428.83,1136.5 1426.5,1136.5C 1426.5,1140.5 1426.5,1144.5 1426.5,1148.5C 1428.83,1148.5 1431.17,1148.5 1433.5,1148.5C 1433.68,1150.59 1433.35,1152.59 1432.5,1154.5C 1434.74,1155.47 1437.08,1155.81 1439.5,1155.5C 1439.5,1157.83 1439.5,1160.17 1439.5,1162.5C 1441.5,1162.5 1443.5,1162.5 1445.5,1162.5C 1445.5,1173.83 1445.5,1185.17 1445.5,1196.5C 1443.17,1196.5 1440.83,1196.5 1438.5,1196.5C 1438.5,1200.83 1438.5,1205.17 1438.5,1209.5C 1436.17,1209.5 1433.83,1209.5 1431.5,1209.5C 1431.5,1211.5 1431.5,1213.5 1431.5,1215.5C 1429.4,1215.2 1427.4,1215.53 1425.5,1216.5C 1424.57,1220.43 1424.23,1224.43 1424.5,1228.5C 1422.5,1228.5 1420.5,1228.5 1418.5,1228.5C 1418.41,1232.86 1418.08,1237.19 1417.5,1241.5C 1415.5,1241.5 1413.5,1241.5 1411.5,1241.5C 1411.5,1243.83 1411.5,1246.17 1411.5,1248.5C 1409.17,1248.5 1406.83,1248.5 1404.5,1248.5C 1404.5,1252.83 1404.5,1257.17 1404.5,1261.5C 1402.17,1261.5 1399.83,1261.5 1397.5,1261.5C 1397.5,1263.5 1397.5,1265.5 1397.5,1267.5C 1395.17,1267.5 1392.83,1267.5 1390.5,1267.5C 1390.5,1269.83 1390.5,1272.17 1390.5,1274.5C 1388.5,1274.5 1386.5,1274.5 1384.5,1274.5C 1385.26,1279.91 1382.93,1281.91 1377.5,1280.5C 1377.5,1289.52 1377.17,1298.52 1376.5,1307.5C 1374.74,1307.64 1373.07,1307.31 1371.5,1306.5C 1371.17,1308.67 1370.83,1310.83 1370.5,1313C 1369.59,1330.49 1369.26,1347.99 1369.5,1365.5C 1371.5,1365.5 1373.5,1365.5 1375.5,1365.5C 1375.5,1376.5 1375.5,1387.5 1375.5,1398.5C 1377.5,1398.5 1379.5,1398.5 1381.5,1398.5C 1381.5,1401.17 1381.5,1403.83 1381.5,1406.5C 1379.17,1406.5 1376.83,1406.5 1374.5,1406.5C 1374.5,1412.83 1374.5,1419.17 1374.5,1425.5C 1376.83,1425.5 1379.17,1425.5 1381.5,1425.5C 1380.81,1445.49 1380.14,1465.49 1379.5,1485.5C 1377.5,1485.5 1375.5,1485.5 1373.5,1485.5C 1373.5,1489.83 1373.5,1494.17 1373.5,1498.5C 1375.5,1498.5 1377.5,1498.5 1379.5,1498.5C 1379.5,1507.5 1379.5,1516.5 1379.5,1525.5C 1361.5,1525.17 1343.5,1524.83 1325.5,1524.5C 1325.5,1522.17 1325.5,1519.83 1325.5,1517.5C 1319.49,1517.67 1313.49,1517.5 1307.5,1517C 1305.75,1515.25 1305.08,1513.08 1305.5,1510.5C 1301.12,1510.63 1296.79,1510.29 1292.5,1509.5C 1292.5,1507.5 1292.5,1505.5 1292.5,1503.5C 1286.02,1504.7 1284.02,1502.37 1286.5,1496.5C 1284.17,1496.5 1281.83,1496.5 1279.5,1496.5C 1279.5,1494.17 1279.5,1491.83 1279.5,1489.5C 1275.17,1489.5 1270.83,1489.5 1266.5,1489.5C 1266.5,1487.17 1266.5,1484.83 1266.5,1482.5C 1262.17,1482.5 1257.83,1482.5 1253.5,1482.5C 1253.5,1480.17 1253.5,1477.83 1253.5,1475.5C 1249.17,1475.5 1244.83,1475.5 1240.5,1475.5C 1240.5,1473.17 1240.5,1470.83 1240.5,1468.5C 1233.8,1468.66 1227.13,1468.33 1220.5,1467.5C 1220.5,1465.5 1220.5,1463.5 1220.5,1461.5C 1211.85,1460.8 1203.18,1460.46 1194.5,1460.5C 1194.5,1458.17 1194.5,1455.83 1194.5,1453.5C 1185.83,1453.67 1177.16,1453.5 1168.5,1453C 1167.17,1451 1167.17,1449 1168.5,1447C 1157.17,1446.15 1145.83,1445.32 1134.5,1444.5C 1135.35,1442.59 1135.68,1440.59 1135.5,1438.5C 1130.83,1438.5 1126.17,1438.5 1121.5,1438.5C 1121.24,1436.21 1121.58,1434.04 1122.5,1432C 1120.19,1431.5 1117.86,1431.34 1115.5,1431.5C 1115.5,1429.17 1115.5,1426.83 1115.5,1424.5C 1111.17,1424.5 1106.83,1424.5 1102.5,1424.5C 1102.5,1422.17 1102.5,1419.83 1102.5,1417.5C 1100.17,1417.5 1097.83,1417.5 1095.5,1417.5C 1095.5,1415.17 1095.5,1412.83 1095.5,1410.5C 1091.17,1410.5 1086.83,1410.5 1082.5,1410.5C 1082.5,1408.17 1082.5,1405.83 1082.5,1403.5C 1078.17,1403.5 1073.83,1403.5 1069.5,1403.5C 1069.5,1401.17 1069.5,1398.83 1069.5,1396.5C 1065.17,1396.5 1060.83,1396.5 1056.5,1396.5C 1056.5,1394.17 1056.5,1391.83 1056.5,1389.5C 1052.17,1389.5 1047.83,1389.5 1043.5,1389.5C 1043.5,1387.17 1043.5,1384.83 1043.5,1382.5C 1041.5,1382.5 1039.5,1382.5 1037.5,1382.5C 1037.5,1380.17 1037.5,1377.83 1037.5,1375.5C 1033.17,1375.5 1028.83,1375.5 1024.5,1375.5C 1024.5,1373.17 1024.5,1370.83 1024.5,1368.5C 1020.17,1368.5 1015.83,1368.5 1011.5,1368.5C 1011.5,1366.17 1011.5,1363.83 1011.5,1361.5C 1006.83,1361.5 1002.17,1361.5 997.5,1361.5C 997.674,1359.14 998.007,1356.81 998.5,1354.5C 991.789,1354.71 985.123,1354.38 978.5,1353.5C 978.5,1351.5 978.5,1349.5 978.5,1347.5C 971.847,1346.95 965.18,1346.61 958.5,1346.5C 958.5,1344.17 958.5,1341.83 958.5,1339.5C 956.5,1339.5 954.5,1339.5 952.5,1339.5C 952.5,1337.5 952.5,1335.5 952.5,1333.5C 948.215,1332.71 943.881,1332.37 939.5,1332.5C 940.833,1326.5 938.5,1324.17 932.5,1325.5C 932.5,1323.5 932.5,1321.5 932.5,1319.5C 928.176,1319.07 923.842,1318.74 919.5,1318.5C 919.5,1316.5 919.5,1314.5 919.5,1312.5C 914.094,1313.26 912.094,1310.93 913.5,1305.5C 909.119,1305.63 904.785,1305.29 900.5,1304.5C 900.5,1302.5 900.5,1300.5 900.5,1298.5C 896.158,1298.26 891.824,1297.93 887.5,1297.5C 887.5,1295.5 887.5,1293.5 887.5,1291.5C 880.863,1290.72 874.196,1290.39 867.5,1290.5C 867.5,1288.17 867.5,1285.83 867.5,1283.5C 863.167,1283.5 858.833,1283.5 854.5,1283.5C 854.5,1281.17 854.5,1278.83 854.5,1276.5C 850.167,1276.5 845.833,1276.5 841.5,1276.5C 841.5,1274.17 841.5,1271.83 841.5,1269.5C 837.167,1269.5 832.833,1269.5 828.5,1269.5C 828.5,1267.17 828.5,1264.83 828.5,1262.5C 826.5,1262.5 824.5,1262.5 822.5,1262.5C 822.5,1260.17 822.5,1257.83 822.5,1255.5C 817.786,1255.83 813.12,1255.49 808.5,1254.5C 809.348,1252.59 809.682,1250.59 809.5,1248.5C 807.167,1248.5 804.833,1248.5 802.5,1248.5C 802.5,1246.17 802.5,1243.83 802.5,1241.5C 800.5,1241.5 798.5,1241.5 796.5,1241.5C 796.5,1239.17 796.5,1236.83 796.5,1234.5C 792.167,1234.5 787.833,1234.5 783.5,1234.5C 783.5,1232.17 783.5,1229.83 783.5,1227.5C 779.167,1227.5 774.833,1227.5 770.5,1227.5C 770.5,1224.83 770.5,1222.17 770.5,1219.5C 772.5,1219.5 774.5,1219.5 776.5,1219.5C 776.5,1217.83 776.5,1216.17 776.5,1214.5C 772.158,1214.26 767.824,1213.93 763.5,1213.5C 763.5,1211.5 763.5,1209.5 763.5,1207.5C 759.202,1206.8 754.869,1206.47 750.5,1206.5C 750.5,1204.17 750.5,1201.83 750.5,1199.5C 752.833,1199.5 755.167,1199.5 757.5,1199.5C 757.5,1197.17 757.5,1194.83 757.5,1192.5C 759.833,1192.5 762.167,1192.5 764.5,1192.5C 764.5,1190.83 764.5,1189.17 764.5,1187.5C 762.167,1187.5 759.833,1187.5 757.5,1187.5C 757.5,1185.17 757.5,1182.83 757.5,1180.5C 755.833,1180.5 754.167,1180.5 752.5,1180.5C 752.5,1182.5 752.5,1184.5 752.5,1186.5C 750.167,1186.5 747.833,1186.5 745.5,1186.5C 745.5,1188.83 745.5,1191.17 745.5,1193.5C 739.471,1194.84 736.804,1192.5 737.5,1186.5C 731.178,1185.99 724.845,1185.65 718.5,1185.5C 718.5,1181.17 718.5,1176.83 718.5,1172.5C 716.076,1172.81 713.743,1172.47 711.5,1171.5C 712.348,1169.59 712.682,1167.59 712.5,1165.5C 710.167,1165.5 707.833,1165.5 705.5,1165.5C 705.5,1163.17 705.5,1160.83 705.5,1158.5C 703.5,1158.5 701.5,1158.5 699.5,1158.5C 699.826,1154.12 699.492,1149.78 698.5,1145.5C 696.591,1144.65 694.591,1144.32 692.5,1144.5C 692.357,1142.74 692.691,1141.07 693.5,1139.5C 691.314,1138.78 689.147,1138.11 687,1137.5C 686.505,1135.53 686.338,1133.53 686.5,1131.5C 684.5,1131.5 682.5,1131.5 680.5,1131.5C 680.5,1129.17 680.5,1126.83 680.5,1124.5C 678.167,1124.5 675.833,1124.5 673.5,1124.5C 673.5,1122.17 673.5,1119.83 673.5,1117.5C 671.5,1117.5 669.5,1117.5 667.5,1117.5C 667.5,1115.17 667.5,1112.83 667.5,1110.5C 665.167,1110.5 662.833,1110.5 660.5,1110.5C 660.739,1106.16 661.073,1101.82 661.5,1097.5C 657.176,1097.07 652.842,1096.74 648.5,1096.5C 648.5,1094.5 648.5,1092.5 648.5,1090.5C 642.836,1091.5 640.502,1089.17 641.5,1083.5C 639.5,1083.5 637.5,1083.5 635.5,1083.5C 635.5,1081.17 635.5,1078.83 635.5,1076.5C 631.486,1076.67 627.486,1076.5 623.5,1076C 622.577,1073.96 622.244,1071.79 622.5,1069.5C 618.131,1069.53 613.798,1069.2 609.5,1068.5C 610.498,1062.83 608.164,1060.5 602.5,1061.5C 602.5,1059.5 602.5,1057.5 602.5,1055.5C 598.19,1054.92 593.857,1054.59 589.5,1054.5C 589.372,1050.12 589.705,1045.79 590.5,1041.5C 588.167,1041.5 585.833,1041.5 583.5,1041.5C 583.5,1039.17 583.5,1036.83 583.5,1034.5C 581.5,1034.5 579.5,1034.5 577.5,1034.5C 577.5,1032.17 577.5,1029.83 577.5,1027.5C 575.167,1027.5 572.833,1027.5 570.5,1027.5C 570.5,1025.17 570.5,1022.83 570.5,1020.5C 568.5,1020.5 566.5,1020.5 564.5,1020.5C 564.5,1018.17 564.5,1015.83 564.5,1013.5C 562.5,1013.5 560.5,1013.5 558.5,1013.5C 559.833,1007.5 557.5,1005.17 551.5,1006.5C 551.5,1004.5 551.5,1002.5 551.5,1000.5C 549.5,1000.17 547.5,999.833 545.5,999.5C 545.5,997.5 545.5,995.5 545.5,993.5C 543.167,993.5 540.833,993.5 538.5,993.5C 538.244,991.208 538.577,989.041 539.5,987C 537.19,986.503 534.857,986.337 532.5,986.5C 532.5,984.167 532.5,981.833 532.5,979.5C 528.486,979.666 524.486,979.499 520.5,979C 519.577,976.959 519.244,974.792 519.5,972.5C 517.5,972.5 515.5,972.5 513.5,972.5C 513.5,970.167 513.5,967.833 513.5,965.5C 511.167,965.5 508.833,965.5 506.5,965.5C 506.5,963.167 506.5,960.833 506.5,958.5C 504.5,958.5 502.5,958.5 500.5,958.5C 500.5,956.167 500.5,953.833 500.5,951.5C 498.167,951.5 495.833,951.5 493.5,951.5C 494.092,948.873 494.425,946.206 494.5,943.5C 498.824,943.927 503.158,944.261 507.5,944.5C 507.5,940.167 507.5,935.833 507.5,931.5C 505.5,931.5 503.5,931.5 501.5,931.5C 501.5,933.833 501.5,936.167 501.5,938.5C 499.167,938.5 496.833,938.5 494.5,938.5C 494.5,933.833 494.5,929.167 494.5,924.5C 490.5,924.5 486.5,924.5 482.5,924.5C 482.5,926.5 482.5,928.5 482.5,930.5C 479.833,930.5 477.167,930.5 474.5,930.5C 475.906,925.069 473.906,922.735 468.5,923.5C 468.5,921.5 468.5,919.5 468.5,917.5C 465.941,917.61 463.608,916.944 461.5,915.5C 462.309,913.929 462.643,912.262 462.5,910.5C 460.167,910.5 457.833,910.5 455.5,910.5C 455.5,908.167 455.5,905.833 455.5,903.5C 453.5,903.5 451.5,903.5 449.5,903.5C 449.5,901.167 449.5,898.833 449.5,896.5C 447.167,896.5 444.833,896.5 442.5,896.5C 442.5,894.167 442.5,891.833 442.5,889.5C 440.5,889.5 438.5,889.5 436.5,889.5C 436.5,887.167 436.5,884.833 436.5,882.5C 432.167,882.5 427.833,882.5 423.5,882.5C 423.5,880.167 423.5,877.833 423.5,875.5C 416.826,875.287 410.159,874.954 403.5,874.5C 403.833,872.5 404.167,870.5 404.5,868.5C 400.215,867.705 395.881,867.372 391.5,867.5C 391.5,860.833 391.5,854.167 391.5,847.5C 389.5,847.5 387.5,847.5 385.5,847.5C 385.5,845.167 385.5,842.833 385.5,840.5C 381.167,840.5 376.833,840.5 372.5,840.5C 372.5,838.167 372.5,835.833 372.5,833.5C 368.5,833.5 364.5,833.5 360.5,833.5C 360.643,835.262 360.309,836.929 359.5,838.5C 354.88,839.493 350.214,839.827 345.5,839.5C 345.5,837.167 345.5,834.833 345.5,832.5C 336.833,832.167 328.167,831.833 319.5,831.5C 319.5,829.167 319.5,826.833 319.5,824.5C 317.5,824.5 315.5,824.5 313.5,824.5C 313.5,822.167 313.5,819.833 313.5,817.5C 309.5,817.5 305.5,817.5 301.5,817.5C 301.5,819.833 301.5,822.167 301.5,824.5C 298.873,823.908 296.206,823.575 293.5,823.5C 293.5,821.5 293.5,819.5 293.5,817.5C 287.203,816.68 280.869,816.347 274.5,816.5C 274.5,814.167 274.5,811.833 274.5,809.5C 270.167,809.5 265.833,809.5 261.5,809.5C 261.5,807.167 261.5,804.833 261.5,802.5C 257.167,802.5 252.833,802.5 248.5,802.5C 248.5,800.167 248.5,797.833 248.5,795.5C 246.167,795.5 243.833,795.5 241.5,795.5C 241.5,793.167 241.5,790.833 241.5,788.5C 239.5,788.5 237.5,788.5 235.5,788.5C 235.5,783.5 235.5,778.5 235.5,773.5C 237.591,773.318 239.591,773.652 241.5,774.5C 242.466,772.604 242.799,770.604 242.5,768.5C 240.5,768.5 238.5,768.5 236.5,768.5C 236.5,761.833 236.5,755.167 236.5,748.5C 234.533,748.739 232.699,748.406 231,747.5C 230.501,743.179 230.334,738.846 230.5,734.5C 228.5,734.5 226.5,734.5 224.5,734.5C 224.5,732.167 224.5,729.833 224.5,727.5C 222.167,727.5 219.833,727.5 217.5,727.5C 217.5,725.167 217.5,722.833 217.5,720.5C 213.167,720.5 208.833,720.5 204.5,720.5C 204.5,718.167 204.5,715.833 204.5,713.5C 200.486,713.666 196.486,713.499 192.5,713C 192.014,710.973 192.014,708.807 192.5,706.5C 190.167,706.5 187.833,706.5 185.5,706.5C 185.5,704.167 185.5,701.833 185.5,699.5C 181.486,699.666 177.486,699.499 173.5,699C 172.577,696.959 172.244,694.792 172.5,692.5C 166.178,691.986 159.845,691.653 153.5,691.5C 153.5,689.167 153.5,686.833 153.5,684.5C 149.167,684.5 144.833,684.5 140.5,684.5C 140.5,682.167 140.5,679.833 140.5,677.5C 136.167,677.5 131.833,677.5 127.5,677.5C 127.5,675.167 127.5,672.833 127.5,670.5C 123.119,670.628 118.785,670.295 114.5,669.5C 114.5,667.5 114.5,665.5 114.5,663.5C 110.19,662.92 105.857,662.586 101.5,662.5C 101.756,660.208 101.423,658.041 100.5,656C 92.8333,655.667 85.1667,655.333 77.5,655C 75.75,653.246 75.0833,651.079 75.5,648.5C 71.1578,648.261 66.8244,647.927 62.5,647.5C 62.5,645.167 62.5,642.833 62.5,640.5C 58.1667,640.5 53.8333,640.5 49.5,640.5C 49.5,638.167 49.5,635.833 49.5,633.5C 47.5,633.5 45.5,633.5 43.5,633.5C 43.5,631.167 43.5,628.833 43.5,626.5C 41.5,626.5 39.5,626.5 37.5,626.5C 37.5,621.833 37.5,617.167 37.5,612.5C 39.8333,612.5 42.1667,612.5 44.5,612.5C 44.5,608.5 44.5,604.5 44.5,600.5C 42.5,600.5 40.5,600.5 38.5,600.5C 38.5,595.833 38.5,591.167 38.5,586.5C 36.076,586.808 33.7427,586.474 31.5,585.5C 32.3482,583.591 32.6816,581.591 32.5,579.5C 30.1667,579.5 27.8333,579.5 25.5,579.5C 25.5,577.167 25.5,574.833 25.5,572.5C 23.5,572.5 21.5,572.5 19.5,572.5C 19.5,570.167 19.5,567.833 19.5,565.5C 17.076,565.808 14.7427,565.474 12.5,564.5C 13.3482,562.591 13.6816,560.591 13.5,558.5C 11.1667,558.5 8.83333,558.5 6.5,558.5C 6.5,556.167 6.5,553.833 6.5,551.5C 11.1667,551.5 15.8333,551.5 20.5,551.5C 20.5,549.5 20.5,547.5 20.5,545.5C 22.5,545.5 24.5,545.5 26.5,545.5C 26.9625,540.838 27.4625,536.171 28,531.5C 29.6995,532.406 31.5328,532.739 33.5,532.5C 34.0802,528.19 34.4135,523.857 34.5,519.5C 36.5,519.5 38.5,519.5 40.5,519.5C 40.8017,514.786 41.4683,510.12 42.5,505.5C 44.0709,506.309 45.7376,506.643 47.5,506.5C 47.6751,501.766 48.3418,497.099 49.5,492.5C 51.0709,493.309 52.7376,493.643 54.5,493.5C 55.4149,484.54 55.7482,475.54 55.5,466.5C 57.8333,466.5 60.1667,466.5 62.5,466.5C 62.5,462.167 62.5,457.833 62.5,453.5C 64.8333,453.5 67.1667,453.5 69.5,453.5C 69.5,451.5 69.5,449.5 69.5,447.5C 73.8333,447.5 78.1667,447.5 82.5,447.5C 82.5,445.5 82.5,443.5 82.5,441.5C 89.1667,441.5 95.8333,441.5 102.5,441.5C 102.5,439.5 102.5,437.5 102.5,435.5C 104.833,435.5 107.167,435.5 109.5,435.5C 109.5,433.5 109.5,431.5 109.5,429.5C 111.833,429.5 114.167,429.5 116.5,429.5C 116.5,427.167 116.5,424.833 116.5,422.5C 118.833,422.5 121.167,422.5 123.5,422.5C 123.5,418.167 123.5,413.833 123.5,409.5C 125.833,409.5 128.167,409.5 130.5,409.5C 130.5,407.5 130.5,405.5 130.5,403.5C 132.5,403.5 134.5,403.5 136.5,403.5C 136.739,399.158 137.073,394.824 137.5,390.5C 141.833,390.5 146.167,390.5 150.5,390.5C 150.5,388.5 150.5,386.5 150.5,384.5C 152.833,384.5 155.167,384.5 157.5,384.5C 157.5,382.167 157.5,379.833 157.5,377.5C 161.785,378.295 166.119,378.628 170.5,378.5C 170.5,376.167 170.5,373.833 170.5,371.5C 172.792,371.244 174.959,371.577 177,372.5C 177.497,370.19 177.663,367.857 177.5,365.5C 181.833,365.5 186.167,365.5 190.5,365.5C 190.5,363.5 190.5,361.5 190.5,359.5C 192.833,359.5 195.167,359.5 197.5,359.5C 197.5,357.5 197.5,355.5 197.5,353.5C 201.833,353.5 206.167,353.5 210.5,353.5C 210.5,351.167 210.5,348.833 210.5,346.5C 214.836,347.634 219.169,347.634 223.5,346.5C 224.348,344.591 224.682,342.591 224.5,340.5C 228.824,340.927 233.158,341.261 237.5,341.5C 237.5,337.167 237.5,332.833 237.5,328.5C 239.833,328.5 242.167,328.5 244.5,328.5C 244.5,326.167 244.5,323.833 244.5,321.5C 246.833,321.5 249.167,321.5 251.5,321.5C 251.5,319.5 251.5,317.5 251.5,315.5C 253.5,315.5 255.5,315.5 257.5,315.5C 256.227,309.101 258.56,307.101 264.5,309.5C 264.263,305.278 264.596,301.111 265.5,297C 265.833,296.5 266.167,296 266.5,295.5C 268.071,296.309 269.738,296.643 271.5,296.5C 271.5,294.167 271.5,291.833 271.5,289.5C 273.833,289.5 276.167,289.5 278.5,289.5C 278.5,287.5 278.5,285.5 278.5,283.5C 280.833,283.5 283.167,283.5 285.5,283.5C 285.5,281.167 285.5,278.833 285.5,276.5C 287.262,276.357 288.929,276.691 290.5,277.5C 291.944,275.392 292.61,273.059 292.5,270.5C 294.5,270.5 296.5,270.5 298.5,270.5C 298.5,268.5 298.5,266.5 298.5,264.5C 305.167,264.5 311.833,264.5 318.5,264.5C 318.5,262.5 318.5,260.5 318.5,258.5C 320.833,258.5 323.167,258.5 325.5,258.5C 326.697,225.173 327.697,191.839 328.5,158.5C 330.861,158.674 333.194,159.007 335.5,159.5C 335.5,157.167 335.5,154.833 335.5,152.5C 337.833,152.5 340.167,152.5 342.5,152.5C 342.5,150.5 342.5,148.5 342.5,146.5C 344.833,146.5 347.167,146.5 349.5,146.5C 349.5,144.167 349.5,141.833 349.5,139.5C 351.262,139.357 352.929,139.691 354.5,140.5C 355.221,138.314 355.887,136.147 356.5,134C 360.821,133.501 365.154,133.334 369.5,133.5C 369.5,131.5 369.5,129.5 369.5,127.5C 386.838,128.056 404.172,128.722 421.5,129.5C 421.5,127.167 421.5,124.833 421.5,122.5C 423.806,122.993 426.139,123.326 428.5,123.5C 428.5,121.167 428.5,118.833 428.5,116.5C 430.833,116.5 433.167,116.5 435.5,116.5C 435.5,109.833 435.5,103.167 435.5,96.5C 437.591,96.3184 439.591,96.6518 441.5,97.5C 442.904,81.851 443.904,66.1844 444.5,50.5C 446.5,50.5 448.5,50.5 450.5,50.5C 451.025,37.1474 451.859,23.8141 453,10.5C 459.076,11.4764 465.242,11.8097 471.5,11.5C 471.325,9.3792 471.659,7.3792 472.5,5.5 Z M 714.5,414.5 C 716.5,414.833 718.5,415.167 720.5,415.5C 720.5,417.167 720.5,418.833 720.5,420.5C 718.5,420.5 716.5,420.5 714.5,420.5C 714.5,418.5 714.5,416.5 714.5,414.5 Z"/></g>
</svg>
