<?xml version="1.0" encoding="UTF-8"?>
<!DOCTYPE svg PUBLIC "-//W3C//DTD SVG 1.1//EN" "http://www.w3.org/Graphics/SVG/1.1/DTD/svg11.dtd">
<svg xmlns="http://www.w3.org/2000/svg" version="1.1" width="1876px" height="1478px" style="shape-rendering:geometricPrecision; text-rendering:geometricPrecision; image-rendering:optimizeQuality; fill-rule:evenodd; clip-rule:evenodd" xmlns:xlink="http://www.w3.org/1999/xlink">
<g><path style="opacity:1" fill="#fefffe" d="M 831.5,4.5 C 835.534,4.50454 839.534,4.83787 843.5,5.5C 843.167,9.5 842.833,13.5 842.5,17.5C 848.189,17.5324 853.855,17.8658 859.5,18.5C 859.5,20.5 859.5,22.5 859.5,24.5C 860.833,24.5 862.167,24.5 863.5,24.5C 863.132,21.9442 863.966,19.9442 866,18.5C 890.126,20.5862 914.293,22.2529 938.5,23.5C 938.5,25.5 938.5,27.5 938.5,29.5C 956.814,30.9572 975.147,32.2905 993.5,33.5C 993.833,31.5 994.167,29.5 994.5,27.5C 1006.15,28.4321 1017.82,29.0988 1029.5,29.5C 1029.64,31.2624 1029.31,32.9291 1028.5,34.5C 1032.35,35.9332 1036.35,36.9332 1040.5,37.5C 1039.69,39.0709 1039.36,40.7376 1039.5,42.5C 1041.5,42.5 1043.5,42.5 1045.5,42.5C 1043.19,47.5372 1044.86,49.8706 1050.5,49.5C 1050.74,51.4672 1050.41,53.3005 1049.5,55C 1053.49,55.4988 1057.49,55.6655 1061.5,55.5C 1061.74,57.4672 1061.41,59.3005 1060.5,61C 1062.35,62.128 1064.35,62.628 1066.5,62.5C 1066.5,64.5 1066.5,66.5 1066.5,68.5C 1068.17,68.5 1069.83,68.5 1071.5,68.5C 1071.5,70.5 1071.5,72.5 1071.5,74.5C 1073.17,74.5 1074.83,74.5 1076.5,74.5C 1076.5,76.8333 1076.5,79.1667 1076.5,81.5C 1078.17,81.5 1079.83,81.5 1081.5,81.5C 1081.5,83.5 1081.5,85.5 1081.5,87.5C 1083.5,87.5 1085.5,87.5 1087.5,87.5C 1087.74,89.4672 1087.41,91.3005 1086.5,93C 1091.89,92.6873 1093.89,95.1873 1092.5,100.5C 1094.17,100.5 1095.83,100.5 1097.5,100.5C 1097.5,102.5 1097.5,104.5 1097.5,106.5C 1099.17,106.5 1100.83,106.5 1102.5,106.5C 1102.5,108.5 1102.5,110.5 1102.5,112.5C 1104.56,112.687 1106.56,113.187 1108.5,114C 1107.59,115.699 1107.26,117.533 1107.5,119.5C 1109.5,119.5 1111.5,119.5 1113.5,119.5C 1113.17,121.5 1112.83,123.5 1112.5,125.5C 1114.5,125.5 1116.5,125.5 1118.5,125.5C 1117.69,129.833 1119.35,132.166 1123.5,132.5C 1123.5,134.5 1123.5,136.5 1123.5,138.5C 1125.17,138.5 1126.83,138.5 1128.5,138.5C 1128.5,140.5 1128.5,142.5 1128.5,144.5C 1130.6,144.201 1132.6,144.534 1134.5,145.5C 1133.43,153.111 1132.76,160.778 1132.5,168.5C 1136.65,168.834 1138.31,171.167 1137.5,175.5C 1139.6,175.201 1141.6,175.534 1143.5,176.5C 1142.69,178.071 1142.36,179.738 1142.5,181.5C 1146.58,181.344 1150.58,181.844 1154.5,183C 1153.59,184.699 1153.26,186.533 1153.5,188.5C 1155.5,188.5 1157.5,188.5 1159.5,188.5C 1159.64,190.262 1159.31,191.929 1158.5,193.5C 1162.43,194.632 1166.43,195.299 1170.5,195.5C 1170.17,197.5 1169.83,199.5 1169.5,201.5C 1178.83,202 1188.16,202.333 1197.5,202.5C 1197.5,200.833 1197.5,199.167 1197.5,197.5C 1201.5,197.5 1205.5,197.5 1209.5,197.5C 1209.5,195.5 1209.5,193.5 1209.5,191.5C 1211.99,191.298 1214.32,191.798 1216.5,193C 1215.66,198.771 1214.99,204.605 1214.5,210.5C 1216.5,210.5 1218.5,210.5 1220.5,210.5C 1220.5,212.5 1220.5,214.5 1220.5,216.5C 1225.83,216.833 1231.17,217.167 1236.5,217.5C 1236.5,215.5 1236.5,213.5 1236.5,211.5C 1249.83,212.25 1263.17,213.083 1276.5,214C 1277.33,216.081 1277.33,218.248 1276.5,220.5C 1280.5,220.5 1284.5,220.5 1288.5,220.5C 1288.17,222.5 1287.83,224.5 1287.5,226.5C 1289.5,226.5 1291.5,226.5 1293.5,226.5C 1293.5,228.833 1293.5,231.167 1293.5,233.5C 1297.17,233.5 1300.83,233.5 1304.5,233.5C 1304.74,235.467 1304.41,237.301 1303.5,239C 1305.47,239.495 1307.47,239.662 1309.5,239.5C 1309.53,243.869 1309.2,248.202 1308.5,252.5C 1310.5,252.5 1312.5,252.5 1314.5,252.5C 1314.5,254.5 1314.5,256.5 1314.5,258.5C 1316.17,258.5 1317.83,258.5 1319.5,258.5C 1319.76,262.24 1319.43,265.906 1318.5,269.5C 1320.4,270.466 1322.4,270.799 1324.5,270.5C 1324.41,274.857 1324.08,279.19 1323.5,283.5C 1325.5,283.5 1327.5,283.5 1329.5,283.5C 1328.69,289.464 1328.36,295.464 1328.5,301.5C 1330.17,301.5 1331.83,301.5 1333.5,301.5C 1333.41,307.516 1333.07,313.516 1332.5,319.5C 1334.5,319.5 1336.5,319.5 1338.5,319.5C 1337.64,327.474 1336.98,335.474 1336.5,343.5C 1338.56,343.687 1340.56,344.187 1342.5,345C 1341.72,350.782 1341.05,356.616 1340.5,362.5C 1342.5,362.5 1344.5,362.5 1346.5,362.5C 1346.5,364.5 1346.5,366.5 1346.5,368.5C 1348.17,368.5 1349.83,368.5 1351.5,368.5C 1351.5,370.5 1351.5,372.5 1351.5,374.5C 1353.65,374.372 1355.65,374.872 1357.5,376C 1356.59,377.699 1356.26,379.533 1356.5,381.5C 1358.5,381.5 1360.5,381.5 1362.5,381.5C 1362.74,383.467 1362.41,385.301 1361.5,387C 1363.47,387.495 1365.47,387.662 1367.5,387.5C 1367.5,389.5 1367.5,391.5 1367.5,393.5C 1369.17,393.5 1370.83,393.5 1372.5,393.5C 1371.09,398.931 1373.09,401.265 1378.5,400.5C 1377.73,404.452 1377.39,408.452 1377.5,412.5C 1379.6,412.201 1381.6,412.534 1383.5,413.5C 1382.69,415.071 1382.36,416.738 1382.5,418.5C 1384.5,418.5 1386.5,418.5 1388.5,418.5C 1388.5,420.833 1388.5,423.167 1388.5,425.5C 1390.17,425.5 1391.83,425.5 1393.5,425.5C 1393.5,427.5 1393.5,429.5 1393.5,431.5C 1400.84,431.723 1408.17,432.056 1415.5,432.5C 1415.5,430.5 1415.5,428.5 1415.5,426.5C 1419.5,426.833 1423.5,427.167 1427.5,427.5C 1427.5,433.523 1427.16,439.523 1426.5,445.5C 1428.5,445.5 1430.5,445.5 1432.5,445.5C 1431.83,453.5 1431.17,461.5 1430.5,469.5C 1432.5,469.5 1434.5,469.5 1436.5,469.5C 1436.74,471.467 1436.41,473.301 1435.5,475C 1439.4,476.266 1443.4,476.766 1447.5,476.5C 1447.5,478.5 1447.5,480.5 1447.5,482.5C 1449.17,482.5 1450.83,482.5 1452.5,482.5C 1451.69,486.833 1453.35,489.166 1457.5,489.5C 1457.82,495.909 1457.32,502.243 1456,508.5C 1454.3,507.594 1452.47,507.261 1450.5,507.5C 1450.5,511.167 1450.5,514.833 1450.5,518.5C 1452.14,518.286 1453.64,518.62 1455,519.5C 1455.5,521.473 1455.66,523.473 1455.5,525.5C 1457.5,525.5 1459.5,525.5 1461.5,525.5C 1461.64,527.262 1461.31,528.929 1460.5,530.5C 1462.4,531.466 1464.4,531.799 1466.5,531.5C 1466.5,533.5 1466.5,535.5 1466.5,537.5C 1468.17,537.5 1469.83,537.5 1471.5,537.5C 1471.5,539.833 1471.5,542.167 1471.5,544.5C 1473.5,544.5 1475.5,544.5 1477.5,544.5C 1477.17,546.5 1476.83,548.5 1476.5,550.5C 1480.5,550.5 1484.5,550.5 1488.5,550.5C 1486.37,555.474 1488.04,557.807 1493.5,557.5C 1493.5,559.5 1493.5,561.5 1493.5,563.5C 1498.87,563.392 1504.2,563.725 1509.5,564.5C 1509.5,562.5 1509.5,560.5 1509.5,558.5C 1511.83,558.5 1514.17,558.5 1516.5,558.5C 1516.74,560.467 1516.41,562.301 1515.5,564C 1519.49,564.642 1523.49,565.142 1527.5,565.5C 1527.5,567.5 1527.5,569.5 1527.5,571.5C 1531.17,571.5 1534.83,571.5 1538.5,571.5C 1538.24,573.792 1538.58,575.959 1539.5,578C 1542.82,578.498 1546.15,578.665 1549.5,578.5C 1549.5,580.5 1549.5,582.5 1549.5,584.5C 1551.17,584.5 1552.83,584.5 1554.5,584.5C 1554.5,586.5 1554.5,588.5 1554.5,590.5C 1558.14,591.114 1561.8,591.448 1565.5,591.5C 1565.5,593.5 1565.5,595.5 1565.5,597.5C 1567.6,597.201 1569.6,597.534 1571.5,598.5C 1570.55,604.104 1570.21,609.771 1570.5,615.5C 1572.17,615.5 1573.83,615.5 1575.5,615.5C 1575.7,620.704 1575.37,625.871 1574.5,631C 1575.38,633.906 1577.38,635.073 1580.5,634.5C 1580.74,636.467 1580.41,638.301 1579.5,640C 1581.47,640.495 1583.47,640.662 1585.5,640.5C 1585.5,642.5 1585.5,644.5 1585.5,646.5C 1587.17,646.5 1588.83,646.5 1590.5,646.5C 1590.5,648.5 1590.5,650.5 1590.5,652.5C 1594.15,652.942 1597.82,653.276 1601.5,653.5C 1601.5,655.5 1601.5,657.5 1601.5,659.5C 1605.64,659.146 1609.64,659.646 1613.5,661C 1612.59,662.699 1612.26,664.533 1612.5,666.5C 1614.5,666.5 1616.5,666.5 1618.5,666.5C 1618.5,668.5 1618.5,670.5 1618.5,672.5C 1622.17,672.5 1625.83,672.5 1629.5,672.5C 1629.34,674.527 1629.5,676.527 1630,678.5C 1631.36,679.38 1632.86,679.714 1634.5,679.5C 1634.5,683.5 1634.5,687.5 1634.5,691.5C 1636.17,691.5 1637.83,691.5 1639.5,691.5C 1639.5,695.5 1639.5,699.5 1639.5,703.5C 1641.17,703.5 1642.83,703.5 1644.5,703.5C 1644.5,707.5 1644.5,711.5 1644.5,715.5C 1645.93,715.421 1647.26,715.754 1648.5,716.5C 1649.28,724.82 1649.12,733.153 1648,741.5C 1646.3,740.594 1644.47,740.261 1642.5,740.5C 1642.35,744.519 1642.02,748.519 1641.5,752.5C 1639.5,752.5 1637.5,752.5 1635.5,752.5C 1635.29,762.172 1634.96,771.839 1634.5,781.5C 1636.17,781.5 1637.83,781.5 1639.5,781.5C 1639.7,787.545 1639.36,793.545 1638.5,799.5C 1642.24,799.241 1645.91,799.574 1649.5,800.5C 1650.76,802.353 1650.76,804.186 1649.5,806C 1653.49,806.499 1657.49,806.666 1661.5,806.5C 1661.5,808.5 1661.5,810.5 1661.5,812.5C 1663.14,812.286 1664.64,812.62 1666,813.5C 1666.5,815.473 1666.66,817.473 1666.5,819.5C 1668.5,819.5 1670.5,819.5 1672.5,819.5C 1672.17,821.5 1671.83,823.5 1671.5,825.5C 1673.5,825.5 1675.5,825.5 1677.5,825.5C 1677.5,827.5 1677.5,829.5 1677.5,831.5C 1681.18,831.724 1684.85,832.058 1688.5,832.5C 1688.5,834.5 1688.5,836.5 1688.5,838.5C 1690.17,838.5 1691.83,838.5 1693.5,838.5C 1693.5,842.5 1693.5,846.5 1693.5,850.5C 1695.17,850.5 1696.83,850.5 1698.5,850.5C 1698.81,856.425 1698.47,862.259 1697.5,868C 1699.47,868.495 1701.47,868.662 1703.5,868.5C 1703.21,878.871 1702.54,889.205 1701.5,899.5C 1699.23,899.141 1697.4,899.808 1696,901.5C 1695.58,908.846 1695.08,916.179 1694.5,923.5C 1692.5,923.5 1690.5,923.5 1688.5,923.5C 1688.5,927.167 1688.5,930.833 1688.5,934.5C 1690.17,934.5 1691.83,934.5 1693.5,934.5C 1693.5,938.5 1693.5,942.5 1693.5,946.5C 1695.17,946.5 1696.83,946.5 1698.5,946.5C 1698.5,948.5 1698.5,950.5 1698.5,952.5C 1700.5,952.5 1702.5,952.5 1704.5,952.5C 1704.34,954.527 1704.5,956.527 1705,958.5C 1706.36,959.38 1707.86,959.714 1709.5,959.5C 1709.15,971.854 1708.48,984.188 1707.5,996.5C 1705.5,996.167 1703.5,995.833 1701.5,995.5C 1701.5,997.5 1701.5,999.5 1701.5,1001.5C 1699.5,1001.5 1697.5,1001.5 1695.5,1001.5C 1695.5,1003.5 1695.5,1005.5 1695.5,1007.5C 1693.5,1007.5 1691.5,1007.5 1689.5,1007.5C 1689.5,1009.5 1689.5,1011.5 1689.5,1013.5C 1687.74,1013.64 1686.07,1013.31 1684.5,1012.5C 1683.53,1014.4 1683.2,1016.4 1683.5,1018.5C 1679.5,1018.5 1675.5,1018.5 1671.5,1018.5C 1670.97,1028.16 1670.64,1037.83 1670.5,1047.5C 1672.17,1047.5 1673.83,1047.5 1675.5,1047.5C 1675.5,1051.5 1675.5,1055.5 1675.5,1059.5C 1677.17,1059.5 1678.83,1059.5 1680.5,1059.5C 1680.5,1061.5 1680.5,1063.5 1680.5,1065.5C 1682.5,1065.5 1684.5,1065.5 1686.5,1065.5C 1686.74,1067.47 1686.41,1069.3 1685.5,1071C 1687.35,1072.13 1689.35,1072.63 1691.5,1072.5C 1691.5,1074.5 1691.5,1076.5 1691.5,1078.5C 1693.17,1078.5 1694.83,1078.5 1696.5,1078.5C 1696.5,1080.5 1696.5,1082.5 1696.5,1084.5C 1698.5,1084.5 1700.5,1084.5 1702.5,1084.5C 1702.61,1088.55 1702.27,1092.55 1701.5,1096.5C 1706.42,1096.17 1708.42,1098.51 1707.5,1103.5C 1709.17,1103.5 1710.83,1103.5 1712.5,1103.5C 1712.5,1105.5 1712.5,1107.5 1712.5,1109.5C 1714.5,1109.5 1716.5,1109.5 1718.5,1109.5C 1718.5,1111.5 1718.5,1113.5 1718.5,1115.5C 1720.17,1115.5 1721.83,1115.5 1723.5,1115.5C 1723.5,1117.83 1723.5,1120.17 1723.5,1122.5C 1721.5,1122.5 1719.5,1122.5 1717.5,1122.5C 1717.5,1126.17 1717.5,1129.83 1717.5,1133.5C 1719.17,1133.5 1720.83,1133.5 1722.5,1133.5C 1722.5,1135.5 1722.5,1137.5 1722.5,1139.5C 1728.28,1138.83 1729.95,1141.16 1727.5,1146.5C 1729.5,1146.5 1731.5,1146.5 1733.5,1146.5C 1733.5,1148.5 1733.5,1150.5 1733.5,1152.5C 1736.83,1152.5 1740.17,1152.5 1743.5,1152.5C 1743.63,1148.81 1745.63,1146.81 1749.5,1146.5C 1750.31,1144.93 1750.64,1143.26 1750.5,1141.5C 1755.5,1142.5 1757.5,1140.5 1756.5,1135.5C 1758.5,1135.5 1760.5,1135.5 1762.5,1135.5C 1762.5,1131.83 1762.5,1128.17 1762.5,1124.5C 1768.51,1124.33 1774.51,1124.5 1780.5,1125C 1780.85,1126.63 1780.85,1128.46 1780.5,1130.5C 1786.12,1131.35 1791.79,1131.69 1797.5,1131.5C 1797.5,1133.5 1797.5,1135.5 1797.5,1137.5C 1799.5,1137.5 1801.5,1137.5 1803.5,1137.5C 1803.5,1139.83 1803.5,1142.17 1803.5,1144.5C 1805.17,1144.5 1806.83,1144.5 1808.5,1144.5C 1808.5,1148.5 1808.5,1152.5 1808.5,1156.5C 1810.17,1156.5 1811.83,1156.5 1813.5,1156.5C 1813.5,1158.5 1813.5,1160.5 1813.5,1162.5C 1815.5,1162.5 1817.5,1162.5 1819.5,1162.5C 1819.5,1164.5 1819.5,1166.5 1819.5,1168.5C 1821.14,1168.29 1822.64,1168.62 1824,1169.5C 1824.82,1175.9 1824.48,1182.24 1823,1188.5C 1820.98,1187.01 1819.31,1187.34 1818,1189.5C 1817.5,1192.48 1817.34,1195.48 1817.5,1198.5C 1820.06,1198.13 1822.06,1198.97 1823.5,1201C 1822.46,1204.12 1822.3,1207.29 1823,1210.5C 1824.7,1211.41 1826.53,1211.74 1828.5,1211.5C 1827.98,1215.48 1827.65,1219.48 1827.5,1223.5C 1829.5,1223.5 1831.5,1223.5 1833.5,1223.5C 1833.5,1225.5 1833.5,1227.5 1833.5,1229.5C 1836.91,1229.25 1840.24,1229.58 1843.5,1230.5C 1844.47,1232.4 1844.8,1234.4 1844.5,1236.5C 1846.17,1236.5 1847.83,1236.5 1849.5,1236.5C 1849.5,1238.5 1849.5,1240.5 1849.5,1242.5C 1851.5,1242.5 1853.5,1242.5 1855.5,1242.5C 1855.5,1244.5 1855.5,1246.5 1855.5,1248.5C 1857.17,1248.5 1858.83,1248.5 1860.5,1248.5C 1860.5,1252.5 1860.5,1256.5 1860.5,1260.5C 1862.5,1260.83 1864.5,1261.17 1866.5,1261.5C 1866.17,1263.5 1865.83,1265.5 1865.5,1267.5C 1867.5,1267.5 1869.5,1267.5 1871.5,1267.5C 1870.83,1279.83 1870.17,1292.17 1869.5,1304.5C 1867.53,1304.74 1865.7,1304.41 1864,1303.5C 1863.17,1313.49 1862.67,1323.49 1862.5,1333.5C 1860.5,1333.5 1858.5,1333.5 1856.5,1333.5C 1855.83,1345.5 1855.17,1357.5 1854.5,1369.5C 1852.5,1369.5 1850.5,1369.5 1848.5,1369.5C 1848.2,1376.85 1848.04,1384.18 1848,1391.5C 1849.7,1392.41 1851.53,1392.74 1853.5,1392.5C 1852.72,1400.48 1852.39,1408.48 1852.5,1416.5C 1854.17,1416.5 1855.83,1416.5 1857.5,1416.5C 1857.79,1422.23 1857.45,1427.9 1856.5,1433.5C 1858.4,1434.47 1860.4,1434.8 1862.5,1434.5C 1862.44,1440.85 1862.11,1447.18 1861.5,1453.5C 1855.45,1453.7 1849.45,1453.36 1843.5,1452.5C 1843.5,1450.5 1843.5,1448.5 1843.5,1446.5C 1824.46,1445.93 1805.46,1444.93 1786.5,1443.5C 1786.5,1445.5 1786.5,1447.5 1786.5,1449.5C 1780.82,1449.33 1775.16,1449.5 1769.5,1450C 1768.62,1451.36 1768.29,1452.86 1768.5,1454.5C 1764.83,1454.5 1761.17,1454.5 1757.5,1454.5C 1758.17,1458.51 1756.5,1460.51 1752.5,1460.5C 1740.18,1459.53 1727.85,1458.87 1715.5,1458.5C 1715.5,1456.5 1715.5,1454.5 1715.5,1452.5C 1709.85,1451.97 1704.18,1451.63 1698.5,1451.5C 1698.5,1449.5 1698.5,1447.5 1698.5,1445.5C 1693.17,1445.17 1687.83,1444.83 1682.5,1444.5C 1683.27,1449.89 1680.94,1451.89 1675.5,1450.5C 1660.46,1449.67 1645.46,1448.67 1630.5,1447.5C 1629.53,1449.4 1629.2,1451.4 1629.5,1453.5C 1625.5,1453.5 1621.5,1453.5 1617.5,1453.5C 1617.5,1455.5 1617.5,1457.5 1617.5,1459.5C 1613.85,1458.72 1610.19,1458.55 1606.5,1459C 1605.59,1460.7 1605.26,1462.53 1605.5,1464.5C 1599.82,1464.37 1594.15,1464.03 1588.5,1463.5C 1588.5,1465.5 1588.5,1467.5 1588.5,1469.5C 1582.46,1469.64 1576.46,1469.31 1570.5,1468.5C 1570.5,1470.5 1570.5,1472.5 1570.5,1474.5C 1564.46,1474.64 1558.46,1474.31 1552.5,1473.5C 1552.5,1471.5 1552.5,1469.5 1552.5,1467.5C 1550.5,1467.5 1548.5,1467.5 1546.5,1467.5C 1546.5,1465.5 1546.5,1463.5 1546.5,1461.5C 1544.83,1461.5 1543.17,1461.5 1541.5,1461.5C 1541.5,1457.5 1541.5,1453.5 1541.5,1449.5C 1535.87,1448.71 1530.2,1448.37 1524.5,1448.5C 1524.5,1446.5 1524.5,1444.5 1524.5,1442.5C 1517.2,1441.7 1509.86,1441.36 1502.5,1441.5C 1502.8,1443.6 1502.47,1445.6 1501.5,1447.5C 1496.22,1446.38 1490.89,1446.22 1485.5,1447C 1484.59,1448.7 1484.26,1450.53 1484.5,1452.5C 1482.19,1452.01 1479.86,1451.67 1477.5,1451.5C 1478.27,1447.55 1478.61,1443.55 1478.5,1439.5C 1476.5,1439.5 1474.5,1439.5 1472.5,1439.5C 1472.36,1437.74 1472.69,1436.07 1473.5,1434.5C 1471.6,1433.53 1469.6,1433.2 1467.5,1433.5C 1467.5,1431.5 1467.5,1429.5 1467.5,1427.5C 1463.86,1426.89 1460.2,1426.55 1456.5,1426.5C 1456.5,1424.5 1456.5,1422.5 1456.5,1420.5C 1446.84,1419.97 1437.17,1419.64 1427.5,1419.5C 1427.5,1417.17 1427.5,1414.83 1427.5,1412.5C 1423.83,1412.5 1420.17,1412.5 1416.5,1412.5C 1416.5,1410.5 1416.5,1408.5 1416.5,1406.5C 1412.8,1406.45 1409.14,1406.11 1405.5,1405.5C 1405.5,1403.5 1405.5,1401.5 1405.5,1399.5C 1403.5,1399.5 1401.5,1399.5 1399.5,1399.5C 1399.26,1397.53 1399.59,1395.7 1400.5,1394C 1396.47,1393.61 1392.47,1393.11 1388.5,1392.5C 1388.5,1390.5 1388.5,1388.5 1388.5,1386.5C 1385.17,1386.5 1381.83,1386.5 1378.5,1386.5C 1379.51,1391.67 1377.67,1393.33 1373,1391.5C 1372.19,1393.44 1371.69,1395.44 1371.5,1397.5C 1369.53,1397.26 1367.7,1397.59 1366,1398.5C 1365.5,1402.15 1365.33,1405.82 1365.5,1409.5C 1355.84,1409.02 1346.17,1408.52 1336.5,1408C 1335.58,1403.9 1335.58,1399.73 1336.5,1395.5C 1334.5,1395.5 1332.5,1395.5 1330.5,1395.5C 1330.37,1391.12 1330.71,1386.79 1331.5,1382.5C 1333.5,1382.5 1335.5,1382.5 1337.5,1382.5C 1337.5,1378.83 1337.5,1375.17 1337.5,1371.5C 1339.5,1371.5 1341.5,1371.5 1343.5,1371.5C 1343.5,1369.83 1343.5,1368.17 1343.5,1366.5C 1341.83,1366.5 1340.17,1366.5 1338.5,1366.5C 1338.8,1362.23 1338.46,1358.07 1337.5,1354C 1328.17,1353.4 1318.83,1352.9 1309.5,1352.5C 1309.83,1350.5 1310.17,1348.5 1310.5,1346.5C 1289.14,1345.31 1267.81,1343.98 1246.5,1342.5C 1246.26,1340.53 1246.59,1338.7 1247.5,1337C 1084.14,1327.5 920.809,1317.67 757.5,1307.5C 757.5,1305.5 757.5,1303.5 757.5,1301.5C 727.158,1299.59 696.824,1297.59 666.5,1295.5C 666.5,1297.5 666.5,1299.5 666.5,1301.5C 662.76,1301.76 659.094,1301.43 655.5,1300.5C 654.534,1302.4 654.201,1304.4 654.5,1306.5C 650.5,1306.5 646.5,1306.5 642.5,1306.5C 642.5,1308.5 642.5,1310.5 642.5,1312.5C 640.5,1312.17 638.5,1311.83 636.5,1311.5C 636.5,1313.5 636.5,1315.5 636.5,1317.5C 632.5,1317.5 628.5,1317.5 624.5,1317.5C 624.662,1319.53 624.495,1321.53 624,1323.5C 622.301,1322.59 620.467,1322.26 618.5,1322.5C 618.5,1324.5 618.5,1326.5 618.5,1328.5C 614.5,1328.5 610.5,1328.5 606.5,1328.5C 606.5,1330.17 606.5,1331.83 606.5,1333.5C 604.5,1333.5 602.5,1333.5 600.5,1333.5C 600.5,1335.5 600.5,1337.5 600.5,1339.5C 596.76,1339.76 593.094,1339.43 589.5,1338.5C 588.534,1340.4 588.201,1342.4 588.5,1344.5C 584.5,1344.5 580.5,1344.5 576.5,1344.5C 576.799,1346.6 576.466,1348.6 575.5,1350.5C 571.906,1349.57 568.24,1349.24 564.5,1349.5C 564.5,1351.5 564.5,1353.5 564.5,1355.5C 558.855,1354.87 553.189,1354.53 547.5,1354.5C 547.868,1357.06 547.034,1359.06 545,1360.5C 541.895,1359.63 538.728,1359.3 535.5,1359.5C 535.5,1361.5 535.5,1363.5 535.5,1365.5C 531.466,1365.5 527.466,1365.16 523.5,1364.5C 523.5,1366.5 523.5,1368.5 523.5,1370.5C 505.825,1369.63 488.159,1368.63 470.5,1367.5C 470.5,1365.5 470.5,1363.5 470.5,1361.5C 461.19,1360.61 451.856,1359.95 442.5,1359.5C 442.5,1361.5 442.5,1363.5 442.5,1365.5C 436.509,1365.03 430.509,1364.7 424.5,1364.5C 424.5,1362.5 424.5,1360.5 424.5,1358.5C 418.879,1357.65 413.212,1357.31 407.5,1357.5C 407.917,1354.92 407.25,1352.75 405.5,1351C 387.5,1349.77 369.5,1348.6 351.5,1347.5C 351.739,1349.47 351.406,1351.3 350.5,1353C 346.871,1352.89 343.204,1352.72 339.5,1352.5C 339.5,1354.5 339.5,1356.5 339.5,1358.5C 335.452,1358.61 331.452,1358.27 327.5,1357.5C 327.5,1359.5 327.5,1361.5 327.5,1363.5C 323.5,1363.5 319.5,1363.5 315.5,1363.5C 315.5,1365.17 315.5,1366.83 315.5,1368.5C 311.5,1368.5 307.5,1368.5 303.5,1368.5C 303.5,1370.5 303.5,1372.5 303.5,1374.5C 297.855,1373.61 292.188,1373.45 286.5,1374C 285.751,1375.73 285.251,1377.57 285,1379.5C 275.591,1378.28 266.091,1377.62 256.5,1377.5C 256.5,1379.5 256.5,1381.5 256.5,1383.5C 254.194,1383.01 251.861,1382.67 249.5,1382.5C 249.261,1380.53 249.594,1378.7 250.5,1377C 233.523,1375.45 216.523,1374.29 199.5,1373.5C 199.5,1375.5 199.5,1377.5 199.5,1379.5C 197.738,1379.64 196.071,1379.31 194.5,1378.5C 194.417,1383.86 191.75,1385.86 186.5,1384.5C 186.5,1382.5 186.5,1380.5 186.5,1378.5C 184.5,1378.5 182.5,1378.5 180.5,1378.5C 181.08,1374.19 181.414,1369.86 181.5,1365.5C 179.396,1365.8 177.396,1365.47 175.5,1364.5C 176.309,1362.93 176.643,1361.26 176.5,1359.5C 174.5,1359.5 172.5,1359.5 170.5,1359.5C 170.646,1355.48 170.979,1351.48 171.5,1347.5C 169.5,1347.17 167.5,1346.83 165.5,1346.5C 166.127,1340.86 166.627,1335.19 167,1329.5C 168.53,1328.08 170.363,1327.08 172.5,1326.5C 173.417,1323.24 173.751,1319.91 173.5,1316.5C 175.5,1316.5 177.5,1316.5 179.5,1316.5C 179.5,1314.5 179.5,1312.5 179.5,1310.5C 183.548,1310.39 187.548,1310.73 191.5,1311.5C 191.5,1309.83 191.5,1308.17 191.5,1306.5C 187.865,1305.89 184.198,1305.55 180.5,1305.5C 180.207,1301.56 180.54,1297.73 181.5,1294C 179.527,1293.5 177.527,1293.34 175.5,1293.5C 176.833,1273.17 178.167,1252.83 179.5,1232.5C 181.5,1232.5 183.5,1232.5 185.5,1232.5C 185.5,1230.83 185.5,1229.17 185.5,1227.5C 183.856,1227.71 182.356,1227.38 181,1226.5C 180.487,1220.13 180.821,1213.8 182,1207.5C 183.699,1208.41 185.533,1208.74 187.5,1208.5C 187.395,1204.45 187.728,1200.45 188.5,1196.5C 190.467,1196.74 192.301,1196.41 194,1195.5C 195.322,1175.81 196.822,1156.15 198.5,1136.5C 200.5,1136.5 202.5,1136.5 204.5,1136.5C 204.335,1132.82 204.501,1129.15 205,1125.5C 206.626,1125.15 208.459,1125.15 210.5,1125.5C 211.272,1121.55 211.605,1117.55 211.5,1113.5C 219.154,1114.07 226.821,1114.4 234.5,1114.5C 234.181,1112.25 234.681,1110.25 236,1108.5C 300.764,1113.45 365.598,1118.12 430.5,1122.5C 430.5,1124.5 430.5,1126.5 430.5,1128.5C 451.163,1129.88 471.83,1131.21 492.5,1132.5C 493.928,1112.51 495.261,1092.51 496.5,1072.5C 506.167,1073.17 515.833,1073.83 525.5,1074.5C 525.5,1072.5 525.5,1070.5 525.5,1068.5C 546.492,1070.09 567.492,1071.26 588.5,1072C 589.406,1070.3 589.739,1068.47 589.5,1066.5C 605.133,1067.9 620.8,1068.9 636.5,1069.5C 636.167,1071.5 635.833,1073.5 635.5,1075.5C 639.154,1075.94 642.821,1076.28 646.5,1076.5C 646.5,1074.5 646.5,1072.5 646.5,1070.5C 654.15,1071.14 661.817,1071.48 669.5,1071.5C 669.5,1069.83 669.5,1068.17 669.5,1066.5C 671.5,1066.5 673.5,1066.5 675.5,1066.5C 675.833,1064.5 676.167,1062.5 676.5,1060.5C 678.467,1060.74 680.301,1060.41 682,1059.5C 682.499,1055.85 682.665,1052.18 682.5,1048.5C 684.262,1048.36 685.929,1048.69 687.5,1049.5C 689.256,1039.59 690.256,1029.59 690.5,1019.5C 692.5,1019.5 694.5,1019.5 696.5,1019.5C 696.5,1017.5 696.5,1015.5 696.5,1013.5C 698.5,1013.5 700.5,1013.5 702.5,1013.5C 702.5,1011.5 702.5,1009.5 702.5,1007.5C 704.262,1007.36 705.929,1007.69 707.5,1008.5C 708.23,1006.66 708.897,1004.83 709.5,1003C 713.486,1002.5 717.486,1002.33 721.5,1002.5C 721.5,1004.83 721.5,1007.17 721.5,1009.5C 723.167,1009.5 724.833,1009.5 726.5,1009.5C 726.5,1011.5 726.5,1013.5 726.5,1015.5C 728.604,1015.2 730.604,1015.53 732.5,1016.5C 731.691,1018.07 731.357,1019.74 731.5,1021.5C 737.158,1020.68 738.825,1022.85 736.5,1028C 738.473,1028.5 740.473,1028.66 742.5,1028.5C 742.5,1030.5 742.5,1032.5 742.5,1034.5C 746.198,1034.55 749.865,1034.89 753.5,1035.5C 753.5,1037.5 753.5,1039.5 753.5,1041.5C 757.167,1041.5 760.833,1041.5 764.5,1041.5C 764.244,1043.79 764.577,1045.96 765.5,1048C 768.817,1048.5 772.15,1048.67 775.5,1048.5C 775.5,1050.5 775.5,1052.5 775.5,1054.5C 783.183,1055.08 790.849,1055.75 798.5,1056.5C 798.739,1058.47 798.406,1060.3 797.5,1062C 805.165,1062.6 812.832,1063.1 820.5,1063.5C 820.5,1065.5 820.5,1067.5 820.5,1069.5C 822.5,1069.5 824.5,1069.5 826.5,1069.5C 824.193,1074.54 825.86,1076.87 831.5,1076.5C 831.5,1078.5 831.5,1080.5 831.5,1082.5C 833.167,1082.5 834.833,1082.5 836.5,1082.5C 836.5,1084.5 836.5,1086.5 836.5,1088.5C 842.145,1089.13 847.811,1089.47 853.5,1089.5C 853.5,1091.5 853.5,1093.5 853.5,1095.5C 866.856,1096.33 880.189,1097.33 893.5,1098.5C 893.5,1100.5 893.5,1102.5 893.5,1104.5C 895.167,1104.5 896.833,1104.5 898.5,1104.5C 898.5,1106.5 898.5,1108.5 898.5,1110.5C 902.215,1110.42 905.881,1110.76 909.5,1111.5C 909.5,1113.5 909.5,1115.5 909.5,1117.5C 913.182,1117.33 916.848,1117.5 920.5,1118C 920.421,1119.91 920.754,1121.91 921.5,1124C 925.152,1124.5 928.818,1124.67 932.5,1124.5C 932.643,1126.26 932.309,1127.93 931.5,1129.5C 938.727,1131.08 946.06,1131.91 953.5,1132C 954.423,1134.04 954.756,1136.21 954.5,1138.5C 969.504,1139.09 984.504,1139.76 999.5,1140.5C 999.5,1138.5 999.5,1136.5 999.5,1134.5C 1003.45,1135.27 1007.45,1135.61 1011.5,1135.5C 1011.5,1133.5 1011.5,1131.5 1011.5,1129.5C 1015.53,1129.5 1019.53,1129.84 1023.5,1130.5C 1023.5,1128.5 1023.5,1126.5 1023.5,1124.5C 1029.2,1124.45 1034.86,1124.78 1040.5,1125.5C 1040.83,1123.5 1041.17,1121.5 1041.5,1119.5C 1052.85,1120 1064.18,1120.67 1075.5,1121.5C 1075.5,1119.5 1075.5,1117.5 1075.5,1115.5C 1085.08,1115.76 1094.58,1116.43 1104,1117.5C 1103.93,1113.12 1106.1,1110.79 1110.5,1110.5C 1111.31,1108.93 1111.64,1107.26 1111.5,1105.5C 1113.5,1105.5 1115.5,1105.5 1117.5,1105.5C 1117.18,1101.45 1117.51,1097.45 1118.5,1093.5C 1120.07,1094.31 1121.74,1094.64 1123.5,1094.5C 1123.55,1090.8 1123.89,1087.14 1124.5,1083.5C 1122.74,1083.64 1121.07,1083.31 1119.5,1082.5C 1118.82,1078.55 1118.82,1074.55 1119.5,1070.5C 1117.5,1070.5 1115.5,1070.5 1113.5,1070.5C 1113.5,1068.5 1113.5,1066.5 1113.5,1064.5C 1111.83,1064.5 1110.17,1064.5 1108.5,1064.5C 1108.5,1062.5 1108.5,1060.5 1108.5,1058.5C 1103.04,1058.81 1101.37,1056.47 1103.5,1051.5C 1101.5,1051.5 1099.5,1051.5 1097.5,1051.5C 1097.5,1049.5 1097.5,1047.5 1097.5,1045.5C 1095.83,1045.5 1094.17,1045.5 1092.5,1045.5C 1092.5,1043.5 1092.5,1041.5 1092.5,1039.5C 1087.04,1039.81 1085.37,1037.47 1087.5,1032.5C 1076.25,1032.37 1065.08,1031.7 1054,1030.5C 1053.5,1032.47 1053.34,1034.47 1053.5,1036.5C 1045.82,1036.4 1038.15,1036.07 1030.5,1035.5C 1030.5,1037.5 1030.5,1039.5 1030.5,1041.5C 1024.5,1041.17 1018.5,1040.83 1012.5,1040.5C 1012.5,1042.5 1012.5,1044.5 1012.5,1046.5C 1008.48,1046.35 1004.48,1046.02 1000.5,1045.5C 1000.5,1047.5 1000.5,1049.5 1000.5,1051.5C 998.5,1051.5 996.5,1051.5 994.5,1051.5C 994.5,1053.5 994.5,1055.5 994.5,1057.5C 990.519,1056.98 986.519,1056.65 982.5,1056.5C 982.5,1058.5 982.5,1060.5 982.5,1062.5C 976.828,1062.24 971.161,1061.91 965.5,1061.5C 965.167,1063.5 964.833,1065.5 964.5,1067.5C 960.452,1067.61 956.452,1067.27 952.5,1066.5C 952.5,1064.5 952.5,1062.5 952.5,1060.5C 948.833,1060.5 945.167,1060.5 941.5,1060.5C 941.756,1058.21 941.423,1056.04 940.5,1054C 937.183,1053.5 933.85,1053.33 930.5,1053.5C 930.5,1051.5 930.5,1049.5 930.5,1047.5C 928.5,1047.5 926.5,1047.5 924.5,1047.5C 926.949,1042.16 925.282,1039.83 919.5,1040.5C 919.5,1038.5 919.5,1036.5 919.5,1034.5C 917.833,1034.5 916.167,1034.5 914.5,1034.5C 914.502,1028.48 914.835,1022.48 915.5,1016.5C 913.533,1016.74 911.699,1016.41 910,1015.5C 910.354,1011.6 910.187,1007.77 909.5,1004C 906.183,1003.5 902.85,1003.33 899.5,1003.5C 899.5,1001.5 899.5,999.5 899.5,997.5C 895.846,997.058 892.179,996.724 888.5,996.5C 888.5,994.5 888.5,992.5 888.5,990.5C 881.173,990.056 873.84,989.723 866.5,989.5C 866.739,991.467 866.406,993.301 865.5,995C 861.891,994.762 858.225,994.595 854.5,994.5C 854.5,996.5 854.5,998.5 854.5,1000.5C 852.5,1000.5 850.5,1000.5 848.5,1000.5C 848.949,1002.98 848.283,1004.98 846.5,1006.5C 842.906,1005.57 839.24,1005.24 835.5,1005.5C 835.5,1003.5 835.5,1001.5 835.5,999.5C 831.821,999.276 828.154,998.942 824.5,998.5C 824.5,996.5 824.5,994.5 824.5,992.5C 822.833,992.5 821.167,992.5 819.5,992.5C 819.425,986.471 819.759,980.471 820.5,974.5C 817.383,975.073 815.383,973.906 814.5,971C 815.256,967.875 815.589,964.709 815.5,961.5C 813.5,961.5 811.5,961.5 809.5,961.5C 809.833,959.5 810.167,957.5 810.5,955.5C 808.5,955.5 806.5,955.5 804.5,955.5C 804.799,953.396 804.466,951.396 803.5,949.5C 800.242,948.583 796.909,948.249 793.5,948.5C 793.5,946.5 793.5,944.5 793.5,942.5C 786.174,941.978 778.841,941.478 771.5,941C 771.014,938.973 771.014,936.807 771.5,934.5C 754.473,933.873 737.473,932.873 720.5,931.5C 720.5,933.5 720.5,935.5 720.5,937.5C 714.811,937.468 709.145,937.134 703.5,936.5C 703.167,938.5 702.833,940.5 702.5,942.5C 697.728,941.603 695.395,943.603 695.5,948.5C 692.242,947.583 688.909,947.249 685.5,947.5C 685.167,949.5 684.833,951.5 684.5,953.5C 682.5,953.5 680.5,953.5 678.5,953.5C 678.5,951.167 678.5,948.833 678.5,946.5C 676.5,946.5 674.5,946.5 672.5,946.5C 672.357,944.738 672.691,943.071 673.5,941.5C 669.826,940.767 666.159,940.101 662.5,939.5C 661.319,937.865 661.319,936.198 662.5,934.5C 658.893,933.511 655.226,933.177 651.5,933.5C 651.5,935.5 651.5,937.5 651.5,939.5C 647.548,938.728 643.548,938.395 639.5,938.5C 639.5,940.5 639.5,942.5 639.5,944.5C 637.5,944.5 635.5,944.5 633.5,944.5C 633.5,946.167 633.5,947.833 633.5,949.5C 629.5,949.5 625.5,949.5 621.5,949.5C 621.665,952.85 621.498,956.183 621,959.5C 619.688,961.658 618.022,961.991 616,960.5C 615.187,962.436 614.687,964.436 614.5,966.5C 612.5,966.5 610.5,966.5 608.5,966.5C 608.64,972.536 608.307,978.536 607.5,984.5C 605.5,984.5 603.5,984.5 601.5,984.5C 601.5,988.5 601.5,992.5 601.5,996.5C 488.534,988.524 375.534,980.858 262.5,973.5C 262.5,971.167 262.5,968.833 262.5,966.5C 260.833,966.5 259.167,966.5 257.5,966.5C 257.241,962.76 257.574,959.094 258.5,955.5C 256.604,954.534 254.604,954.201 252.5,954.5C 253.315,950.167 251.648,947.834 247.5,947.5C 247.963,937.152 248.629,926.819 249.5,916.5C 251.467,916.261 253.301,916.594 255,917.5C 255.392,913.472 255.892,909.472 256.5,905.5C 261.5,906.5 263.5,904.5 262.5,899.5C 264.5,899.5 266.5,899.5 268.5,899.5C 268.5,897.833 268.5,896.167 268.5,894.5C 265.102,894.18 261.768,894.513 258.5,895.5C 257.691,897.071 257.357,898.738 257.5,900.5C 255.5,900.167 253.5,899.833 251.5,899.5C 251.5,901.5 251.5,903.5 251.5,905.5C 247.5,905.5 243.5,905.5 239.5,905.5C 239.5,907.167 239.5,908.833 239.5,910.5C 235.5,910.5 231.5,910.5 227.5,910.5C 228.86,905.25 226.86,902.583 221.5,902.5C 222.268,896.854 222.935,891.187 223.5,885.5C 221.5,885.5 219.5,885.5 217.5,885.5C 218.449,873.163 219.449,860.829 220.5,848.5C 222.5,848.5 224.5,848.5 226.5,848.5C 226.5,846.5 226.5,844.5 226.5,842.5C 234.512,843.072 242.512,843.739 250.5,844.5C 250.5,846.5 250.5,848.5 250.5,850.5C 253.833,850.5 257.167,850.5 260.5,850.5C 260.5,848.833 260.5,847.167 260.5,845.5C 264.5,845.5 268.5,845.5 272.5,845.5C 272.234,841.395 272.734,837.395 274,833.5C 275.494,834.747 276.994,834.747 278.5,833.5C 279.417,830.242 279.751,826.909 279.5,823.5C 278.178,823.67 277.011,823.337 276,822.5C 275.187,824.436 274.687,826.436 274.5,828.5C 272.5,828.5 270.5,828.5 268.5,828.5C 268.5,830.5 268.5,832.5 268.5,834.5C 266.5,834.5 264.5,834.5 262.5,834.5C 262.662,836.527 262.495,838.527 262,840.5C 246.559,839.004 231.059,837.67 215.5,836.5C 215.261,834.533 215.594,832.699 216.5,831C 214.527,830.505 212.527,830.338 210.5,830.5C 210.946,822.476 211.613,814.476 212.5,806.5C 210.533,806.739 208.699,806.406 207,805.5C 207.017,801.525 207.184,797.525 207.5,793.5C 205.396,793.799 203.396,793.466 201.5,792.5C 202.309,790.929 202.643,789.262 202.5,787.5C 200.5,787.5 198.5,787.5 196.5,787.5C 196.5,785.167 196.5,782.833 196.5,780.5C 192.833,780.5 189.167,780.5 185.5,780.5C 185.99,774.605 186.657,768.771 187.5,763C 185.564,762.187 183.564,761.687 181.5,761.5C 182.074,755.516 182.407,749.516 182.5,743.5C 180.833,743.5 179.167,743.5 177.5,743.5C 177.241,739.76 177.574,736.094 178.5,732.5C 176.922,731.702 175.256,731.202 173.5,731C 172.892,729.769 172.559,728.436 172.5,727C 173.285,722.197 173.618,717.363 173.5,712.5C 171.833,712.5 170.167,712.5 168.5,712.5C 168.5,710.5 168.5,708.5 168.5,706.5C 166.833,706.5 165.167,706.5 163.5,706.5C 164.86,701.25 162.86,698.583 157.5,698.5C 158.309,696.929 158.643,695.262 158.5,693.5C 155.091,693.751 151.758,693.417 148.5,692.5C 147.534,690.604 147.201,688.604 147.5,686.5C 143.833,686.5 140.167,686.5 136.5,686.5C 136.5,684.167 136.5,681.833 136.5,679.5C 134.396,679.799 132.396,679.466 130.5,678.5C 131.331,672.865 131.998,667.199 132.5,661.5C 130.5,661.5 128.5,661.5 126.5,661.5C 127.004,657.493 127.17,653.493 127,649.5C 123.606,648.544 120.106,648.211 116.5,648.5C 116.436,643.807 116.769,639.141 117.5,634.5C 117.801,630.823 116.134,629.157 112.5,629.5C 112.5,625.5 112.5,621.5 112.5,617.5C 110.833,617.5 109.167,617.5 107.5,617.5C 107.5,615.5 107.5,613.5 107.5,611.5C 103.846,611.058 100.179,610.724 96.5,610.5C 96.5,608.5 96.5,606.5 96.5,604.5C 92.8212,604.276 89.1545,603.942 85.5,603.5C 85.2606,601.533 85.5939,599.699 86.5,598C 82.4724,597.608 78.4724,597.108 74.5,596.5C 74.8333,594.5 75.1667,592.5 75.5,590.5C 69.8044,590.553 64.1377,590.22 58.5,589.5C 58.5,587.5 58.5,585.5 58.5,583.5C 51.587,583.162 44.7537,582.495 38,581.5C 36.6814,583.25 36.1814,585.25 36.5,587.5C 34.5,587.5 32.5,587.5 30.5,587.5C 30.1667,593.5 29.8333,599.5 29.5,605.5C 25.1234,605.423 20.7901,604.923 16.5,604C 17.4061,602.301 17.7394,600.467 17.5,598.5C 15.5,598.5 13.5,598.5 11.5,598.5C 13.8071,593.463 12.1405,591.129 6.5,591.5C 7.02087,587.519 7.3542,583.519 7.5,579.5C 1.51215,580.184 -0.154514,577.85 2.5,572.5C 10.1585,572.986 17.8252,573.32 25.5,573.5C 25.3379,571.473 25.5045,569.473 26,567.5C 33.4127,568.596 40.9127,569.263 48.5,569.5C 48.5,567.5 48.5,565.5 48.5,563.5C 54.477,564.165 60.477,564.498 66.5,564.5C 66.0761,560.297 66.5761,556.297 68,552.5C 71.3936,553.456 74.8936,553.789 78.5,553.5C 78.5,551.5 78.5,549.5 78.5,547.5C 84.1766,548.557 89.8433,548.557 95.5,547.5C 96.2458,546.264 96.5792,544.93 96.5,543.5C 100.167,543.5 103.833,543.5 107.5,543.5C 107.132,540.944 107.966,538.944 110,537.5C 113.105,538.367 116.272,538.701 119.5,538.5C 119.025,535.677 120.025,533.677 122.5,532.5C 125.449,533.302 128.449,533.636 131.5,533.5C 131.833,529.5 132.167,525.5 132.5,521.5C 134.5,521.5 136.5,521.5 138.5,521.5C 138.201,519.396 138.534,517.396 139.5,515.5C 141.071,516.309 142.738,516.643 144.5,516.5C 144.5,514.5 144.5,512.5 144.5,510.5C 146.5,510.5 148.5,510.5 150.5,510.5C 151.021,506.519 151.354,502.519 151.5,498.5C 153.5,498.833 155.5,499.167 157.5,499.5C 157.5,497.5 157.5,495.5 157.5,493.5C 159.5,493.5 161.5,493.5 163.5,493.5C 163.5,491.5 163.5,489.5 163.5,487.5C 165.5,487.5 167.5,487.5 169.5,487.5C 169.199,483.381 171.199,481.381 175.5,481.5C 176.309,479.929 176.643,478.262 176.5,476.5C 178.5,476.5 180.5,476.5 182.5,476.5C 182.5,474.5 182.5,472.5 182.5,470.5C 184.5,470.833 186.5,471.167 188.5,471.5C 188.335,468.15 188.502,464.817 189,461.5C 190.53,460.08 192.363,459.08 194.5,458.5C 195.309,456.929 195.643,455.262 195.5,453.5C 197.5,453.5 199.5,453.5 201.5,453.5C 201.5,451.833 201.5,450.167 201.5,448.5C 203.5,448.5 205.5,448.5 207.5,448.5C 207.5,446.5 207.5,444.5 207.5,442.5C 209.5,442.5 211.5,442.5 213.5,442.5C 213.33,438.355 213.997,434.355 215.5,430.5C 217.071,431.309 218.738,431.643 220.5,431.5C 220.335,427.818 220.501,424.152 221,420.5C 222.825,419.897 224.659,419.23 226.5,418.5C 227.426,414.906 227.759,411.24 227.5,407.5C 229.467,407.261 231.301,407.594 233,408.5C 233.495,406.527 233.662,404.527 233.5,402.5C 235.5,402.5 237.5,402.5 239.5,402.5C 240.162,398.534 240.495,394.534 240.5,390.5C 242.5,390.5 244.5,390.5 246.5,390.5C 246.189,386.32 246.855,382.32 248.5,378.5C 250.071,379.309 251.738,379.643 253.5,379.5C 253.335,375.818 253.501,372.152 254,368.5C 255.825,367.897 257.659,367.23 259.5,366.5C 260.015,364.775 260.682,363.108 261.5,361.5C 265.485,362.652 267.152,360.985 266.5,356.5C 268.5,356.5 270.5,356.5 272.5,356.5C 272.5,354.5 272.5,352.5 272.5,350.5C 274.467,350.261 276.301,350.594 278,351.5C 278.238,347.778 278.738,344.111 279.5,340.5C 281.396,339.534 283.396,339.201 285.5,339.5C 285.5,337.5 285.5,335.5 285.5,333.5C 287.5,333.5 289.5,333.5 291.5,333.5C 291.146,329.363 291.646,325.363 293,321.5C 295.022,322.991 296.688,322.658 298,320.5C 298.498,317.183 298.665,313.85 298.5,310.5C 300.5,310.5 302.5,310.5 304.5,310.5C 304.5,308.5 304.5,306.5 304.5,304.5C 306.467,304.261 308.301,304.594 310,305.5C 311.156,301.582 311.656,297.582 311.5,293.5C 313.5,293.5 315.5,293.5 317.5,293.5C 317.5,291.5 317.5,289.5 317.5,287.5C 319.5,287.5 321.5,287.5 323.5,287.5C 323.701,283.426 324.368,279.426 325.5,275.5C 327.071,276.309 328.738,276.643 330.5,276.5C 330.505,272.466 330.838,268.466 331.5,264.5C 333.5,264.5 335.5,264.5 337.5,264.5C 337.5,262.833 337.5,261.167 337.5,259.5C 335.5,259.5 333.5,259.5 331.5,259.5C 332.559,249.18 333.559,238.847 334.5,228.5C 336.5,228.5 338.5,228.5 340.5,228.5C 341.335,213.147 342.502,197.813 344,182.5C 345.054,180.246 346.554,179.913 348.5,181.5C 349.192,180.975 349.692,180.308 350,179.5C 350.832,172.185 351.332,164.852 351.5,157.5C 353.5,157.5 355.5,157.5 357.5,157.5C 356.603,152.728 358.603,150.395 363.5,150.5C 364.246,149.264 364.579,147.93 364.5,146.5C 369.5,147.5 371.5,145.5 370.5,140.5C 372.5,140.5 374.5,140.5 376.5,140.5C 376.338,138.473 376.505,136.473 377,134.5C 378.699,135.406 380.533,135.739 382.5,135.5C 382.5,133.5 382.5,131.5 382.5,129.5C 384.5,129.5 386.5,129.5 388.5,129.5C 388.5,127.5 388.5,125.5 388.5,123.5C 390.262,123.357 391.929,123.691 393.5,124.5C 395.003,120.645 395.67,116.645 395.5,112.5C 397.5,112.5 399.5,112.5 401.5,112.5C 402.347,102.513 403.014,92.5129 403.5,82.5C 405.5,82.5 407.5,82.5 409.5,82.5C 410.167,74.8333 410.833,67.1667 411.5,59.5C 413.5,59.5 415.5,59.5 417.5,59.5C 417.395,55.4517 417.728,51.4517 418.5,47.5C 420.467,47.7394 422.301,47.4061 424,46.5C 424.499,42.8484 424.665,39.1817 424.5,35.5C 426.5,35.8333 428.5,36.1667 430.5,36.5C 430.357,34.7376 430.691,33.0709 431.5,31.5C 435.107,30.5108 438.774,30.1774 442.5,30.5C 442.5,28.8333 442.5,27.1667 442.5,25.5C 450.175,25.6802 457.842,26.0135 465.5,26.5C 465.025,23.6773 466.025,21.6773 468.5,20.5C 475.487,21.3086 482.487,21.9752 489.5,22.5C 489.495,26.5341 489.162,30.5341 488.5,34.5C 490.5,34.5 492.5,34.5 494.5,34.5C 492.193,39.5372 493.86,41.8706 499.5,41.5C 499.739,43.4672 499.406,45.3005 498.5,47C 503.023,47.3202 507.523,47.8202 512,48.5C 514.906,47.6167 516.073,45.6167 515.5,42.5C 524.838,43.1157 534.171,43.7824 543.5,44.5C 542.508,40.4301 544.008,38.4301 548,38.5C 552.863,38.9572 557.697,39.6239 562.5,40.5C 561.691,42.0709 561.357,43.7376 561.5,45.5C 572.144,46.4747 582.811,47.308 593.5,48C 595.25,49.7542 595.917,51.9208 595.5,54.5C 605.023,54.8112 614.523,55.4778 624,56.5C 627.992,56.5699 629.492,54.5699 628.5,50.5C 634.152,51.0318 639.819,51.3651 645.5,51.5C 645.5,49.5 645.5,47.5 645.5,45.5C 649.466,46.1621 653.466,46.4955 657.5,46.5C 657.5,44.5 657.5,42.5 657.5,40.5C 659.5,40.5 661.5,40.5 663.5,40.5C 663.338,38.4727 663.505,36.4727 664,34.5C 667.73,35.4601 671.563,35.7935 675.5,35.5C 675.5,33.5 675.5,31.5 675.5,29.5C 689.137,30.736 702.803,31.736 716.5,32.5C 716.643,34.2624 716.309,35.9291 715.5,37.5C 728.418,39.4471 741.418,40.7804 754.5,41.5C 754.5,39.5 754.5,37.5 754.5,35.5C 760.189,35.5324 765.855,35.8658 771.5,36.5C 771.357,34.7376 771.691,33.0709 772.5,31.5C 779.804,31.5153 787.138,31.182 794.5,30.5C 795.246,29.2638 795.579,27.9305 795.5,26.5C 799.167,26.5 802.833,26.5 806.5,26.5C 806.247,24.1727 806.914,22.1727 808.5,20.5C 811.758,21.4173 815.091,21.7507 818.5,21.5C 818.5,19.5 818.5,17.5 818.5,15.5C 820.5,15.5 822.5,15.5 824.5,15.5C 824.5,13.8333 824.5,12.1667 824.5,10.5C 826.5,10.5 828.5,10.5 830.5,10.5C 830.833,8.5 831.167,6.5 831.5,4.5 Z M 312.5,789.5 C 323.497,790.214 334.497,790.881 345.5,791.5C 345.5,793.167 345.5,794.833 345.5,796.5C 339.491,796.299 333.491,795.966 327.5,795.5C 327.5,797.5 327.5,799.5 327.5,801.5C 323.815,801.105 320.148,800.938 316.5,801C 315.594,802.699 315.261,804.533 315.5,806.5C 309.828,806.24 304.161,805.907 298.5,805.5C 299.575,809.938 297.908,811.938 293.5,811.5C 293.335,808.15 293.502,804.817 294,801.5C 298.661,801.39 300.827,799.056 300.5,794.5C 304.179,794.724 307.846,795.058 311.5,795.5C 311.517,793.435 311.85,791.435 312.5,789.5 Z M 287.5,811.5 C 292.691,811.187 293.857,813.187 291,817.5C 289.989,816.663 288.822,816.33 287.5,816.5C 287.5,814.833 287.5,813.167 287.5,811.5 Z M 281.5,817.5 C 282.833,817.5 284.167,817.5 285.5,817.5C 285.5,819.167 285.5,820.833 285.5,822.5C 283.801,822.66 282.134,822.494 280.5,822C 281.38,820.644 281.714,819.144 281.5,817.5 Z M 295.5,860.5 C 296.833,860.5 298.167,860.5 299.5,860.5C 299.241,870.202 298.574,879.869 297.5,889.5C 295.5,889.5 293.5,889.5 291.5,889.5C 291.5,891.5 291.5,893.5 291.5,895.5C 284.512,894.934 277.512,894.434 270.5,894C 269.62,892.644 269.286,891.144 269.5,889.5C 271.5,889.5 273.5,889.5 275.5,889.5C 275.173,884.944 277.339,882.61 282,882.5C 282.494,880.866 282.66,879.199 282.5,877.5C 287.368,879.645 289.368,877.979 288.5,872.5C 290.5,872.5 292.5,872.5 294.5,872.5C 294.307,868.434 294.64,864.434 295.5,860.5 Z M 231.5,1242.5 C 233.167,1242.5 234.833,1242.5 236.5,1242.5C 236.533,1246.87 236.2,1251.2 235.5,1255.5C 237.5,1255.5 239.5,1255.5 241.5,1255.5C 240.835,1261.48 240.502,1267.48 240.5,1273.5C 242.167,1273.5 243.833,1273.5 245.5,1273.5C 245.201,1275.6 245.534,1277.6 246.5,1279.5C 249.758,1280.42 253.091,1280.75 256.5,1280.5C 256.5,1282.5 256.5,1284.5 256.5,1286.5C 258.5,1286.5 260.5,1286.5 262.5,1286.5C 262.216,1288.88 262.216,1291.04 262.5,1293C 266.152,1293.5 269.818,1293.67 273.5,1293.5C 273.5,1295.5 273.5,1297.5 273.5,1299.5C 278.241,1299.16 279.574,1301.16 277.5,1305.5C 274.17,1304.91 270.836,1304.24 267.5,1303.5C 268.309,1301.93 268.643,1300.26 268.5,1298.5C 264.393,1298.48 260.393,1297.82 256.5,1296.5C 257.309,1294.93 257.643,1293.26 257.5,1291.5C 253.76,1291.76 250.094,1291.43 246.5,1290.5C 245.769,1288.6 245.769,1286.6 246.5,1284.5C 242.167,1284.5 237.833,1284.5 233.5,1284.5C 233.662,1286.53 233.495,1288.53 233,1290.5C 231.301,1289.59 229.467,1289.26 227.5,1289.5C 227.5,1291.5 227.5,1293.5 227.5,1295.5C 223.452,1295.61 219.452,1295.27 215.5,1294.5C 215.5,1296.5 215.5,1298.5 215.5,1300.5C 211.5,1300.5 207.5,1300.5 203.5,1300.5C 203.799,1302.6 203.466,1304.6 202.5,1306.5C 199.242,1305.58 195.909,1305.25 192.5,1305.5C 192.631,1301.81 194.631,1299.81 198.5,1299.5C 199.309,1297.93 199.643,1296.26 199.5,1294.5C 203.213,1295.29 206.88,1295.29 210.5,1294.5C 211.309,1292.93 211.643,1291.26 211.5,1289.5C 213.5,1289.5 215.5,1289.5 217.5,1289.5C 217.338,1287.47 217.505,1285.47 218,1283.5C 219.699,1284.41 221.533,1284.74 223.5,1284.5C 223.234,1280.43 223.567,1276.43 224.5,1272.5C 222.892,1271.68 221.225,1271.01 219.5,1270.5C 218.589,1264.84 218.755,1259.17 220,1253.5C 221.699,1254.41 223.533,1254.74 225.5,1254.5C 225.5,1252.5 225.5,1250.5 225.5,1248.5C 227.5,1248.5 229.5,1248.5 231.5,1248.5C 231.5,1246.5 231.5,1244.5 231.5,1242.5 Z M 595.5,1242.5 C 600.74,1243.45 606.073,1243.78 611.5,1243.5C 611.577,1247.21 611.244,1250.88 610.5,1254.5C 602.821,1254.4 595.154,1254.07 587.5,1253.5C 587.5,1255.5 587.5,1257.5 587.5,1259.5C 582.187,1258.9 576.854,1258.57 571.5,1258.5C 571.5,1256.83 571.5,1255.17 571.5,1253.5C 573.5,1253.5 575.5,1253.5 577.5,1253.5C 577.5,1251.5 577.5,1249.5 577.5,1247.5C 583.169,1248.63 588.836,1248.63 594.5,1247.5C 595.309,1245.93 595.643,1244.26 595.5,1242.5 Z M 565.5,1259.5 C 566.833,1259.5 568.167,1259.5 569.5,1259.5C 569.687,1265.21 569.354,1270.88 568.5,1276.5C 565.167,1276.17 561.833,1275.83 558.5,1275.5C 558.552,1271.8 558.886,1268.14 559.5,1264.5C 564.368,1266.65 566.368,1264.98 565.5,1259.5 Z M 414.5,1267.5 C 416.167,1267.5 417.833,1267.5 419.5,1267.5C 418.759,1273.47 418.425,1279.47 418.5,1285.5C 420.167,1285.5 421.833,1285.5 423.5,1285.5C 422.582,1290.49 424.582,1292.83 429.5,1292.5C 429.643,1294.26 429.309,1295.93 428.5,1297.5C 430.396,1298.47 432.396,1298.8 434.5,1298.5C 434.5,1300.5 434.5,1302.5 434.5,1304.5C 436.167,1304.5 437.833,1304.5 439.5,1304.5C 439.5,1306.83 439.5,1309.17 439.5,1311.5C 449.497,1311.92 459.497,1312.25 469.5,1312.5C 469.338,1310.47 469.505,1308.47 470,1306.5C 486.77,1308.03 503.603,1309.36 520.5,1310.5C 520.739,1312.47 520.406,1314.3 519.5,1316C 521.473,1316.5 523.473,1316.66 525.5,1316.5C 525.793,1320.44 525.46,1324.27 524.5,1328C 528.751,1329.19 533.085,1329.69 537.5,1329.5C 537.5,1327.5 537.5,1325.5 537.5,1323.5C 539.5,1323.5 541.5,1323.5 543.5,1323.5C 542.58,1318.08 544.58,1316.41 549.5,1318.5C 549.357,1316.74 549.691,1315.07 550.5,1313.5C 554.107,1312.51 557.774,1312.18 561.5,1312.5C 562.432,1302.86 563.098,1293.19 563.5,1283.5C 565.167,1283.5 566.833,1283.5 568.5,1283.5C 567.979,1287.48 567.646,1291.48 567.5,1295.5C 569.5,1295.5 571.5,1295.5 573.5,1295.5C 572.78,1301.14 572.447,1306.8 572.5,1312.5C 570.5,1312.5 568.5,1312.5 566.5,1312.5C 567.596,1317.38 565.929,1319.04 561.5,1317.5C 560.682,1319.11 560.015,1320.77 559.5,1322.5C 554.985,1322.75 552.985,1325.09 553.5,1329.5C 551.5,1329.5 549.5,1329.5 547.5,1329.5C 547.5,1331.5 547.5,1333.5 547.5,1335.5C 543.869,1334.59 540.203,1334.42 536.5,1335C 535.594,1336.7 535.261,1338.53 535.5,1340.5C 531.538,1341.14 530.205,1339.8 531.5,1336.5C 531.182,1335.35 530.516,1334.52 529.5,1334C 526.183,1333.5 522.85,1333.33 519.5,1333.5C 519.833,1331.5 520.167,1329.5 520.5,1327.5C 518.5,1327.5 516.5,1327.5 514.5,1327.5C 514.5,1325.17 514.5,1322.83 514.5,1320.5C 504.832,1319.96 495.166,1319.79 485.5,1320C 484.751,1321.73 484.251,1323.57 484,1325.5C 480.606,1324.54 477.106,1324.21 473.5,1324.5C 473.167,1326.5 472.833,1328.5 472.5,1330.5C 471.167,1330.5 469.833,1330.5 468.5,1330.5C 468.756,1328.21 468.423,1326.04 467.5,1324C 460.165,1323.45 452.831,1322.95 445.5,1322.5C 445.5,1320.5 445.5,1318.5 445.5,1316.5C 441.802,1316.45 438.135,1316.11 434.5,1315.5C 434.5,1313.5 434.5,1311.5 434.5,1309.5C 432.833,1309.5 431.167,1309.5 429.5,1309.5C 429.5,1307.5 429.5,1305.5 429.5,1303.5C 425.491,1303.14 421.491,1302.64 417.5,1302C 418.406,1300.3 418.739,1298.47 418.5,1296.5C 414.131,1296.53 409.798,1296.2 405.5,1295.5C 405.5,1297.5 405.5,1299.5 405.5,1301.5C 400.146,1301.43 394.813,1301.1 389.5,1300.5C 389.5,1298.83 389.5,1297.17 389.5,1295.5C 393.481,1296.02 397.481,1296.35 401.5,1296.5C 401.5,1294.5 401.5,1292.5 401.5,1290.5C 403.5,1290.5 405.5,1290.5 407.5,1290.5C 407.5,1288.5 407.5,1286.5 407.5,1284.5C 409.262,1284.36 410.929,1284.69 412.5,1285.5C 413.958,1279.59 414.624,1273.59 414.5,1267.5 Z M 349.5,1298.5 C 354.74,1299.45 360.073,1299.78 365.5,1299.5C 365.682,1301.59 365.348,1303.59 364.5,1305.5C 366.396,1306.47 368.396,1306.8 370.5,1306.5C 370.5,1308.17 370.5,1309.83 370.5,1311.5C 363.466,1311.01 356.466,1310.34 349.5,1309.5C 348.242,1305.79 348.242,1302.12 349.5,1298.5 Z M 371.5,1300.5 C 377.172,1300.76 382.839,1301.09 388.5,1301.5C 388.843,1305.13 387.177,1306.8 383.5,1306.5C 379.524,1305.84 375.524,1305.5 371.5,1305.5C 371.5,1303.83 371.5,1302.17 371.5,1300.5 Z M 319.5,1302.5 C 326.796,1303.35 334.129,1304.02 341.5,1304.5C 341.5,1306.17 341.5,1307.83 341.5,1309.5C 334.512,1308.93 327.512,1308.43 320.5,1308C 319.594,1306.3 319.261,1304.47 319.5,1302.5 Z M 279.5,1306.5 C 284.862,1306.47 290.195,1306.81 295.5,1307.5C 295.5,1309.17 295.5,1310.83 295.5,1312.5C 290.195,1311.81 284.862,1311.47 279.5,1311.5C 279.5,1309.83 279.5,1308.17 279.5,1306.5 Z M 307.5,1308.5 C 311.167,1308.5 314.833,1308.5 318.5,1308.5C 318.5,1310.17 318.5,1311.83 318.5,1313.5C 314.833,1313.5 311.167,1313.5 307.5,1313.5C 307.5,1311.83 307.5,1310.17 307.5,1308.5 Z M 296.5,1313.5 C 299.187,1313.34 301.854,1313.5 304.5,1314C 306.363,1315.42 306.863,1317.25 306,1319.5C 302.606,1318.54 299.106,1318.21 295.5,1318.5C 295.366,1316.71 295.699,1315.04 296.5,1313.5 Z"/></g>
</svg>
