<?xml version="1.0" encoding="UTF-8"?>
<!DOCTYPE svg PUBLIC "-//W3C//DTD SVG 1.1//EN" "http://www.w3.org/Graphics/SVG/1.1/DTD/svg11.dtd">
<svg xmlns="http://www.w3.org/2000/svg" version="1.1" width="1432px" height="1494px" style="shape-rendering:geometricPrecision; text-rendering:geometricPrecision; image-rendering:optimizeQuality; fill-rule:evenodd; clip-rule:evenodd" xmlns:xlink="http://www.w3.org/1999/xlink">
<g><path style="opacity:1" fill="#fefffe" d="M 689.5,5.5 C 799.829,10.595 910.162,15.595 1020.5,20.5C 1020.5,23.5 1020.5,26.5 1020.5,29.5C 1023.21,29.5751 1025.87,29.9084 1028.5,30.5C 1028.5,33.5 1028.5,36.5 1028.5,39.5C 1031.17,39.5 1033.83,39.5 1036.5,39.5C 1036.5,45.5 1036.5,51.5 1036.5,57.5C 1039.17,57.5 1041.83,57.5 1044.5,57.5C 1044.5,63.5 1044.5,69.5 1044.5,75.5C 1047.17,75.5 1049.83,75.5 1052.5,75.5C 1052.5,81.5 1052.5,87.5 1052.5,93.5C 1058.19,93.5324 1063.86,93.8658 1069.5,94.5C 1069.78,97.4475 1069.44,100.281 1068.5,103C 1071.48,103.498 1074.48,103.665 1077.5,103.5C 1077.5,106.5 1077.5,109.5 1077.5,112.5C 1080.17,112.5 1082.83,112.5 1085.5,112.5C 1085.5,115.5 1085.5,118.5 1085.5,121.5C 1088.52,121.704 1091.52,122.037 1094.5,122.5C 1094.3,125.518 1093.96,128.518 1093.5,131.5C 1096.5,131.5 1099.5,131.5 1102.5,131.5C 1102.5,134.5 1102.5,137.5 1102.5,140.5C 1105.17,140.5 1107.83,140.5 1110.5,140.5C 1110.5,146.5 1110.5,152.5 1110.5,158.5C 1113.17,158.5 1115.83,158.5 1118.5,158.5C 1118.5,164.5 1118.5,170.5 1118.5,176.5C 1121.17,176.5 1123.83,176.5 1126.5,176.5C 1126.5,179.5 1126.5,182.5 1126.5,185.5C 1129.13,186.092 1131.79,186.425 1134.5,186.5C 1134.17,192.206 1134.5,197.872 1135.5,203.5C 1137.75,204.374 1140.08,204.708 1142.5,204.5C 1142.5,210.5 1142.5,216.5 1142.5,222.5C 1145.17,222.5 1147.83,222.5 1150.5,222.5C 1150.5,228.5 1150.5,234.5 1150.5,240.5C 1153.17,240.5 1155.83,240.5 1158.5,240.5C 1158.5,243.5 1158.5,246.5 1158.5,249.5C 1161.5,249.5 1164.5,249.5 1167.5,249.5C 1166.69,255.464 1166.36,261.464 1166.5,267.5C 1169.19,267.336 1171.85,267.503 1174.5,268C 1174.49,270.758 1174.82,273.591 1175.5,276.5C 1178.08,277.393 1180.75,277.726 1183.5,277.5C 1183.5,280.5 1183.5,283.5 1183.5,286.5C 1186.17,286.5 1188.83,286.5 1191.5,286.5C 1191.5,289.5 1191.5,292.5 1191.5,295.5C 1194.45,295.223 1197.28,295.556 1200,296.5C 1199.74,299.082 1199.58,301.748 1199.5,304.5C 1202.25,304.274 1204.92,304.607 1207.5,305.5C 1208.37,311.142 1208.37,316.809 1207.5,322.5C 1213.14,323.127 1218.81,323.627 1224.5,324C 1224.7,326.621 1224.7,329.455 1224.5,332.5C 1227.5,332.5 1230.5,332.5 1233.5,332.5C 1233.5,335.5 1233.5,338.5 1233.5,341.5C 1236.21,341.575 1238.87,341.908 1241.5,342.5C 1241.5,345.5 1241.5,348.5 1241.5,351.5C 1244.17,351.5 1246.83,351.5 1249.5,351.5C 1249.5,354.5 1249.5,357.5 1249.5,360.5C 1252.5,360.5 1255.5,360.5 1258.5,360.5C 1258.1,366.829 1257.77,373.162 1257.5,379.5C 1254.5,379.5 1251.5,379.5 1248.5,379.5C 1248.74,388.208 1248.41,396.874 1247.5,405.5C 1244.83,405.5 1242.17,405.5 1239.5,405.5C 1239.6,408.673 1238.93,411.673 1237.5,414.5C 1235.25,413.626 1232.92,413.292 1230.5,413.5C 1229.76,419.471 1229.43,425.471 1229.5,431.5C 1226.5,431.5 1223.5,431.5 1220.5,431.5C 1220.59,440.188 1220.25,448.854 1219.5,457.5C 1216.5,457.5 1213.5,457.5 1210.5,457.5C 1210.5,460.167 1210.5,462.833 1210.5,465.5C 1213.5,465.5 1216.5,465.5 1219.5,465.5C 1219.5,468.5 1219.5,471.5 1219.5,474.5C 1242.5,475.529 1265.5,476.529 1288.5,477.5C 1288.66,486.895 1288,496.228 1286.5,505.5C 1283.92,504.607 1281.25,504.274 1278.5,504.5C 1277.95,530.855 1276.95,557.188 1275.5,583.5C 1278.5,583.5 1281.5,583.5 1284.5,583.5C 1284.5,589.523 1284.16,595.523 1283.5,601.5C 1286.45,601.223 1289.28,601.556 1292,602.5C 1292.55,608.188 1292.39,613.855 1291.5,619.5C 1294.52,619.704 1297.52,620.037 1300.5,620.5C 1300.5,623.5 1300.5,626.5 1300.5,629.5C 1303.17,629.5 1305.83,629.5 1308.5,629.5C 1308.5,635.5 1308.5,641.5 1308.5,647.5C 1311.17,647.5 1313.83,647.5 1316.5,647.5C 1316.5,650.833 1316.5,654.167 1316.5,657.5C 1313.55,657.777 1310.72,657.444 1308,656.5C 1307.41,668.499 1306.91,680.499 1306.5,692.5C 1303.5,692.5 1300.5,692.5 1297.5,692.5C 1297.5,695.167 1297.5,697.833 1297.5,700.5C 1291.5,700.5 1285.5,700.5 1279.5,700.5C 1279.82,703.572 1279.48,706.572 1278.5,709.5C 1275.97,708.212 1273.47,708.212 1271,709.5C 1270.5,715.157 1270.33,720.824 1270.5,726.5C 1267.5,726.5 1264.5,726.5 1261.5,726.5C 1261.5,729.167 1261.5,731.833 1261.5,734.5C 1258.5,734.5 1255.5,734.5 1252.5,734.5C 1252.37,743.509 1252.04,752.509 1251.5,761.5C 1248.48,761.296 1245.48,760.963 1242.5,760.5C 1242.5,766.5 1242.5,772.5 1242.5,778.5C 1239.5,778.5 1236.5,778.5 1233.5,778.5C 1232.99,787.158 1232.66,795.825 1232.5,804.5C 1229.5,804.5 1226.5,804.5 1223.5,804.5C 1222.86,818.832 1222.69,833.165 1223,847.5C 1233.77,848.539 1244.6,849.039 1255.5,849C 1256.44,846.281 1256.78,843.448 1256.5,840.5C 1269.51,840.973 1282.51,841.639 1295.5,842.5C 1296.83,842.167 1298.17,841.833 1299.5,841.5C 1300.39,838.916 1300.73,836.249 1300.5,833.5C 1307.48,835.047 1310.48,832.38 1309.5,825.5C 1312.19,825.664 1314.85,825.497 1317.5,825C 1318.44,822.281 1318.78,819.448 1318.5,816.5C 1321.5,816.5 1324.5,816.5 1327.5,816.5C 1327.5,813.833 1327.5,811.167 1327.5,808.5C 1330.5,808.5 1333.5,808.5 1336.5,808.5C 1336.5,805.5 1336.5,802.5 1336.5,799.5C 1339.5,799.5 1342.5,799.5 1345.5,799.5C 1345.5,793.833 1345.5,788.167 1345.5,782.5C 1348.5,782.5 1351.5,782.5 1354.5,782.5C 1354.5,779.5 1354.5,776.5 1354.5,773.5C 1357.5,773.5 1360.5,773.5 1363.5,773.5C 1363.53,767.811 1363.87,762.145 1364.5,756.5C 1385.17,757.196 1405.83,757.862 1426.5,758.5C 1425.34,779.48 1424.67,800.48 1424.5,821.5C 1421.5,821.5 1418.5,821.5 1415.5,821.5C 1414.36,842.146 1413.69,862.813 1413.5,883.5C 1410.5,883.5 1407.5,883.5 1404.5,883.5C 1403.75,892.146 1403.41,900.812 1403.5,909.5C 1400.5,909.5 1397.5,909.5 1394.5,909.5C 1394.5,912.5 1394.5,915.5 1394.5,918.5C 1391.55,918.777 1388.72,918.444 1386,917.5C 1385.5,920.482 1385.34,923.482 1385.5,926.5C 1362.13,925.962 1338.8,924.962 1315.5,923.5C 1315.5,926.5 1315.5,929.5 1315.5,932.5C 1309.5,932.5 1303.5,932.5 1297.5,932.5C 1297.5,935.167 1297.5,937.833 1297.5,940.5C 1294.5,940.5 1291.5,940.5 1288.5,940.5C 1288.5,943.5 1288.5,946.5 1288.5,949.5C 1285.5,949.5 1282.5,949.5 1279.5,949.5C 1279.5,952.167 1279.5,954.833 1279.5,957.5C 1276.5,957.5 1273.5,957.5 1270.5,957.5C 1270.5,960.5 1270.5,963.5 1270.5,966.5C 1267.5,966.5 1264.5,966.5 1261.5,966.5C 1260.06,1011.08 1258.23,1055.41 1256,1099.5C 1248.68,1097.06 1245.85,1099.72 1247.5,1107.5C 1238.83,1107.17 1230.17,1106.83 1221.5,1106.5C 1221.5,1109.5 1221.5,1112.5 1221.5,1115.5C 1218.55,1115.78 1215.72,1115.44 1213,1114.5C 1212.5,1117.48 1212.34,1120.48 1212.5,1123.5C 1209.5,1123.5 1206.5,1123.5 1203.5,1123.5C 1203.5,1126.5 1203.5,1129.5 1203.5,1132.5C 1200.55,1132.78 1197.72,1132.44 1195,1131.5C 1194.5,1134.48 1194.34,1137.48 1194.5,1140.5C 1191.5,1140.5 1188.5,1140.5 1185.5,1140.5C 1185.66,1143.19 1185.5,1145.85 1185,1148.5C 1182.28,1149.44 1179.45,1149.78 1176.5,1149.5C 1175.87,1155.14 1175.53,1160.81 1175.5,1166.5C 1172.5,1166.5 1169.5,1166.5 1166.5,1166.5C 1166.5,1169.5 1166.5,1172.5 1166.5,1175.5C 1163.46,1175.49 1160.46,1175.16 1157.5,1174.5C 1157.5,1177.5 1157.5,1180.5 1157.5,1183.5C 1154.5,1183.5 1151.5,1183.5 1148.5,1183.5C 1148.5,1186.5 1148.5,1189.5 1148.5,1192.5C 1145.46,1192.49 1142.46,1192.16 1139.5,1191.5C 1139.5,1197.5 1139.5,1203.5 1139.5,1209.5C 1133.45,1209.7 1127.45,1209.36 1121.5,1208.5C 1121.5,1211.5 1121.5,1214.5 1121.5,1217.5C 1115.5,1217.5 1109.5,1217.5 1103.5,1217.5C 1103.5,1220.17 1103.5,1222.83 1103.5,1225.5C 1097.82,1225.33 1092.16,1225.5 1086.5,1226C 1085.56,1228.38 1085.23,1230.88 1085.5,1233.5C 1082.81,1233.34 1080.15,1233.5 1077.5,1234C 1076.56,1236.72 1076.22,1239.55 1076.5,1242.5C 1070.8,1242.55 1065.14,1242.22 1059.5,1241.5C 1059.49,1244.54 1059.16,1247.54 1058.5,1250.5C 1055.83,1250.5 1053.17,1250.5 1050.5,1250.5C 1050.04,1253.48 1049.7,1256.48 1049.5,1259.5C 1043.88,1258.65 1038.21,1258.31 1032.5,1258.5C 1032.5,1261.5 1032.5,1264.5 1032.5,1267.5C 1029.46,1267.49 1026.46,1267.16 1023.5,1266.5C 1023.5,1269.5 1023.5,1272.5 1023.5,1275.5C 1017.5,1275.5 1011.5,1275.5 1005.5,1275.5C 1005.69,1281.21 1005.35,1286.88 1004.5,1292.5C 1001.83,1292.5 999.167,1292.5 996.5,1292.5C 996.037,1295.48 995.704,1298.48 995.5,1301.5C 992.794,1301.42 990.127,1301.09 987.5,1300.5C 986.637,1306.45 986.303,1312.45 986.5,1318.5C 983.5,1318.5 980.5,1318.5 977.5,1318.5C 977.5,1321.17 977.5,1323.83 977.5,1326.5C 974.5,1326.5 971.5,1326.5 968.5,1326.5C 968.5,1329.5 968.5,1332.5 968.5,1335.5C 965.5,1335.5 962.5,1335.5 959.5,1335.5C 959.665,1338.52 959.498,1341.52 959,1344.5C 950.212,1343.76 941.379,1343.09 932.5,1342.5C 932.5,1345.5 932.5,1348.5 932.5,1351.5C 926.833,1351.5 921.167,1351.5 915.5,1351.5C 915.425,1354.21 915.092,1356.87 914.5,1359.5C 911.833,1359.5 909.167,1359.5 906.5,1359.5C 905.693,1365.46 905.36,1371.46 905.5,1377.5C 902.482,1377.3 899.482,1376.96 896.5,1376.5C 896.456,1388.51 896.123,1400.51 895.5,1412.5C 892.552,1412.78 889.719,1412.44 887,1411.5C 886.501,1417.49 886.334,1423.49 886.5,1429.5C 883.5,1429.5 880.5,1429.5 877.5,1429.5C 877.763,1435.05 877.43,1440.55 876.5,1446C 876.167,1446.5 875.833,1447 875.5,1447.5C 872.652,1445.85 870.152,1446.18 868,1448.5C 867.501,1453.82 867.334,1459.16 867.5,1464.5C 864.5,1464.5 861.5,1464.5 858.5,1464.5C 858.5,1470.17 858.5,1475.83 858.5,1481.5C 855.5,1481.5 852.5,1481.5 849.5,1481.5C 849.5,1484.5 849.5,1487.5 849.5,1490.5C 837.491,1489.92 825.491,1489.25 813.5,1488.5C 813.5,1485.5 813.5,1482.5 813.5,1479.5C 804.809,1479.63 796.142,1479.3 787.5,1478.5C 787.5,1472.5 787.5,1466.5 787.5,1460.5C 781.833,1460.5 776.167,1460.5 770.5,1460.5C 770.5,1457.5 770.5,1454.5 770.5,1451.5C 767.552,1451.78 764.719,1451.44 762,1450.5C 761.825,1447.84 761.992,1445.18 762.5,1442.5C 759.545,1441.84 756.545,1441.51 753.5,1441.5C 753.5,1438.5 753.5,1435.5 753.5,1432.5C 750.833,1432.5 748.167,1432.5 745.5,1432.5C 745.5,1429.5 745.5,1426.5 745.5,1423.5C 739.491,1423.3 733.491,1422.97 727.5,1422.5C 727.963,1419.52 728.296,1416.52 728.5,1413.5C 725.5,1413.5 722.5,1413.5 719.5,1413.5C 719.5,1410.5 719.5,1407.5 719.5,1404.5C 710.838,1404.07 702.171,1403.74 693.5,1403.5C 693.5,1400.5 693.5,1397.5 693.5,1394.5C 687.819,1394.37 682.152,1394.03 676.5,1393.5C 676.5,1390.5 676.5,1387.5 676.5,1384.5C 670.833,1384.5 665.167,1384.5 659.5,1384.5C 659.5,1381.5 659.5,1378.5 659.5,1375.5C 653.879,1374.65 648.212,1374.31 642.5,1374.5C 642.5,1371.5 642.5,1368.5 642.5,1365.5C 636.819,1365.37 631.152,1365.03 625.5,1364.5C 625.5,1361.5 625.5,1358.5 625.5,1355.5C 619.824,1355.67 614.157,1355.5 608.5,1355C 607.167,1352.33 607.167,1349.67 608.5,1347C 602.593,1345.64 596.593,1345.14 590.5,1345.5C 590.5,1342.5 590.5,1339.5 590.5,1336.5C 581.848,1335.85 573.182,1335.52 564.5,1335.5C 564.508,1332.46 564.841,1329.46 565.5,1326.5C 562.833,1326.5 560.167,1326.5 557.5,1326.5C 557.5,1329.17 557.5,1331.83 557.5,1334.5C 554.167,1334.5 550.833,1334.5 547.5,1334.5C 547.5,1331.5 547.5,1328.5 547.5,1325.5C 541.811,1325.47 536.145,1325.13 530.5,1324.5C 530.5,1321.5 530.5,1318.5 530.5,1315.5C 524.833,1315.5 519.167,1315.5 513.5,1315.5C 513.5,1312.5 513.5,1309.5 513.5,1306.5C 505.192,1305.79 496.859,1305.29 488.5,1305C 487.549,1301.94 487.216,1298.78 487.5,1295.5C 478.8,1295.71 470.133,1295.38 461.5,1294.5C 461.5,1291.5 461.5,1288.5 461.5,1285.5C 455.833,1285.5 450.167,1285.5 444.5,1285.5C 444.5,1282.5 444.5,1279.5 444.5,1276.5C 438.862,1275.78 433.196,1275.45 427.5,1275.5C 427.5,1272.5 427.5,1269.5 427.5,1266.5C 412.835,1265.8 398.168,1265.14 383.5,1264.5C 384.159,1261.54 384.492,1258.54 384.5,1255.5C 375.833,1255.17 367.167,1254.83 358.5,1254.5C 358.5,1248.17 358.5,1241.83 358.5,1235.5C 361.5,1235.5 364.5,1235.5 367.5,1235.5C 368.825,1228.83 366.158,1226.16 359.5,1227.5C 359.5,1221.17 359.5,1214.83 359.5,1208.5C 362.455,1209.16 365.455,1209.49 368.5,1209.5C 368.593,1203.48 368.926,1197.48 369.5,1191.5C 372.5,1191.5 375.5,1191.5 378.5,1191.5C 378.5,1188.83 378.5,1186.17 378.5,1183.5C 392.755,1183.52 406.921,1184.19 421,1185.5C 422.149,1182.61 422.649,1179.61 422.5,1176.5C 439.837,1177.07 457.171,1177.74 474.5,1178.5C 474.5,1175.5 474.5,1172.5 474.5,1169.5C 480.471,1170.24 486.471,1170.57 492.5,1170.5C 492.5,1167.5 492.5,1164.5 492.5,1161.5C 495.545,1161.51 498.545,1161.84 501.5,1162.5C 501.5,1159.83 501.5,1157.17 501.5,1154.5C 495.855,1153.87 490.189,1153.53 484.5,1153.5C 484.5,1150.5 484.5,1147.5 484.5,1144.5C 479.12,1144.68 473.787,1144.34 468.5,1143.5C 468.034,1149.49 467.701,1155.49 467.5,1161.5C 458.838,1161.07 450.171,1160.74 441.5,1160.5C 441.5,1163.5 441.5,1166.5 441.5,1169.5C 429.846,1168.71 418.179,1168.04 406.5,1167.5C 406.037,1170.48 405.704,1173.48 405.5,1176.5C 402.5,1176.5 399.5,1176.5 396.5,1176.5C 397.011,1172.97 396.344,1169.8 394.5,1167C 386.467,1166.74 378.467,1166.24 370.5,1165.5C 370.368,1156.81 370.701,1148.14 371.5,1139.5C 368.482,1139.3 365.482,1138.96 362.5,1138.5C 362.928,1132.82 363.095,1127.16 363,1121.5C 357.593,1120.53 352.093,1120.19 346.5,1120.5C 346.817,1123.57 346.484,1126.57 345.5,1129.5C 342.579,1128.59 339.579,1128.26 336.5,1128.5C 337.308,1119.52 337.642,1110.52 337.5,1101.5C 343.5,1101.5 349.5,1101.5 355.5,1101.5C 355.5,1098.83 355.5,1096.17 355.5,1093.5C 352.5,1093.5 349.5,1093.5 346.5,1093.5C 347.159,1090.54 347.492,1087.54 347.5,1084.5C 344.833,1084.5 342.167,1084.5 339.5,1084.5C 339.817,1087.57 339.484,1090.57 338.5,1093.5C 335.916,1092.61 333.249,1092.27 330.5,1092.5C 330.5,1095.5 330.5,1098.5 330.5,1101.5C 327.5,1101.5 324.5,1101.5 321.5,1101.5C 321.817,1104.57 321.484,1107.57 320.5,1110.5C 317.579,1109.59 314.579,1109.26 311.5,1109.5C 311.212,1103.77 311.546,1098.1 312.5,1092.5C 309.914,1091.52 307.247,1091.19 304.5,1091.5C 304.5,1094.5 304.5,1097.5 304.5,1100.5C 298.178,1099.99 291.845,1099.65 285.5,1099.5C 285.5,1096.5 285.5,1093.5 285.5,1090.5C 276.845,1089.92 268.178,1089.58 259.5,1089.5C 259.274,1086.75 259.607,1084.08 260.5,1081.5C 257.973,1080.79 255.473,1080.12 253,1079.5C 249.712,1079.66 246.212,1079.66 242.5,1079.5C 242.223,1076.55 242.556,1073.72 243.5,1071C 240.518,1070.5 237.518,1070.34 234.5,1070.5C 234.5,1067.5 234.5,1064.5 234.5,1061.5C 231.813,1061.66 229.146,1061.5 226.5,1061C 226.043,1060.59 225.709,1060.09 225.5,1059.5C 226.451,1054.23 226.785,1048.9 226.5,1043.5C 220.862,1042.78 215.196,1042.45 209.5,1042.5C 209.5,1039.5 209.5,1036.5 209.5,1033.5C 203.848,1032.97 198.181,1032.63 192.5,1032.5C 192.5,1029.5 192.5,1026.5 192.5,1023.5C 189.278,1023.89 186.278,1023.39 183.5,1022C 184.435,1019.62 184.768,1017.12 184.5,1014.5C 176.633,1015.81 173.633,1012.48 175.5,1004.5C 169.833,1004.5 164.167,1004.5 158.5,1004.5C 159.129,995.18 159.462,985.846 159.5,976.5C 165.523,976.502 171.523,976.835 177.5,977.5C 177.5,974.5 177.5,971.5 177.5,968.5C 180.5,968.5 183.5,968.5 186.5,968.5C 186.5,965.833 186.5,963.167 186.5,960.5C 183.5,960.5 180.5,960.5 177.5,960.5C 178.196,948.503 178.862,936.503 179.5,924.5C 176.5,924.5 173.5,924.5 170.5,924.5C 170.865,912.926 171.531,901.426 172.5,890C 169.722,888.608 166.722,888.108 163.5,888.5C 163.212,882.771 163.546,877.104 164.5,871.5C 161.572,870.516 158.572,870.183 155.5,870.5C 155.5,867.5 155.5,864.5 155.5,861.5C 152.833,861.5 150.167,861.5 147.5,861.5C 149.367,853.524 146.367,850.19 138.5,851.5C 139.578,842.868 139.744,834.202 139,825.5C 133.928,824.529 128.762,824.195 123.5,824.5C 123.5,827.5 123.5,830.5 123.5,833.5C 114.842,832.799 106.175,832.132 97.5,831.5C 97.2962,834.518 96.9629,837.518 96.5,840.5C 84.4251,840.33 72.4251,839.497 60.5,838C 61.8059,832.554 61.8059,827.054 60.5,821.5C 57.8908,820.77 55.2241,820.27 52.5,820C 53.2384,811.212 53.9051,802.379 54.5,793.5C 51.5,793.5 48.5,793.5 45.5,793.5C 45.4255,787.471 45.7588,781.471 46.5,775.5C 43.5,775.5 40.5,775.5 37.5,775.5C 37.5,772.5 37.5,769.5 37.5,766.5C 35.1432,766.663 32.8098,766.497 30.5,766C 29.7178,763.26 29.2178,760.426 29,757.5C 26.6194,756.565 24.1194,756.232 21.5,756.5C 21.5,753.5 21.5,750.5 21.5,747.5C 18.5,747.5 15.5,747.5 12.5,747.5C 12.5,744.5 12.5,741.5 12.5,738.5C 10.0799,738.708 7.7466,738.374 5.5,737.5C 5.02134,725.526 5.02134,713.526 5.5,701.5C 23.1746,702.1 40.8413,702.934 58.5,704C 58.6847,709.708 58.6847,715.541 58.5,721.5C 61.1272,722.092 63.7938,722.425 66.5,722.5C 66.5,725.5 66.5,728.5 66.5,731.5C 72.1667,731.5 77.8333,731.5 83.5,731.5C 83.3268,722.805 83.6602,714.138 84.5,705.5C 90.2124,705.313 95.8791,705.646 101.5,706.5C 101.5,703.5 101.5,700.5 101.5,697.5C 104.5,697.5 107.5,697.5 110.5,697.5C 110.907,691.839 111.24,686.172 111.5,680.5C 114.5,680.5 117.5,680.5 120.5,680.5C 120.5,677.5 120.5,674.5 120.5,671.5C 140.835,672.467 161.168,673.467 181.5,674.5C 181.5,671.833 181.5,669.167 181.5,666.5C 178.833,666.5 176.167,666.5 173.5,666.5C 173.5,663.5 173.5,660.5 173.5,657.5C 147.509,656.034 121.509,654.7 95.5,653.5C 95.5,650.5 95.5,647.5 95.5,644.5C 92.8333,644.5 90.1667,644.5 87.5,644.5C 87.5,650.167 87.5,655.833 87.5,661.5C 84.5,661.5 81.5,661.5 78.5,661.5C 78.498,667.523 78.1646,673.523 77.5,679.5C 74.4552,679.492 71.4552,679.159 68.5,678.5C 68.5,681.5 68.5,684.5 68.5,687.5C 65.1667,687.5 61.8333,687.5 58.5,687.5C 58.9629,684.518 59.2962,681.518 59.5,678.5C 56.7508,678.726 54.0841,678.393 51.5,677.5C 50.9203,671.862 50.7537,666.196 51,660.5C 48.2809,659.556 45.4475,659.223 42.5,659.5C 43.1646,653.523 43.498,647.523 43.5,641.5C 40.5,641.5 37.5,641.5 34.5,641.5C 35.3068,635.536 35.6401,629.536 35.5,623.5C 32.8333,623.5 30.1667,623.5 27.5,623.5C 27.3129,614.139 27.6462,604.805 28.5,595.5C 31.2469,595.813 33.9135,595.48 36.5,594.5C 37.7797,592.298 37.7797,590.132 36.5,588C 33.854,587.503 31.1873,587.336 28.5,587.5C 29.3936,569.841 30.2269,552.174 31,534.5C 33.7191,533.556 36.5525,533.223 39.5,533.5C 39.7038,530.482 40.0371,527.482 40.5,524.5C 49.5141,525.097 58.5141,525.764 67.5,526.5C 66.8413,529.455 66.5079,532.455 66.5,535.5C 72.1667,535.5 77.8333,535.5 83.5,535.5C 83.5,532.833 83.5,530.167 83.5,527.5C 80.5,527.5 77.5,527.5 74.5,527.5C 75.3635,521.545 75.6968,515.545 75.5,509.5C 72.4281,509.817 69.4281,509.484 66.5,508.5C 67.3928,505.916 67.7261,503.249 67.5,500.5C 64.5,500.5 61.5,500.5 58.5,500.5C 58.2229,497.552 58.5562,494.719 59.5,492C 56.7216,490.608 53.7216,490.108 50.5,490.5C 50.5,487.5 50.5,484.5 50.5,481.5C 44.7876,481.687 39.1209,481.354 33.5,480.5C 33.5,477.5 33.5,474.5 33.5,471.5C 27.8333,471.5 22.1667,471.5 16.5,471.5C 16.5925,465.484 16.9258,459.484 17.5,453.5C 14.4824,453.296 11.4824,452.963 8.5,452.5C 9.26555,443.521 9.59888,434.521 9.5,425.5C 15.5,425.5 21.5,425.5 27.5,425.5C 27.5,422.833 27.5,420.167 27.5,417.5C 36.1846,417.464 44.8513,417.797 53.5,418.5C 53.7038,415.482 54.0371,412.482 54.5,409.5C 57.5448,409.508 60.5448,409.841 63.5,410.5C 63.5,413.5 63.5,416.5 63.5,419.5C 69.1667,419.5 74.8333,419.5 80.5,419.5C 80.5,422.5 80.5,425.5 80.5,428.5C 91.8177,429.341 103.151,430.008 114.5,430.5C 114.5,427.5 114.5,424.5 114.5,421.5C 120.152,422.032 125.819,422.365 131.5,422.5C 132.159,419.545 132.492,416.545 132.5,413.5C 135.119,413.232 137.619,413.565 140,414.5C 141.289,411.649 141.789,408.649 141.5,405.5C 144.5,405.5 147.5,405.5 150.5,405.5C 150.5,399.5 150.5,393.5 150.5,387.5C 153.455,388.159 156.455,388.492 159.5,388.5C 159.593,382.484 159.926,376.484 160.5,370.5C 163.448,370.223 166.281,370.556 169,371.5C 169.544,359.499 170.044,347.499 170.5,335.5C 173.5,335.5 176.5,335.5 179.5,335.5C 179.313,329.788 179.646,324.121 180.5,318.5C 203.508,319.334 226.508,320.334 249.5,321.5C 249.5,318.5 249.5,315.5 249.5,312.5C 252.249,312.274 254.916,312.607 257.5,313.5C 258.208,310.634 258.875,307.8 259.5,305C 262.146,304.503 264.813,304.336 267.5,304.5C 267.508,301.455 267.841,298.455 268.5,295.5C 271.127,296.092 273.794,296.425 276.5,296.5C 276.963,293.518 277.296,290.518 277.5,287.5C 280.247,287.813 282.914,287.48 285.5,286.5C 286.23,283.891 286.73,281.224 287,278.5C 294.316,280.942 297.15,278.275 295.5,270.5C 298.5,270.5 301.5,270.5 304.5,270.5C 304.5,264.833 304.5,259.167 304.5,253.5C 307.5,253.5 310.5,253.5 313.5,253.5C 313.845,244.828 314.345,236.162 315,227.5C 317.621,227.296 320.455,227.296 323.5,227.5C 324.041,218.509 324.374,209.509 324.5,200.5C 327.448,200.223 330.281,200.556 333,201.5C 333.424,195.485 333.924,189.485 334.5,183.5C 337.247,183.813 339.914,183.48 342.5,182.5C 343.451,177.23 343.785,171.897 343.5,166.5C 346.5,166.5 349.5,166.5 352.5,166.5C 352.425,160.471 352.759,154.471 353.5,148.5C 356.206,148.575 358.873,148.908 361.5,149.5C 362.363,143.545 362.697,137.545 362.5,131.5C 365.5,131.5 368.5,131.5 371.5,131.5C 371.375,125.797 371.708,120.13 372.5,114.5C 375.167,114.5 377.833,114.5 380.5,114.5C 381.363,108.545 381.697,102.545 381.5,96.5C 384.448,96.2229 387.281,96.5562 390,97.5C 390.785,88.5125 391.285,79.5125 391.5,70.5C 394.5,70.5 397.5,70.5 400.5,70.5C 400.215,65.1032 400.549,59.7698 401.5,54.5C 404.086,53.52 406.753,53.1866 409.5,53.5C 410.159,50.5448 410.492,47.5448 410.5,44.5C 419.142,45.2987 427.809,45.632 436.5,45.5C 436.5,42.8333 436.5,40.1667 436.5,37.5C 448.168,37.7964 459.835,38.1297 471.5,38.5C 471.5,35.5 471.5,32.5 471.5,29.5C 486.046,30.4182 500.546,31.4182 515,32.5C 515.498,29.5184 515.665,26.5184 515.5,23.5C 521.176,23.3339 526.843,23.5006 532.5,24C 533.833,29.6667 533.833,35.3333 532.5,41C 538.379,42.4101 544.379,42.9101 550.5,42.5C 550.296,45.5176 549.963,48.5176 549.5,51.5C 569.487,52.6994 589.487,53.6994 609.5,54.5C 609.5,51.5 609.5,48.5 609.5,45.5C 621.152,46.3326 632.818,46.9993 644.5,47.5C 644.5,44.5 644.5,41.5 644.5,38.5C 656.189,38.9344 667.856,39.6011 679.5,40.5C 679.5,37.5 679.5,34.5 679.5,31.5C 682.5,31.5 685.5,31.5 688.5,31.5C 689.253,22.8544 689.587,14.1877 689.5,5.5 Z M 83.5,733.5 C 86.1667,733.5 88.8333,733.5 91.5,733.5C 91.5,736.167 91.5,738.833 91.5,741.5C 84.8421,742.836 82.1754,740.17 83.5,733.5 Z M 92.5,742.5 C 97.8699,742.392 103.203,742.725 108.5,743.5C 108.5,746.5 108.5,749.5 108.5,752.5C 111.518,752.335 114.518,752.502 117.5,753C 116.565,755.381 116.232,757.881 116.5,760.5C 111.155,760.313 105.822,759.98 100.5,759.5C 100.5,756.5 100.5,753.5 100.5,750.5C 97.4816,750.665 94.4816,750.498 91.5,750C 92.435,747.619 92.7683,745.119 92.5,742.5 Z"/></g>
<g><path style="opacity:1" fill="#fefffe" d="M 214.5,1121.5 C 220.822,1122.01 227.155,1122.35 233.5,1122.5C 233.726,1125.25 233.393,1127.92 232.5,1130.5C 241.107,1131.92 249.774,1132.59 258.5,1132.5C 258.5,1129.5 258.5,1126.5 258.5,1123.5C 279.138,1124.88 299.804,1125.88 320.5,1126.5C 320.5,1129.5 320.5,1132.5 320.5,1135.5C 326.152,1136.03 331.819,1136.37 337.5,1136.5C 337.5,1139.5 337.5,1142.5 337.5,1145.5C 343.181,1145.63 348.848,1145.97 354.5,1146.5C 353.753,1164.5 353.087,1182.5 352.5,1200.5C 349.5,1200.5 346.5,1200.5 343.5,1200.5C 343.5,1203.5 343.5,1206.5 343.5,1209.5C 340.545,1208.84 337.545,1208.51 334.5,1208.5C 334.788,1214.23 334.454,1219.9 333.5,1225.5C 327.536,1226.17 321.536,1226.17 315.5,1225.5C 315.425,1219.47 315.759,1213.47 316.5,1207.5C 310.824,1207.67 305.157,1207.5 299.5,1207C 298.833,1204 298.167,1201 297.5,1198C 292.177,1197.5 286.844,1197.33 281.5,1197.5C 281.5,1194.5 281.5,1191.5 281.5,1188.5C 270.163,1187.86 258.83,1187.2 247.5,1186.5C 247.5,1183.5 247.5,1180.5 247.5,1177.5C 235.835,1177.13 224.168,1176.8 212.5,1176.5C 212.5,1173.5 212.5,1170.5 212.5,1167.5C 203.833,1166.83 195.167,1166.17 186.5,1165.5C 187.013,1162.55 187.013,1159.72 186.5,1157C 178.147,1156.67 169.814,1156.17 161.5,1155.5C 161.284,1146.47 161.617,1137.47 162.5,1128.5C 179.847,1128.83 197.181,1129.5 214.5,1130.5C 214.5,1127.5 214.5,1124.5 214.5,1121.5 Z"/></g>
</svg>
